<?xml version="1.0" encoding="utf-8"?>
<!-- Generator: Adobe Illustrator 22.0.0, SVG Export Plug-In . SVG Version: 6.00 Build 0)  -->
<svg version="1.1" id="Layer_1" xmlns="http://www.w3.org/2000/svg" xmlns:xlink="http://www.w3.org/1999/xlink" x="0px" y="0px"
	 viewBox="0 0 1080 1920" style="enable-background:new 0 0 1080 1920;" xml:space="preserve">
<style type="text/css">
	.st0{fill:#C9CBDD;}
	.st1{fill:none;stroke:url(#SVGID_1_);stroke-width:2;stroke-linecap:round;stroke-linejoin:round;stroke-miterlimit:10;}
	.st2{fill:#00A1A5;}
	.st3{fill:#D9DFFF;}
	.st4{fill:#00C2C7;}
	.st5{fill:#006669;}
	.st6{fill:#008386;}
	.st7{fill:#3E4261;}
	.st8{fill:#30334D;}
	.st9{fill:#00666C;}
	.st10{fill:#FFBA76;}
	.st11{fill:#97B5BA;}
	.st12{fill:#1B1F30;}
	.st13{fill:#EDA86A;}
	.st14{fill:#CA9D25;}
	.st15{fill:#F9C430;}
	.st16{fill:#FFD334;}
	.st17{fill:#C1E9ED;}
	.st18{fill:#DA9961;}
	.st19{fill:#70560F;}
	.st20{fill:#008588;}
	.st21{fill:url(#SVGID_2_);}
	.st22{fill:url(#SVGID_3_);}
	.st23{opacity:0.47;}
	.st24{opacity:0.25;}
	.st25{fill:#3B3B3B;}
	.st26{fill:#FF7180;}
	.st27{fill:url(#SVGID_4_);}
	.st28{fill:url(#SVGID_5_);}
	.st29{opacity:0.42;}
	.st30{fill:#76417F;}
	.st31{opacity:0.37;}
	.st32{fill:#7CAAFF;}
</style>
<g>
	<ellipse class="st0" cx="540.2" cy="1837" rx="336.6" ry="19.5"/>
	<g>
		<linearGradient id="SVGID_1_" gradientUnits="userSpaceOnUse" x1="735.1573" y1="1524.0927" x2="735.1573" y2="1524.0927">
			<stop  offset="0" style="stop-color:#E400FB"/>
			<stop  offset="0.3711" style="stop-color:#8200FC"/>
			<stop  offset="0.4224" style="stop-color:#7C10FC"/>
			<stop  offset="0.5221" style="stop-color:#6D39FB"/>
			<stop  offset="0.659" style="stop-color:#537AFA"/>
			<stop  offset="0.7655" style="stop-color:#3EB2FA"/>
			<stop  offset="1" style="stop-color:#3EB2FA;stop-opacity:0"/>
		</linearGradient>
		<path class="st1" d="M735.2,1524.1"/>
		<g>
			<g>
				<path class="st2" d="M504.6,1623.4h-8v-18.9h8c3.9,0,7,3.2,7,7v4.9C511.7,1620.3,508.5,1623.4,504.6,1623.4z M499.4,1620.7h5.3
					c2.4,0,4.3-1.9,4.3-4.3v-4.9c0-2.4-1.9-4.3-4.3-4.3h-5.3V1620.7z"/>
			</g>
			<g>
				<path class="st3" d="M495.1,1510.3c-3.9,1.1-6.5,3.4-8.5,6c-1.9,2.6-3.2,5.6-3.5,8.5c-0.9,6.1,0.7,12.6,2.8,19.6
					c0.5,1.8,1.1,3.6,1.7,5.4c0.5,1.9,1.1,3.8,1.6,5.8c1,4,1.7,8.2,1.7,12.6c0,4.5-1,9-3,13c-2,4-5.2,7.6-9.3,9.2l-0.8-1
					c2.1-3.4,3-6.8,3.2-10.2c0.3-3.4-0.1-6.8-0.8-10c-1.5-6.7-4.6-13.3-7-21.2c-0.6-2-1.1-4-1.5-6.1c-0.4-2.1-0.7-4.3-0.8-6.5
					c-0.2-4.4,0.2-9.2,2-13.6c1.8-4.6,5-8.4,9.1-10.8c2-1.2,4.2-2.1,6.6-2.5c2.3-0.4,4.7-0.2,6.7,0.5L495.1,1510.3z"/>
			</g>
			<path class="st4" d="M490.6,1598.9h-21.2v24.3c0,2.4,1.1,4.5,2.7,6c1.4,1.2,3.2,1.9,5.2,1.9h12.8c4.4,0,7.9-3.5,7.9-7.9v-24.3
				H490.6z"/>
			<path class="st2" d="M490.6,1598.9v22.3c0,4.4-3.5,7.9-7.9,7.9h-10.5c1.4,1.2,3.2,1.9,5.2,1.9h12.8c4.4,0,7.9-3.5,7.9-7.9v-24.3
				H490.6z"/>
		</g>
		<g>
			<rect x="634.7" y="1704.1" class="st5" width="7.7" height="120.8"/>
			<path class="st4" d="M647.4,1707.8l-84.6-1.1l-7.1-121.4c-0.8-15.5,11.6-28.6,27.1-28.5l50.4-0.5c22.1,0,33.9,20.4,30.7,42.2
				L647.4,1707.8z"/>
			<path class="st6" d="M647.6,1707.9H540.9v-18.5c0-7.9,6.4-14.2,14.2-14.2h78.1c7.9,0,14.2,6.4,14.2,14.2V1707.9z"/>
			<rect x="546.1" y="1704.1" class="st5" width="7.7" height="120.8"/>
		</g>
		<g>
			<path class="st7" d="M624.8,1492.8c7.8-0.5,15.8,4.3,18.9,11.5c6,13.9-5.6,30.2-1.2,44.7c1.8,6,6.1,10.9,9.8,15.9
				c3.7,5.1,7,11,6.3,17.3c-0.8,6.7-6.5,12.2-13.1,13.8c-6.5,1.6-13.6-0.2-19.3-3.9c-5.6-3.7-10-9.1-13.5-14.9
				c-12.1-20-17.7-52.6-4.2-73.2C612.5,1498.1,617.3,1493.3,624.8,1492.8z"/>
			<path class="st8" d="M614,1511.7c7.6-0.5,15.2,3.9,18.2,10.4c5.7,12.5-5.4,27.1-1.2,40.2c1.7,5.4,5.9,9.8,9.5,14.3
				c3.6,4.5,6.8,9.9,6,15.5c-0.8,6-6.3,11-12.6,12.5c-6.3,1.5-13.1-0.2-18.6-3.5c-5.4-3.3-9.6-8.2-13-13.4c-11.7-18-17-47.3-4-65.9
				C602.1,1516.4,606.7,1512.1,614,1511.7z"/>
		</g>
		<g>
			<path class="st9" d="M635.6,1655.3h-64.6c-0.2,0-0.4-0.2-0.4-0.4v-81.5c0-7.9,6.4-14.4,14.4-14.4h36.7c7.9,0,14.4,6.4,14.4,14.4
				v81.5C636,1655.1,635.8,1655.3,635.6,1655.3z"/>
			<g>
				<path class="st10" d="M644.7,1584.6c0,0,23.8,27.6,18.6,45c0,0,0,9-36.9-0.3l-31.2-5.1l-1.3-8.7c7.5-0.3,15.8-0.3,24.7,0.3
					c10.4,0.7,19.9,2,28.3,3.5c-2.2-2.5-4.5-5.4-6.9-8.6c-3.7-5-7.7-11.3-9.5-16.8L644.7,1584.6z"/>
				<path class="st9" d="M616.5,1561.4c0,0,22.9-2.7,41.7,43.1l-20.6,8.1c0,0-13.3-18-15.2-33.6
					C620.6,1563.4,616.5,1561.4,616.5,1561.4z"/>
			</g>
			<g>
				<path class="st10" d="M557.6,1584.2c0,0-26.5,26.5-29.1,43.4c0,0,0.4,5,38.4,2.3h32.7l2.6-6.5c-7.4-1.6-15.5-3-24.4-4
					c-10.4-1.2-19.9-1.5-28.4-1.5c2.6-2.1,5.4-4.5,8.3-7.3c4.5-4.3,9.6-9.8,12.3-14.9L557.6,1584.2z"/>
				<path class="st9" d="M591,1560.8c0,0-23.7-1.2-50.3,40.6l18.8,11.6c0,0,16.2-15.4,20.9-30.4C585.1,1567.6,591,1560.8,591,1560.8
					z"/>
			</g>
		</g>
		<rect x="547.8" y="1623.8" class="st11" width="82.2" height="7.4"/>
		<g>
			<path class="st8" d="M819.8,1809.5c-4.9,4.8-32.7,11.8-34.5,14.6c-0.6,1-0.8,2.2-0.3,3.3c1.4,2.9,6.4,1.5,8.8,1.4
				c3-0.1,34.6-1.7,34.6-1.5l0.3,1.8l10.6-0.5l-0.7-19.4C838.7,1809,830.6,1809.3,819.8,1809.5z"/>
			<path class="st12" d="M781.1,1800.3c-4.3,5.3-31.1,15.7-32.5,18.6c-0.5,1-0.5,2.3,0.1,3.3c1.7,2.7,6.5,0.7,8.9,0.3
				c2.9-0.5,34.2-5.8,34.2-5.7l0.5,1.7l10.4-1.8l-3-19.2C799.9,1797.5,791.9,1798.8,781.1,1800.3z"/>
			<path class="st13" d="M724.7,1565.7c0,0-3.6,53.3-3.6,53.5c-0.4,5.5-9,4.8-12.8,5.4c-5.9,1-13.5,3.2-18,7.3
				c1.6,0.9,4.9,0.5,6.8,0.6c2.5,0.1,4.9,0.2,7.4,0.3c5.1,0.2,10.1,0.3,15.2,0.5c0,0,13.7-0.9,13.2-9c-0.4-8.1,9.9-57,9.9-57
				L724.7,1565.7z"/>
			<path class="st14" d="M715.6,1577.9l30.2,4.5l5.1-41.4c1.2-8.9,1.6-23.4-7.4-25.1c-0.2,0-2-0.6-2.2-0.6
				c-10.1-1.7-24.1,12.6-24.4,22.7L715.6,1577.9z"/>
			<path class="st8" d="M789.4,1608.3l-35.1,82.5c-2.7,6.3-3.2,13.3-1.4,19.8l25.3,92.4l21.9-2.2c-1.3-14.5,0.6-60.4-7.4-75.1
				c-4.3-8-4.3-17.5,0.5-25.2l9.9-15.8l5.7-75.9L789.4,1608.3z"/>
			<path class="st7" d="M824.8,1592.4l-5.3-14.1c0,0,27.7,25.1,23.8,48.2c-3.4,20-9.3,65.3-10.8,77.4c-0.3,2-0.1,4,0.5,5.9l6.5,20.3
				c1.5,4.8,2.2,9.8,2,14.8l-2.2,64.9h-22.5l-18.8-102c-0.2-1.2-0.3-2.4-0.4-3.5l-1.7-96.8L824.8,1592.4z"/>
			<path class="st15" d="M747.4,1510c16.6,3.7,54.1,22.4,83.2,80.5c3.9,7.7-6.8,16.9-12.7,20c-4.8,2.5-10.1,3.9-15.4,4.5
				c-3,0.4-6.1,0.5-9.1,0.5c-1.3,0-9.2,0.2-9.7-0.8c-2-4-4.7-9.2-8.7-14.9c-3.5-5-7.8-10.5-12.9-17.2c-12.2-16-25-27.4-35.2-35.1
				c-1.5-1.9-5-6.7-5.2-13.6c-0.2-5,1.3-11.1,6.5-17.7C732.5,1510.6,740.4,1508.5,747.4,1510z"/>
			<path class="st10" d="M729.5,1538.4l-30.7,31.1c-1.8,1.8-4,3.2-6.4,4.1l-49.1,18.2c-3.2,1.2-6.7,1.2-10,0.1l-6-2.1
				c-2.3-0.8-4.8-1-7.2-0.6l-24.4,4.6l0.3,2.7l20.3,0.3l3.2,5.6c2.3,4,7.1,6.1,11.7,4.9l69.8-17.7c3.4-0.9,6.6-2.5,9.3-4.7
				l34.2-28.3L729.5,1538.4z"/>
			<path class="st10" d="M689.5,1497.8c0.3-0.8,0.2-1.8-0.3-2.5c-2.1-3.1-6.6-12.4,5.9-21.6c0,0,22.6-14.2,32.6,8.2
				c2.9,6.4,2.1,12.1-0.3,16.4c-1,1.9,11.5,10.9,13,11.4c1.8,0.6,5.1,8.3-15.6,17.9c-0.9-1.4-1.2-1.5-2.6-3.5
				c-4.5-6.2-10-9.2-14.9-7.2c-2.3,0.9-6.4,3.8-8.8,2.6c-1.3-0.7-4.1-6.8-4.8-7.4l-0.4-0.3c-0.7-0.6-1.2-1.5-1.2-2.4l0-1.5l-3.1-1.3
				c-1.2-0.5-1.8-1.8-1.4-3L689.5,1497.8z"/>
			<path class="st7" d="M714.7,1496.8c0.9-0.1,1.7-0.3,2.6-0.4c-0.6-1.2-1.1-2.4-1-3.7c0.2-1.3,1.3-2.6,2.7-2.3
				c1.7,0.3,2,2.5,2.3,4.2c1,5.1,6.7,8.8,11.9,7.9c0.4-6.2,0.7-12.4-0.5-18.5c-1.2-6.1-4.2-12-9.3-15.7c-4.8-3.4-10.9-4.5-16.8-4.3
				c-6.2,0.2-12.4,1.6-18.1,4.2c-2.6,1.2-5.2,2.7-7,4.8c-1.8,2.2-2.9,5.1-2.2,7.8c0.9,3.5,4.6,5.9,8.3,6.5c3.7,0.6,7.5-0.2,11.2-1
				c2.9-0.6,8.4-2.6,10.7-0.2C710.5,1487.2,713.8,1497,714.7,1496.8z"/>
			<path class="st16" d="M710.1,1552.6l20.3,20.6l26.2-24.9c6.3-6,6.8-15.8,1-22.2c-0.1-0.1-0.2-0.2-0.3-0.3
				c-6.7-7.1-18.4-6.5-24.7,0.9L710.1,1552.6z"/>
		</g>
		<path class="st17" d="M614.4,1631.1H547l-18.1-39c-0.4-0.8,0.2-1.8,1.2-1.8h60.9c2.8,0,5.3,1.6,6.5,4.1L614.4,1631.1z"/>
		<polygon class="st14" points="741.4,1639.5 361.7,1639.5 364.7,1631 738.3,1631 		"/>
		<g>
			<g>
				<path class="st10" d="M582.2,1528.3c0,0,1.3,29.4,10.4,30.6c11.1,1.5,18.8-4.1,20.7-14c0.7-4-0.2-15.5-1.2-22.7
					c-0.7-4.6-5.9-9-10.5-9.7c-2.6-0.4-5.8-0.4-9.3,0.8C580.2,1517.2,582.2,1528.3,582.2,1528.3z"/>
				<path class="st10" d="M595.5,1553.1c0,0-0.3,7.4,0,10.6c0,0,3.3,6.3,10.6,4.8c7.3-1.5,6.1-6.3,6.1-6.3l-1.1-20.9L595.5,1553.1z"
					/>
				<path class="st7" d="M626.3,1524.1c-1.6-10-10.3-18.4-20.4-19.9c-7.5-1.1-15.4,1.5-21,6.6c-6.4,5.7-9.1,13.1-7.5,21.7
					c6.1,1.7,30,1.7,34.5,1.4c0.2,4.9,1.8,9,1.9,13.9C623.3,1544.2,627.8,1534.1,626.3,1524.1z"/>
				<path class="st10" d="M617.1,1541.1c-0.6,2.5-2.3,4.2-3.9,3.9c-1.6-0.4-2.4-2.7-1.9-5.2c0.6-2.5,2.3-4.2,3.9-3.9
					C616.8,1536.3,617.7,1538.6,617.1,1541.1z"/>
				<path class="st7" d="M613.4,1536.5l-1.1-1.3l-6.2,5.1c-0.8-2-3.1-3.5-5.9-3.5c-2.4,0-4.5,1.1-5.5,2.8c-1.5-0.6-3.4-0.8-4.7-0.1
					c-0.1,0-0.2,0.1-0.2,0.2c-1-1.7-3.2-2.9-5.6-2.9c-3.4,0-6.2,2.3-6.2,5.1c0,2.8,2.8,5.1,6.2,5.1s6.2-2.3,6.2-5.1
					c0-0.4,0.1-0.6,0.5-0.8c0.8-0.4,2.2-0.2,3.3,0.2c0,0.2-0.1,0.4-0.1,0.6c0,2.8,2.8,5.1,6.2,5.1c3.3,0,5.9-2.1,6.2-4.7
					L613.4,1536.5z M588.6,1541.9c0,1.8-2,3.3-4.5,3.3c-2.5,0-4.5-1.5-4.5-3.3c0-1.8,2-3.3,4.5-3.3c2.1,0,3.9,1.1,4.4,2.6l0.2-0.1
					C588.6,1541.3,588.6,1541.6,588.6,1541.9z M600.2,1545.2c-2.5,0-4.5-1.5-4.5-3.3c0-1.8,2-3.3,4.5-3.3c2.5,0,4.5,1.5,4.5,3.3
					C604.7,1543.7,602.7,1545.2,600.2,1545.2z"/>
				<path class="st18" d="M595,1558.7l0.5,5c0,0,5.8,8.2,12.1-6.7c6.3-14.9,0.8-3.8,0.8-3.8S602.7,1560.1,595,1558.7z"/>
			</g>
			<g>
				<path class="st16" d="M622.7,1515.1c0.6-1.2,1-2.5,1-3.9c0-4.9-4.2-8.9-9.4-8.9c-2.4,0-4.6,0.9-6.3,2.3
					C614,1506.1,619.3,1510,622.7,1515.1z"/>
			</g>
		</g>
		<rect x="680" y="1639.2" class="st19" width="9.2" height="189.9"/>
		<g>
			<polygon class="st10" points="354.8,1771.2 349.3,1790.7 337.6,1787.3 343.6,1767.5 			"/>
			<path class="st8" d="M298,1682.3l59,11c1.7,0.5,2.4,2.6,1.3,4c-4.8,6.1-14.7,24.4-20.2,75.3l16.1,4l36.7-90.7l2.9-21.8
				L298,1682.3z"/>
			<g>
				<path class="st12" d="M438.9,1732.2c4.2,2.5,9.2,6.1,14.4,11.2c4.2,4.1,7.4,8.2,9.7,11.7c3.1,3.1,3.3,7.9,0.7,11.1
					c-3,3.7-8.5,4-11.9,0.8c-4.1-2.7-8.7-6.3-13.4-10.9c-3.5-3.4-6.3-6.8-8.7-9.9c-0.3-0.3-1.1-1.1-1.4-2.4c-0.3-0.9-0.3-1.8,0-2.8
					l2.1-7.9L438.9,1732.2z"/>
				<path class="st10" d="M435.4,1726.1l6.1,8.9c0.9,1.3,1.1,2.8,0.7,4.3l0,0c-0.8,2.9-3.9,4.6-6.7,3.7l-1.2-0.4
					c-1.3-0.4-2.4-1.4-3-2.6l-5.3-10.4L435.4,1726.1z"/>
				<path class="st7" d="M284.7,1639.6c0,0-15.7,26-3.4,45.2s94.5-12.2,94.5-12.2s39.8,57.8,49.4,61.6c0,0,11.9,0,14.2-6.1
					c0,0-32.1-76.9-57.4-80.7l-61.6,1.9L284.7,1639.6z"/>
			</g>
			<g>
				<polygon class="st20" points="281.4,1828.3 268.4,1828.3 283.7,1697.4 296.7,1697.4 				"/>
				<polygon class="st20" points="354.9,1828.3 367.9,1828.3 352.6,1697.4 339.6,1697.4 				"/>
				<rect x="310.3" y="1696.3" class="st5" width="12.6" height="131.4"/>
				<path class="st4" d="M360.4,1704.7h-81.1c-4.4,0-8-4-8-9l0,0c0-4.9,3.6-9,8-9h81.1c4.4,0,8,4,8,9l0,0
					C368.5,1700.7,364.9,1704.7,360.4,1704.7z"/>
			</g>
			<path class="st12" d="M369,1803l-12.5-14.8c-0.4-1.3-0.8-2.6-1.3-3.8c-0.4-1-1-2.1-2-2.2c-0.9-0.1-1.8,0.6-2.1,1.4
				c-0.3,0.7-0.4,1.5-0.3,2.4c-6.7-0.2-12.6-6.2-12.6-6.2c-3.5,3.3-5.2,7.8-6,10.5c-0.3,1.2,0.2,2.5,1.1,3.1l35.6,22.1l1.4-2.2
				C371.8,1809.9,371.3,1805.8,369,1803z"/>
		</g>
		<g>
			<polygon class="st17" points="446.4,1579.8 456.1,1581.5 437.7,1630.8 427.4,1630.6 			"/>
			<g>
				<path class="st18" d="M426,1630.3c-6.6-16.1-21.7-13-30.1-9.7c-1.9,0.7-3.9,1-5.9,0.9c-3.1-0.1-6.1-0.2-9.2-0.3
					c-4.5,0-9,0-13.6,0.1c-4.5,0.1-9,0.3-13.5,0.5c-2.1,0.1-4.2,0.2-6.2,0.4c-1.1-2-2.2-4.1-3.3-6.2c-1.9-3.8-3.7-7.7-5.4-11.6
					c-1.6-3.9-3.2-7.9-4.6-11.9c-1.4-4-2.7-8.1-4-12.1l0-0.1c-1.8-5.6-7.8-9.1-13.8-7.2c-5.3,1.6-8.5,7.2-7.5,12.7
					c0.8,4.8,2.1,9.5,3.5,14.1c1.5,4.7,3.3,9.4,5.3,13.8c2,4.5,4.4,8.9,6.9,13.1c2.5,4.3,5.3,8.3,8.3,12.3l0.5,0.7
					c2.2,2.9,5.8,4.5,9.6,3.8c4.4-0.8,8.8-1.7,13.2-2.6c4.4-0.9,8.8-1.9,13.2-2.9c4.4-1,8.8-2.1,13.1-3.3c3.1-0.9,6.3-1.8,9.4-2.8
					L426,1630.3z"/>
				<path class="st16" d="M332.7,1575.2l7.3,17.2c3.2,7.6,1.4,16.5-4.5,22.2l-9.1,8.8l-5.4,26.2c0,0-21,4.8-41.7-7.3
					c0,0,10.9-23,10.3-41.9c-0.6-18.9,7.5-41.3,29.3-35L332.7,1575.2z"/>
				<path class="st10" d="M317.5,1565.7c0,0,4.9,11.5,12.3,13.2l0.7-15c0.2-4.2,4.3-7.1,8.3-5.9l2,0.6c3.7,1.1,7.7-0.7,9.3-4.2
					l2-4.3c0.9-2.1,2.9-3.5,5.2-3.7l0,0c1.6-0.1,2.6-1.6,2.3-3.1l-1.1-4.9l4.3-9.5c1.3-2.9,1.4-6.1,0.3-9.1
					c-2.5-6.7-8.8-17.4-22.9-17c-20.2,0.6-25,9.2-29.3,34.2L317.5,1565.7z"/>
				<g>
					<linearGradient id="SVGID_2_" gradientUnits="userSpaceOnUse" x1="247.1373" y1="1555.6106" x2="366.4943" y2="1555.6106">
						<stop  offset="0" style="stop-color:#212852"/>
						<stop  offset="1" style="stop-color:#333961"/>
					</linearGradient>
					<path class="st21" d="M348,1497.3c-9.1-2.9-19.6-1.2-27.3,4.5c-10.8,8-16.3,22.9-29,27.5c-8.9,3.2-21.5-2.1-26.9,8.5
						c-1.7,3.4-2.1,7.3-2.5,11.1c-0.4,3.8-0.9,7.7-2.7,11c-2.5,4.4-7,7.3-9.4,11.7c-2.7,4.8-3.3,11.9-2.7,17.3
						c1.9,18.2,21.1,33.6,38.7,23c7.9-4.7,2-16.6,4.2-24.1c1.4-4.8,2.7-9.3,5.4-13.5c2.7-4.2,6.7-8,11.7-8.7
						c4.9-0.8,10.4,1.4,14.7-1.2c4.7-2.8,4.9-9.5,4.2-15c-0.7-5.5-1.4-11.9,2.5-15.7c2.4-2.4,6.1-3.1,9.5-3.1
						c3.4,0,6.8,0.6,10.2,0.2c5.1-0.6,12-2.9,15-7.1c0.6-0.9,1.9-2.7,2.4-4c2.1-5.3-1.2-11.2-5.3-15.2
						C357.2,1501.2,352.4,1498.7,348,1497.3z"/>
				</g>
				<rect x="389.1" y="1622.8" class="st11" width="47.1" height="8"/>
				<path class="st10" d="M415.4,1631.4c-6.6-16.1-21.7-13-30.1-9.7c-1.9,0.7-3.9,1-5.9,0.9c-3.1-0.1-6.1-0.2-9.2-0.3
					c-4.5,0-9,0-13.6,0.1c-4.5,0.1-9,0.3-13.5,0.5c-2.1,0.1-4.2,0.2-6.2,0.4c-1.1-2-2.2-4.1-3.3-6.2c-1.9-3.8-3.7-7.7-5.4-11.6
					c-1.6-3.9-3.2-7.9-4.6-11.9c-1.4-4-2.7-8.1-4-12.1l0-0.1c-1.8-5.6-7.8-9.1-13.8-7.2c-5.3,1.6-8.5,7.2-7.5,12.7
					c0.8,4.8,2.1,9.5,3.5,14.1c1.5,4.7,3.3,9.4,5.3,13.8c2,4.5,4.4,8.9,6.9,13.1c2.5,4.3,5.3,8.3,8.3,12.3l0.5,0.7
					c2.2,2.9,5.8,4.5,9.6,3.8c4.4-0.8,8.8-1.7,13.2-2.6c4.4-0.9,8.8-1.9,13.2-2.9c4.4-1,8.8-2.1,13.1-3.3c3.1-0.9,6.3-1.8,9.4-2.8
					L415.4,1631.4z"/>
			</g>
		</g>
		<g>
			<g>
				<g>
					<polygon class="st10" points="487.2,1798.8 479.5,1811.2 489.6,1818 497.7,1805.6 					"/>
					<path class="st12" d="M481.8,1811.1c0,0-11.3-9.7-29.7-7.3c-2,0.3-2.6,2.9-0.9,3.9l34.2,21.5c0,0,7.7-9.7,4.9-13.5
						C490.3,1815.7,484.2,1817.4,481.8,1811.1z"/>
				</g>
				<path class="st8" d="M552.5,1676.5l-70.8,126.1c4.5,4.2,9.3,8.1,14.4,11.5l43-64.6c7.9-5.3,16.4-10.5,16.4-10.5
					c16.6-10.8,50.5-46.2,50.5-46.2L552.5,1676.5z"/>
			</g>
			<g>
				<polygon class="st10" points="554,1801.8 557.7,1820.1 569.7,1820.1 566,1800.6 				"/>
				<path class="st7" d="M633.9,1653.8l-99.1,0.3c-14.2,0-24.6,13.5-21.1,27.3l36,123.6h18.9l-6.9-60.5c-0.1-1.2,0-2.4,0.2-3.6
					c5.9-28.1-12-44.6-12-44.6c10.2,4.4,26.6,6.3,42.3,7.2c22.4,1.2,41.4-16.4,42.1-38.8L633.9,1653.8z"/>
				<path class="st12" d="M559.5,1817.5c0,0-16-1.7-30.7,12c-1.2,1.2-0.3,3.3,1.4,3.2l43.2-1.8c0,0,0.9-13-3.8-14.5
					C569.5,1816.4,565.3,1821.5,559.5,1817.5z"/>
			</g>
		</g>
		<rect x="384.6" y="1639.2" class="st19" width="9.2" height="189.9"/>
	</g>
</g>
<path class="st15" d="M949.7,1051h-8.5v-8.5c0-2.4-2-4.4-4.4-4.4c-2.4,0-4.4,2-4.4,4.4v8.5H924c-2.4,0-4.4,2-4.4,4.4
	c0,2.4,2,4.4,4.4,4.4h8.5v8.5c0,2.4,2,4.4,4.4,4.4c2.4,0,4.4-2,4.4-4.4v-8.5h8.5c2.4,0,4.4-2,4.4-4.4
	C954,1053,952.1,1051,949.7,1051z"/>
<g>
	<g>
		<g>
			<linearGradient id="SVGID_3_" gradientUnits="userSpaceOnUse" x1="911.0984" y1="158.25" x2="977" y2="158.25">
				<stop  offset="0" style="stop-color:#333961"/>
				<stop  offset="1" style="stop-color:#212852"/>
			</linearGradient>
			<path class="st22" d="M963.7,175.7l8.5,1l3.6-7.4l-6-6.2l0.4-6.5l6.7-5.3l-2.6-7.8l-8.6-0.1l-4.3-4.9l1-8.5l-7.4-3.6l-6.2,6
				l-6.5-0.4l-5.3-6.7l-7.8,2.6l-0.1,8.6l-4.9,4.3l-8.5-1l-3.6,7.4l6,6.2l-0.4,6.5l-6.7,5.3l2.6,7.8l8.6,0.1l4.3,4.9l-1,8.5l7.4,3.6
				l6.2-6l6.5,0.4l5.3,6.7l7.8-2.6l0.1-8.6L963.7,175.7z M955.7,171.6c-7.4,6.5-18.6,5.7-25-1.7c-6.5-7.4-5.7-18.6,1.7-25
				c7.4-6.5,18.6-5.7,25,1.7C963.9,153.9,963.1,165.1,955.7,171.6z"/>
		</g>
	</g>
	<g>
		<g>
			<path class="st4" d="M893.7,152.4l8.5,1l3.6-7.4l-6-6.2l0.4-6.5l6.7-5.3l-2.6-7.8l-8.6-0.1l-4.3-4.9l1-8.5l-7.4-3.6l-6.2,6
				l-6.5-0.4l-5.3-6.7l-7.8,2.6l-0.1,8.6l-4.9,4.3l-8.5-1l-3.6,7.4l6,6.2l-0.4,6.5l-6.7,5.3l2.6,7.8l8.6,0.1l4.3,4.9l-1,8.5l7.4,3.6
				l6.2-6l6.5,0.4l5.3,6.7l7.8-2.6l0.1-8.6L893.7,152.4z M885.8,148.3c-7.4,6.5-18.6,5.7-25-1.7c-6.5-7.4-5.7-18.6,1.7-25
				c7.4-6.5,18.6-5.7,25,1.7C893.9,130.6,893.2,141.8,885.8,148.3z"/>
		</g>
	</g>
</g>
<polygon class="st15" points="973,368.9 930.8,423 960.5,423.9 948.3,460.2 993,403 962,403.3 "/>
<g class="st23">
	<g class="st24">
		<path class="st25" d="M1017.6,823.4c-12,2.8-24.3,2.6-28.9-9.5c-3.4-9,2.5-15.6,4.9-24.1c2.8-9.7,0.9-20-6.1-28.2
			c-13.4-15.5-45.9-17.3-54.3,2.7c-2.1,5,4.2,11.2,9.9,8.5c6.9-3.4,14.5-9.2,23.1-6.4c13,4.1,11,17,7.7,25.8
			c-3.6,9.9-6.4,19-1.4,29.2c8.5,17.3,34.4,25.1,49.6,10.9C1025.6,829.3,1023.7,822,1017.6,823.4L1017.6,823.4z"/>
	</g>
	<g>
		<g>
			<path class="st26" d="M1015.6,821.4c-12,2.8-24.3,2.6-28.9-9.5c-3.4-9,2.5-15.6,4.9-24.1c2.8-9.7,0.9-20-6.1-28.2
				c-13.4-15.5-45.9-17.3-54.3,2.7c-2.1,5,4.2,11.2,9.9,8.5c6.9-3.4,14.5-9.2,23.1-6.4c13,4.1,11,17,7.7,25.8
				c-3.6,9.9-6.4,19-1.4,29.2c8.5,17.3,34.4,25.1,49.6,10.9C1023.6,827.3,1021.7,820,1015.6,821.4L1015.6,821.4z"/>
		</g>
	</g>
</g>
<g class="st23">
	<g class="st24">
		<path class="st25" d="M182.6,990.4c-12,2.8-24.3,2.6-28.9-9.5c-3.4-9,2.5-15.6,4.9-24.1c2.8-9.7,0.9-20-6.1-28.2
			c-13.4-15.5-45.9-17.3-54.3,2.7c-2.1,5,4.2,11.2,9.9,8.5c6.9-3.4,14.5-9.2,23.1-6.4c13,4.1,11,17,7.7,25.8
			c-3.6,9.9-6.4,19-1.4,29.2c8.5,17.3,34.4,25.1,49.6,10.9C190.6,996.3,188.7,989,182.6,990.4L182.6,990.4z"/>
	</g>
	<g>
		<g>
			<path class="st26" d="M180.6,988.4c-12,2.8-24.3,2.6-28.9-9.5c-3.4-9,2.5-15.6,4.9-24.1c2.8-9.7,0.9-20-6.1-28.2
				c-13.4-15.5-45.9-17.3-54.3,2.7c-2.1,5,4.2,11.2,9.9,8.5c6.9-3.4,14.5-9.2,23.1-6.4c13,4.1,11,17,7.7,25.8
				c-3.6,9.9-6.4,19-1.4,29.2c8.5,17.3,34.4,25.1,49.6,10.9C188.6,994.3,186.7,987,180.6,988.4L180.6,988.4z"/>
		</g>
	</g>
</g>
<g>
	<g class="st24">
		<path class="st25" d="M163.4,178.1c5.3,11.1,7.9,23.2-2.9,30.2c-8.1,5.3-15.7,1-24.6,0.5c-10.1-0.6-19.7,3.5-26.1,12.1
			c-12.2,16.5-6.8,48.6,14.5,52.4c5.3,0.9,10.1-6.6,6.1-11.5c-4.8-6-12.1-12.1-11.3-21.1c1.2-13.5,14.2-14.4,23.5-13.2
			c10.5,1.4,20,2.1,28.8-5c15-12.1,17-39-0.1-50.8C167.3,169.1,160.7,172.5,163.4,178.1L163.4,178.1z"/>
	</g>
	<g>
		<g>
			<linearGradient id="SVGID_4_" gradientUnits="userSpaceOnUse" x1="101.2829" y1="220.1074" x2="181.2403" y2="220.1074">
				<stop  offset="0" style="stop-color:#333961"/>
				<stop  offset="1" style="stop-color:#212852"/>
			</linearGradient>
			<path class="st27" d="M161.4,176.1c5.3,11.1,7.9,23.2-2.9,30.2c-8.1,5.3-15.7,1-24.6,0.5c-10.1-0.6-19.7,3.5-26.1,12.1
				c-12.2,16.5-6.8,48.6,14.5,52.4c5.3,0.9,10.1-6.6,6.1-11.5c-4.8-6-12.1-12.1-11.3-21.1c1.2-13.5,14.2-14.4,23.5-13.2
				c10.5,1.4,20,2.1,28.8-5c15-12.1,17-39-0.1-50.8C165.3,167.1,158.7,170.5,161.4,176.1L161.4,176.1z"/>
		</g>
	</g>
</g>
<g>
	<g class="st24">
		<path class="st25" d="M163.4,1160.1c5.3,11.1,7.9,23.2-2.9,30.2c-8.1,5.3-15.7,1-24.6,0.5c-10.1-0.6-19.7,3.5-26.1,12.1
			c-12.2,16.5-6.8,48.6,14.5,52.4c5.3,0.9,10.1-6.6,6.1-11.5c-4.8-6-12.1-12.1-11.3-21.1c1.2-13.5,14.2-14.4,23.5-13.2
			c10.5,1.4,20,2.1,28.8-5c15-12.1,17-39-0.1-50.8C167.3,1151.1,160.7,1154.5,163.4,1160.1L163.4,1160.1z"/>
	</g>
	<g>
		<g>
			<linearGradient id="SVGID_5_" gradientUnits="userSpaceOnUse" x1="101.2829" y1="1202.1073" x2="181.2403" y2="1202.1073">
				<stop  offset="0" style="stop-color:#333961"/>
				<stop  offset="1" style="stop-color:#212852"/>
			</linearGradient>
			<path class="st28" d="M161.4,1158.1c5.3,11.1,7.9,23.2-2.9,30.2c-8.1,5.3-15.7,1-24.6,0.5c-10.1-0.6-19.7,3.5-26.1,12.1
				c-12.2,16.5-6.8,48.6,14.5,52.4c5.3,0.9,10.1-6.6,6.1-11.5c-4.8-6-12.1-12.1-11.3-21.1c1.2-13.5,14.2-14.4,23.5-13.2
				c10.5,1.4,20,2.1,28.8-5c15-12.1,17-39-0.1-50.8C165.3,1149.1,158.7,1152.5,161.4,1158.1L161.4,1158.1z"/>
		</g>
	</g>
</g>
<g class="st29">
	<g class="st24">
		<path class="st25" d="M548.3,999.8c-7.8,22.3,3.6,46.3,28.7,49.2c23.4,2.7,46-18.1,44.2-41.9c-1.6-22-23.3-40-45.2-36.8
			c-21.2,3.1-41.2,28.1-31.3,49.2c3.1,6.6,14.1,4.1,15.2-2.7c1.9-11.9,2.5-23.6,15.7-28.7c12.3-4.7,26.1,5.3,28.5,17.7
			c2.5,13.2-9.7,26.1-22.7,26.5c-14.4,0.5-29-17.3-27.7-31.3C554.1,997.4,549.5,996.4,548.3,999.8L548.3,999.8z"/>
	</g>
	<g>
		<g>
			<path class="st30" d="M546.3,997.8c-7.8,22.3,3.6,46.3,28.7,49.2c23.4,2.7,46-18.1,44.2-41.9c-1.6-22-23.3-40-45.2-36.8
				c-21.2,3.1-41.2,28.1-31.3,49.2c3.1,6.6,14.1,4.1,15.2-2.7c1.9-11.9,2.5-23.6,15.7-28.7c12.3-4.7,26.1,5.3,28.5,17.7
				c2.5,13.2-9.7,26.1-22.7,26.5c-14.4,0.5-29-17.3-27.7-31.3C552.1,995.4,547.5,994.4,546.3,997.8L546.3,997.8z"/>
		</g>
	</g>
</g>
<g>
	<g class="st24">
		<path class="st25" d="M216.3,703.8c-7.8,22.3,3.6,46.3,28.7,49.2c23.4,2.7,46-18.1,44.2-41.9c-1.6-22-23.3-40-45.2-36.8
			c-21.2,3.1-41.2,28.1-31.3,49.2c3.1,6.6,14.1,4.1,15.2-2.7c1.9-11.9,2.5-23.6,15.7-28.7c12.3-4.7,26.1,5.3,28.5,17.7
			c2.5,13.2-9.7,26.1-22.7,26.5c-14.4,0.5-29-17.3-27.7-31.3C222.1,701.4,217.5,700.4,216.3,703.8L216.3,703.8z"/>
	</g>
	<g>
		<g>
			<path class="st4" d="M214.3,701.8c-7.8,22.3,3.6,46.3,28.7,49.2c23.4,2.7,46-18.1,44.2-41.9c-1.6-22-23.3-40-45.2-36.8
				c-21.2,3.1-41.2,28.1-31.3,49.2c3.1,6.6,14.1,4.1,15.2-2.7c1.9-11.9,2.5-23.6,15.7-28.7c12.3-4.7,26.1,5.3,28.5,17.7
				c2.5,13.2-9.7,26.1-22.7,26.5c-14.4,0.5-29-17.3-27.7-31.3C220.1,699.4,215.5,698.4,214.3,701.8L214.3,701.8z"/>
		</g>
	</g>
</g>
<g class="st29">
	<g class="st24">
		<path class="st25" d="M99.3,427.8c-7.8,22.3,3.6,46.3,28.7,49.2c23.4,2.7,46-18.1,44.2-41.9c-1.6-22-23.3-40-45.2-36.8
			c-21.2,3.1-41.2,28.1-31.3,49.2c3.1,6.6,14.1,4.1,15.2-2.7c1.9-11.9,2.5-23.6,15.7-28.7c12.3-4.7,26.1,5.3,28.5,17.7
			c2.5,13.2-9.7,26.1-22.7,26.5c-14.4,0.5-29-17.3-27.7-31.3C105.1,425.4,100.5,424.4,99.3,427.8L99.3,427.8z"/>
	</g>
	<g>
		<g>
			<path class="st30" d="M97.3,425.8c-7.8,22.3,3.6,46.3,28.7,49.2c23.4,2.7,46-18.1,44.2-41.9c-1.6-22-23.3-40-45.2-36.8
				c-21.2,3.1-41.2,28.1-31.3,49.2c3.1,6.6,14.1,4.1,15.2-2.7c1.9-11.9,2.5-23.6,15.7-28.7c12.3-4.7,26.1,5.3,28.5,17.7
				c2.5,13.2-9.7,26.1-22.7,26.5c-14.4,0.5-29-17.3-27.7-31.3C103.1,423.4,98.5,422.4,97.3,425.8L97.3,425.8z"/>
		</g>
	</g>
</g>
<g class="st31">
	<g class="st24">
		<path class="st25" d="M877.4,1252.9c11.6,16.3,24,39.2,41.2,50.3c20.9,13.5,26.3-13.2,30.2-27.9c3.7-13.8,17.9-44.2-3.5-50.8
			c-9.5-2.9-20.9,2.5-29.8,5.2c-12.9,3.8-25.8,7.7-38.7,11.5c-13,3.9-6.6,24.4,6.3,20.1c9.6-3.2,19.2-6.3,28.7-9.5
			c5.4-1.8,24.4-11.3,29.7-7.5c-1.6-1.9-3.1-3.7-4.7-5.6c3.2,7.1-3.8,23.1-5.5,30.3c-1.2,4.9-2.8,9.8-3.5,14.8c-1.2,8-0.8,4-5.7-0.5
			c-13.2-12-25.4-23.9-40-34.3C879.5,1247.1,875.2,1249.8,877.4,1252.9L877.4,1252.9z"/>
	</g>
	<g>
		<g>
			<path class="st32" d="M875.4,1250.9c11.6,16.3,24,39.2,41.2,50.3c20.9,13.5,26.3-13.2,30.2-27.9c3.7-13.8,17.9-44.2-3.5-50.8
				c-9.5-2.9-20.9,2.5-29.8,5.2c-12.9,3.8-25.8,7.7-38.7,11.5c-13,3.9-6.6,24.4,6.3,20.1c9.6-3.2,19.2-6.3,28.7-9.5
				c5.4-1.8,24.4-11.3,29.7-7.5c-1.6-1.9-3.1-3.7-4.7-5.6c3.2,7.1-3.8,23.1-5.5,30.3c-1.2,4.9-2.8,9.8-3.5,14.8
				c-1.2,8-0.8,4-5.7-0.5c-13.2-12-25.4-23.9-40-34.3C877.5,1245.1,873.2,1247.8,875.4,1250.9L875.4,1250.9z"/>
		</g>
	</g>
</g>
<g class="st31">
	<g class="st24">
		<path class="st25" d="M738.4,466.9c11.6,16.3,24,39.2,41.2,50.3c20.9,13.5,26.3-13.2,30.2-27.9c3.7-13.8,17.9-44.2-3.5-50.8
			c-9.5-2.9-20.9,2.5-29.8,5.2c-12.9,3.8-25.8,7.7-38.7,11.5c-13,3.9-6.6,24.4,6.3,20.1c9.6-3.2,19.2-6.3,28.7-9.5
			c5.4-1.8,24.4-11.3,29.7-7.5c-1.6-1.9-3.1-3.7-4.7-5.6c3.2,7.1-3.8,23.1-5.5,30.3c-1.2,4.9-2.8,9.8-3.5,14.8c-1.2,8-0.8,4-5.7-0.5
			c-13.2-12-25.4-23.9-40-34.3C740.5,461.1,736.2,463.8,738.4,466.9L738.4,466.9z"/>
	</g>
	<g>
		<g>
			<path class="st32" d="M736.4,464.9c11.6,16.3,24,39.2,41.2,50.3c20.9,13.5,26.3-13.2,30.2-27.9c3.7-13.8,17.9-44.2-3.5-50.8
				c-9.5-2.9-20.9,2.5-29.8,5.2c-12.9,3.8-25.8,7.7-38.7,11.5c-13,3.9-6.6,24.4,6.3,20.1c9.6-3.2,19.2-6.3,28.7-9.5
				c5.4-1.8,24.4-11.3,29.7-7.5c-1.6-1.9-3.1-3.7-4.7-5.6c3.2,7.1-3.8,23.1-5.5,30.3c-1.2,4.9-2.8,9.8-3.5,14.8
				c-1.2,8-0.8,4-5.7-0.5c-13.2-12-25.4-23.9-40-34.3C738.5,459.1,734.2,461.8,736.4,464.9L736.4,464.9z"/>
		</g>
	</g>
</g>
</svg>
