<?xml version="1.0" encoding="utf-8"?>
<!-- Generator: Adobe Illustrator 22.0.0, SVG Export Plug-In . SVG Version: 6.00 Build 0)  -->
<svg version="1.1" id="Layer_1" xmlns="http://www.w3.org/2000/svg" xmlns:xlink="http://www.w3.org/1999/xlink" x="0px" y="0px"
	 viewBox="0 0 1105 533" style="enable-background:new 0 0 1105 533;" xml:space="preserve">
<style type="text/css">
	.st0{fill:url(#SVGID_1_);}
	.st1{fill:url(#SVGID_2_);}
	.st2{fill:url(#SVGID_3_);}
	.st3{fill:url(#SVGID_4_);}
	.st4{fill:url(#SVGID_5_);}
	.st5{fill:url(#SVGID_6_);}
	.st6{fill:url(#SVGID_7_);}
	.st7{fill:url(#SVGID_8_);}
	.st8{fill:url(#SVGID_9_);}
	.st9{fill:url(#SVGID_10_);}
	.st10{fill:url(#SVGID_11_);}
	.st11{fill:url(#SVGID_12_);}
	.st12{fill:url(#SVGID_13_);}
	.st13{fill:url(#SVGID_14_);}
	.st14{fill:url(#SVGID_15_);}
	.st15{fill:url(#SVGID_16_);}
	.st16{fill:url(#SVGID_17_);}
	.st17{fill:url(#SVGID_18_);}
	.st18{fill:url(#SVGID_19_);}
	.st19{fill:url(#SVGID_20_);}
	.st20{fill:url(#SVGID_21_);}
	.st21{fill:url(#SVGID_22_);}
	.st22{fill:url(#SVGID_23_);}
	.st23{fill:url(#SVGID_24_);}
	.st24{fill:url(#SVGID_25_);}
	.st25{fill:url(#SVGID_26_);}
	.st26{fill:url(#SVGID_27_);}
	.st27{opacity:0.6;}
	.st28{fill:#D3F2EE;}
	.st29{fill:url(#SVGID_28_);stroke:#FFFFFF;stroke-width:2;stroke-miterlimit:10;}
	.st30{fill:#FBFBFB;}
	.st31{fill:url(#SVGID_29_);}
	.st32{clip-path:url(#SVGID_31_);}
	.st33{fill:#492D60;}
	.st34{fill:url(#SVGID_32_);}
	.st35{fill:url(#SVGID_33_);}
	.st36{fill:url(#SVGID_34_);}
	.st37{fill:url(#SVGID_35_);}
	.st38{fill:url(#SVGID_36_);}
	.st39{fill:url(#SVGID_37_);}
	.st40{fill:url(#SVGID_38_);}
	.st41{fill:url(#SVGID_39_);}
	.st42{fill:url(#SVGID_40_);}
	.st43{fill:url(#SVGID_41_);}
	.st44{fill:url(#SVGID_42_);}
	.st45{fill:url(#SVGID_43_);}
	.st46{fill:url(#SVGID_44_);}
	.st47{fill:url(#SVGID_45_);}
	.st48{fill:#5D3CE6;}
	.st49{fill:url(#SVGID_46_);}
	.st50{fill:url(#SVGID_47_);}
	.st51{fill:#FEB3C4;}
	.st52{fill:#FF7692;}
	.st53{fill:#FEB3C4;stroke:#FF7692;stroke-width:2;stroke-miterlimit:10;}
	.st54{fill:#FFFFFF;stroke:#000000;stroke-width:0.3506;stroke-miterlimit:10;}
	.st55{fill:none;stroke:#FF7692;stroke-width:2.6391;stroke-linecap:round;stroke-miterlimit:10;}
	.st56{fill:#52398A;}
	.st57{fill:url(#SVGID_48_);}
	.st58{fill:#444444;}
	.st59{font-family:'MyriadPro-Regular';}
	.st60{font-size:40.1178px;}
</style>
<g>
	<g>
		<g>
			<linearGradient id="SVGID_1_" gradientUnits="userSpaceOnUse" x1="323.1763" y1="421.7987" x2="225.1759" y2="360.7984">
				<stop  offset="6.610580e-03" style="stop-color:#5F4FE4"/>
				<stop  offset="0.9996" style="stop-color:#DC9AEF"/>
			</linearGradient>
			<path class="st0" d="M326.2,429.3c0-3-2.4-5.4-5.4-5.4c-0.3,0-0.6,0-0.8,0.1l-0.2-0.2l0.2-0.2c0.3,0,0.6,0.1,0.8,0.1
				c3,0,5.4-2.4,5.4-5.4c0-0.3,0-0.6-0.1-0.8l0.2-0.2l0.2,0.2c0,0.3-0.1,0.6-0.1,0.8c0,3,2.4,5.4,5.4,5.4c0.3,0,0.6,0,0.8-0.1
				l0.2,0.2l-0.2,0.2c-0.3,0-0.6-0.1-0.8-0.1c-3,0-5.4,2.4-5.4,5.4c0,0.3,0,0.6,0.1,0.8l-0.2,0.2l-0.2-0.2
				C326.2,429.9,326.2,429.6,326.2,429.3z"/>
			<linearGradient id="SVGID_2_" gradientUnits="userSpaceOnUse" x1="339.9038" y1="394.9235" x2="241.9029" y2="333.9229">
				<stop  offset="6.610580e-03" style="stop-color:#5F4FE4"/>
				<stop  offset="0.9996" style="stop-color:#DC9AEF"/>
			</linearGradient>
			<path class="st1" d="M383.7,424c0,1.6,1.3,2.9,2.9,2.9c1.6,0,2.9-1.3,2.9-2.9c0-1.6-1.3-2.9-2.9-2.9
				C385,421.1,383.7,422.4,383.7,424z"/>
			<linearGradient id="SVGID_3_" gradientUnits="userSpaceOnUse" x1="354.918" y1="370.8037" x2="256.9172" y2="309.8031">
				<stop  offset="6.610580e-03" style="stop-color:#5F4FE4"/>
				<stop  offset="0.9996" style="stop-color:#DC9AEF"/>
			</linearGradient>
			<path class="st2" d="M358.1,374.6c0,1.6,1.3,2.9,2.9,2.9c1.6,0,2.9-1.3,2.9-2.9c0-1.6-1.3-2.9-2.9-2.9
				C359.4,371.7,358.1,373,358.1,374.6z"/>
			<linearGradient id="SVGID_4_" gradientUnits="userSpaceOnUse" x1="301.9093" y1="455.9654" x2="203.9095" y2="394.9655">
				<stop  offset="6.610580e-03" style="stop-color:#5F4FE4"/>
				<stop  offset="0.9996" style="stop-color:#DC9AEF"/>
			</linearGradient>
			<path class="st3" d="M312.4,464.3c0,1.6,1.3,2.9,2.9,2.9c1.6,0,2.9-1.3,2.9-2.9c0-1.6-1.3-2.9-2.9-2.9
				C313.7,461.4,312.4,462.7,312.4,464.3z"/>
			<linearGradient id="SVGID_5_" gradientUnits="userSpaceOnUse" x1="377.2834" y1="334.872" x2="279.2847" y2="273.8727">
				<stop  offset="6.610580e-03" style="stop-color:#5F4FE4"/>
				<stop  offset="0.9996" style="stop-color:#DC9AEF"/>
			</linearGradient>
			<path class="st4" d="M350.8,320c0,1.4,1.1,2.6,2.6,2.6c1.4,0,2.6-1.1,2.6-2.6c0-1.4-1.1-2.6-2.6-2.6
				C352,317.4,350.8,318.6,350.8,320z"/>
		</g>
		<g>
			<linearGradient id="SVGID_6_" gradientUnits="userSpaceOnUse" x1="506.428" y1="127.3943" x2="408.4279" y2="66.3942">
				<stop  offset="6.610580e-03" style="stop-color:#5F4FE4"/>
				<stop  offset="0.9996" style="stop-color:#DC9AEF"/>
			</linearGradient>
			<path class="st5" d="M487.8,107.4c0,4.4,3.6,8,8,8c0.4,0,0.8,0,1.3-0.1l0.3,0.3l-0.3,0.3c-0.4-0.1-0.8-0.1-1.3-0.1
				c-4.4,0-8,3.6-8,8c0,0.4,0,0.8,0.1,1.3l-0.3,0.3l-0.3-0.3c0.1-0.4,0.1-0.8,0.1-1.2c0-4.4-3.6-8-8-8c-0.4,0-0.8,0-1.2,0.1
				l-0.3-0.3l0.3-0.3c0.4,0.1,0.8,0.1,1.2,0.1c4.4,0,8-3.6,8-8c0-0.4,0-0.8-0.1-1.3l0.3-0.3l0.3,0.3
				C487.8,106.6,487.8,107,487.8,107.4z"/>
			<linearGradient id="SVGID_7_" gradientUnits="userSpaceOnUse" x1="608.2278" y1="-36.1524" x2="510.2275" y2="-97.1527">
				<stop  offset="6.610580e-03" style="stop-color:#5F4FE4"/>
				<stop  offset="0.9996" style="stop-color:#DC9AEF"/>
			</linearGradient>
			<path class="st6" d="M751.3,47.2c0,3,2.4,5.4,5.4,5.4c0.3,0,0.6,0,0.8-0.1l0.2,0.2l-0.2,0.2c-0.3,0-0.6-0.1-0.8-0.1
				c-3,0-5.4,2.4-5.4,5.4c0,0.3,0,0.6,0.1,0.8l-0.2,0.2l-0.2-0.2c0-0.3,0.1-0.6,0.1-0.8c0-3-2.4-5.4-5.4-5.4c-0.3,0-0.6,0-0.8,0.1
				l-0.2-0.2l0.2-0.2c0.3,0,0.6,0.1,0.8,0.1c3,0,5.4-2.4,5.4-5.4c0-0.3,0-0.6-0.1-0.8l0.2-0.2l0.2,0.2
				C751.3,46.7,751.3,47,751.3,47.2z"/>
			<linearGradient id="SVGID_8_" gradientUnits="userSpaceOnUse" x1="550.32" y1="56.8795" x2="452.3201" y2="-4.1205">
				<stop  offset="6.610580e-03" style="stop-color:#5F4FE4"/>
				<stop  offset="0.9996" style="stop-color:#DC9AEF"/>
			</linearGradient>
			<path class="st7" d="M674.5,124.8c0,5,4,9,9,9c0.5,0,0.9,0,1.4-0.1l0.4,0.4l-0.4,0.4c-0.5-0.1-0.9-0.1-1.4-0.1c-5,0-9,4-9,9
				c0,0.5,0,0.9,0.1,1.4l-0.4,0.4l-0.4-0.4c0.1-0.5,0.1-0.9,0.1-1.4c0-5-4-9-9-9c-0.5,0-0.9,0-1.4,0.1l-0.4-0.4l0.4-0.4
				c0.5,0.1,0.9,0.1,1.4,0.1c5,0,9-4,9-9c0-0.5,0-0.9-0.1-1.4l0.4-0.4l0.4,0.4C674.6,123.9,674.5,124.3,674.5,124.8z"/>
			<linearGradient id="SVGID_9_" gradientUnits="userSpaceOnUse" x1="501.0737" y1="135.9967" x2="403.0741" y2="74.9968">
				<stop  offset="6.610580e-03" style="stop-color:#5F4FE4"/>
				<stop  offset="0.9996" style="stop-color:#DC9AEF"/>
			</linearGradient>
			<path class="st8" d="M521.6,145.9c0-2.5-2.1-4.6-4.6-4.6c-2.5,0-4.6,2.1-4.6,4.6c0,2.5,2.1,4.6,4.6,4.6
				C519.6,150.5,521.6,148.5,521.6,145.9z"/>
			<linearGradient id="SVGID_10_" gradientUnits="userSpaceOnUse" x1="505.4383" y1="128.9839" x2="407.4384" y2="67.9838">
				<stop  offset="6.610580e-03" style="stop-color:#5F4FE4"/>
				<stop  offset="0.9996" style="stop-color:#DC9AEF"/>
			</linearGradient>
			<path class="st9" d="M562,162.4c0-1.6-1.3-2.9-2.9-2.9c-1.6,0-2.9,1.3-2.9,2.9c0,1.6,1.3,2.9,2.9,2.9
				C560.7,165.3,562,164,562,162.4z"/>
			<linearGradient id="SVGID_11_" gradientUnits="userSpaceOnUse" x1="591.5002" y1="-9.2782" x2="493.5005" y2="-70.2782">
				<stop  offset="6.610580e-03" style="stop-color:#5F4FE4"/>
				<stop  offset="0.9996" style="stop-color:#DC9AEF"/>
			</linearGradient>
			<path class="st10" d="M693.8,52.6c0-1.6-1.3-2.9-2.9-2.9c-1.6,0-2.9,1.3-2.9,2.9c0,1.6,1.3,2.9,2.9,2.9
				C692.5,55.5,693.8,54.2,693.8,52.6z"/>
			<linearGradient id="SVGID_12_" gradientUnits="userSpaceOnUse" x1="576.4863" y1="14.8414" x2="478.4862" y2="-46.1588">
				<stop  offset="6.610580e-03" style="stop-color:#5F4FE4"/>
				<stop  offset="0.9996" style="stop-color:#DC9AEF"/>
			</linearGradient>
			<path class="st11" d="M719.4,102c0-1.6-1.3-2.9-2.9-2.9c-1.6,0-2.9,1.3-2.9,2.9c0,1.6,1.3,2.9,2.9,2.9
				C718.1,104.9,719.4,103.6,719.4,102z"/>
			<linearGradient id="SVGID_13_" gradientUnits="userSpaceOnUse" x1="534.0711" y1="82.9846" x2="436.0722" y2="21.9852">
				<stop  offset="6.610580e-03" style="stop-color:#5F4FE4"/>
				<stop  offset="0.9996" style="stop-color:#DC9AEF"/>
			</linearGradient>
			<path class="st12" d="M578.5,109c0-1.4-1.1-2.6-2.6-2.6c-1.4,0-2.6,1.1-2.6,2.6c0,1.4,1.1,2.6,2.6,2.6
				C577.3,111.6,578.5,110.4,578.5,109z"/>
		</g>
		<g>
			<linearGradient id="SVGID_14_" gradientUnits="userSpaceOnUse" x1="474.1162" y1="179.3036" x2="376.1163" y2="118.3036">
				<stop  offset="6.610580e-03" style="stop-color:#5F4FE4"/>
				<stop  offset="0.9996" style="stop-color:#DC9AEF"/>
			</linearGradient>
			<path class="st13" d="M350.3,95.5c0,3.6,2.9,6.5,6.5,6.5c0.3,0,0.7,0,1-0.1l0.3,0.3l-0.3,0.3c-0.3-0.1-0.7-0.1-1-0.1
				c-3.6,0-6.5,2.9-6.5,6.5c0,0.3,0,0.7,0.1,1l-0.3,0.3l-0.3-0.3c0.1-0.3,0.1-0.7,0.1-1c0-3.6-2.9-6.5-6.5-6.5c-0.3,0-0.7,0-1,0.1
				l-0.3-0.3l0.3-0.3c0.3,0.1,0.7,0.1,1,0.1c3.6,0,6.5-2.9,6.5-6.5c0-0.3,0-0.7-0.1-1l0.3-0.3l0.3,0.3
				C350.3,94.8,350.3,95.1,350.3,95.5z"/>
			<linearGradient id="SVGID_15_" gradientUnits="userSpaceOnUse" x1="522.0679" y1="102.2681" x2="424.0678" y2="41.268">
				<stop  offset="6.610580e-03" style="stop-color:#5F4FE4"/>
				<stop  offset="0.9996" style="stop-color:#DC9AEF"/>
			</linearGradient>
			<path class="st14" d="M444,46.1c0,4,3.2,7.2,7.2,7.2c0.4,0,0.8,0,1.1-0.1l0.3,0.3l-0.3,0.3c-0.4-0.1-0.7-0.1-1.1-0.1
				c-4,0-7.2,3.2-7.2,7.2c0,0.4,0,0.8,0.1,1.1l-0.3,0.3l-0.3-0.3c0.1-0.4,0.1-0.7,0.1-1.1c0-4-3.2-7.2-7.2-7.2c-0.4,0-0.8,0-1.1,0.1
				l-0.3-0.3l0.3-0.3c0.4,0.1,0.7,0.1,1.1,0.1c4,0,7.2-3.2,7.2-7.2c0-0.4,0-0.8-0.1-1.1l0.3-0.3l0.3,0.3C444,45.3,444,45.7,444,46.1
				z"/>
			<linearGradient id="SVGID_16_" gradientUnits="userSpaceOnUse" x1="473.3195" y1="180.5844" x2="375.3197" y2="119.5844">
				<stop  offset="6.610580e-03" style="stop-color:#5F4FE4"/>
				<stop  offset="0.9996" style="stop-color:#DC9AEF"/>
			</linearGradient>
			<path class="st15" d="M410.1,139.8c0-1.3-1-2.3-2.3-2.3c-1.3,0-2.3,1-2.3,2.3c0,1.3,1,2.3,2.3,2.3
				C409,142.1,410.1,141,410.1,139.8z"/>
			<linearGradient id="SVGID_17_" gradientUnits="userSpaceOnUse" x1="499.6335" y1="138.3095" x2="401.6342" y2="77.3098">
				<stop  offset="6.610580e-03" style="stop-color:#5F4FE4"/>
				<stop  offset="0.9996" style="stop-color:#DC9AEF"/>
			</linearGradient>
			<path class="st16" d="M456.2,109.6c0-1.5-1.2-2.8-2.8-2.8c-1.5,0-2.8,1.2-2.8,2.8c0,1.5,1.2,2.8,2.8,2.8
				C455,112.3,456.2,111.1,456.2,109.6z"/>
			<linearGradient id="SVGID_18_" gradientUnits="userSpaceOnUse" x1="496.3949" y1="143.5102" x2="398.3965" y2="82.5111">
				<stop  offset="6.610580e-03" style="stop-color:#5F4FE4"/>
				<stop  offset="0.9996" style="stop-color:#DC9AEF"/>
			</linearGradient>
			<path class="st17" d="M423.3,96.7c0-1.1-0.9-2.1-2.1-2.1c-1.1,0-2.1,0.9-2.1,2.1c0,1.1,0.9,2.1,2.1,2.1
				C422.4,98.8,423.3,97.9,423.3,96.7z"/>
			<linearGradient id="SVGID_19_" gradientUnits="userSpaceOnUse" x1="483.3416" y1="164.4845" x2="385.3414" y2="103.4842">
				<stop  offset="6.610580e-03" style="stop-color:#5F4FE4"/>
				<stop  offset="0.9996" style="stop-color:#DC9AEF"/>
			</linearGradient>
			<path class="st18" d="M328.2,66c0-1.7-1.4-3.1-3.1-3.1c-1.7,0-3.1,1.4-3.1,3.1c0,1.7,1.4,3.1,3.1,3.1
				C326.8,69.1,328.2,67.7,328.2,66z"/>
		</g>
		<g>
			<linearGradient id="SVGID_20_" gradientUnits="userSpaceOnUse" x1="476.5141" y1="175.4525" x2="378.5146" y2="114.4527">
				<stop  offset="6.610580e-03" style="stop-color:#5F4FE4"/>
				<stop  offset="0.9996" style="stop-color:#DC9AEF"/>
			</linearGradient>
			<path class="st19" d="M434.4,141.1c0,4.4-3.6,8-8,8c-0.4,0-0.8,0-1.3-0.1l-0.3,0.3l0.3,0.3c0.4-0.1,0.8-0.1,1.3-0.1
				c4.4,0,8,3.6,8,8c0,0.4,0,0.8-0.1,1.2l0.3,0.3l0.3-0.3c-0.1-0.4-0.1-0.8-0.1-1.2c0-4.4,3.6-8,8-8c0.4,0,0.8,0,1.2,0.1l0.3-0.3
				l-0.3-0.3c-0.4,0.1-0.8,0.1-1.2,0.1c-4.4,0-8-3.6-8-8c0-0.4,0-0.8,0.1-1.3l-0.3-0.3l-0.3,0.3
				C434.3,140.3,434.4,140.7,434.4,141.1z"/>
			<linearGradient id="SVGID_21_" gradientUnits="userSpaceOnUse" x1="447.4069" y1="222.2153" x2="349.4069" y2="161.2152">
				<stop  offset="6.610580e-03" style="stop-color:#5F4FE4"/>
				<stop  offset="0.9996" style="stop-color:#DC9AEF"/>
			</linearGradient>
			<path class="st20" d="M425.6,210.7c0-1.9,1.5-3.4,3.4-3.4c1.9,0,3.4,1.5,3.4,3.4c0,1.9-1.5,3.4-3.4,3.4
				C427.1,214.1,425.6,212.6,425.6,210.7z"/>
			<linearGradient id="SVGID_22_" gradientUnits="userSpaceOnUse" x1="454.7207" y1="210.465" x2="356.721" y2="149.4651">
				<stop  offset="6.610580e-03" style="stop-color:#5F4FE4"/>
				<stop  offset="0.9996" style="stop-color:#DC9AEF"/>
			</linearGradient>
			<path class="st21" d="M400.6,179.6c0-2.5,2.1-4.6,4.6-4.6c2.5,0,4.6,2.1,4.6,4.6c0,2.6-2.1,4.6-4.6,4.6
				C402.6,184.2,400.6,182.2,400.6,179.6z"/>
			<linearGradient id="SVGID_23_" gradientUnits="userSpaceOnUse" x1="435.5765" y1="241.2204" x2="337.5768" y2="180.2204">
				<stop  offset="6.610580e-03" style="stop-color:#5F4FE4"/>
				<stop  offset="0.9996" style="stop-color:#DC9AEF"/>
			</linearGradient>
			<path class="st22" d="M360.2,196.1c0-1.6,1.3-2.9,2.9-2.9c1.6,0,2.9,1.3,2.9,2.9c0,1.6-1.3,2.9-2.9,2.9
				C361.5,199,360.2,197.7,360.2,196.1z"/>
			<linearGradient id="SVGID_24_" gradientUnits="userSpaceOnUse" x1="454.8394" y1="210.2751" x2="356.8389" y2="149.2746">
				<stop  offset="6.610580e-03" style="stop-color:#5F4FE4"/>
				<stop  offset="0.9996" style="stop-color:#DC9AEF"/>
			</linearGradient>
			<path class="st23" d="M343.7,142.7c0-1.4,1.1-2.6,2.6-2.6c1.4,0,2.6,1.1,2.6,2.6c0,1.4-1.1,2.6-2.6,2.6
				C344.9,145.3,343.7,144.1,343.7,142.7z"/>
		</g>
	</g>
	<g>
		<g>
			<g>
				<linearGradient id="SVGID_25_" gradientUnits="userSpaceOnUse" x1="464.8286" y1="131.8536" x2="489.8285" y2="54.8538">
					<stop  offset="6.610580e-03" style="stop-color:#5F4FE4"/>
					<stop  offset="0.9996" style="stop-color:#60D1EF"/>
				</linearGradient>
				<path class="st24" d="M459.9,144.8h-1.1c-2,0-3.9,1.8-3.8,3.8c0.1,2.1,1.7,3.8,3.8,3.8h1.1c2,0,3.9-1.8,3.8-3.8
					C463.6,146.6,462.1,144.8,459.9,144.8z"/>
			</g>
		</g>
		<g>
			<g>
				<linearGradient id="SVGID_26_" gradientUnits="userSpaceOnUse" x1="482.3868" y1="137.5541" x2="507.3868" y2="60.5541">
					<stop  offset="6.610580e-03" style="stop-color:#5F4FE4"/>
					<stop  offset="0.9996" style="stop-color:#60D1EF"/>
				</linearGradient>
				<path class="st25" d="M476.3,149.2c-9.1,0-9.2,14.2,0,14.2C485.4,163.4,485.4,149.2,476.3,149.2z"/>
			</g>
		</g>
	</g>
	<g>
		<linearGradient id="SVGID_27_" gradientUnits="userSpaceOnUse" x1="522.53" y1="63.7" x2="432.53" y2="54.7">
			<stop  offset="6.610580e-03" style="stop-color:#5F4FE4"/>
			<stop  offset="0.9996" style="stop-color:#60D1EF"/>
		</linearGradient>
		<path class="st26" d="M517.9,57.2c-1.5-1.4-3.3-2.2-5.4-2.2h-1.1c-2,0-4,0.9-5.4,2.2c-0.7,0.7-1.3,1.5-1.6,2.5
			c-0.5,0.9-0.7,1.9-0.7,2.9c0.1,2,0.7,4,2.2,5.4c1.5,1.4,3.3,2.2,5.4,2.2h1.1c2,0,4-0.9,5.4-2.2c0.7-0.7,1.3-1.5,1.6-2.5
			c0.5-0.9,0.7-1.9,0.7-2.9C520.1,60.7,519.4,58.6,517.9,57.2z"/>
	</g>
</g>
<g>
	<g>
		<g class="st27">
			<path class="st28" d="M487.6,69.4H398c-8,0-14.5,6.5-14.5,14.5v26.5c0,8,6.5,14.5,14.5,14.5h77.5c4.3,0,8.5,2,11.2,5.3l6.8,8.4
				c2.8,3.5,8.5,1.5,8.5-3v-10.7V93.5v-9.7C502.1,75.9,495.6,69.4,487.6,69.4z"/>
		</g>
		<g>
			<linearGradient id="SVGID_28_" gradientUnits="userSpaceOnUse" x1="383.5435" y1="104.825" x2="502.0783" y2="104.825">
				<stop  offset="6.610580e-03" style="stop-color:#5F4FE4"/>
				<stop  offset="0.9996" style="stop-color:#DC9AEF"/>
			</linearGradient>
			<path class="st29" d="M487.6,69.4H398c-8,0-14.5,6.5-14.5,14.5v26.5c0,8,6.5,14.5,14.5,14.5h84.4l11.2,13.7
				c2.8,3.5,8.5,1.5,8.5-3v-10.7V93.5v-9.7C502.1,75.9,495.6,69.4,487.6,69.4z"/>
		</g>
		<g>
			<g>
				<g>
					<path class="st30" d="M399.3,93h82.9c1.8,0,3.3-1.5,3.3-3.3c0-1.8-1.5-3.3-3.3-3.3h-82.9c-1.8,0-3.3,1.5-3.3,3.3
						C396,91.5,397.5,93,399.3,93z"/>
				</g>
				<g>
					<path class="st30" d="M469.8,98.8h-70.5c-1.8,0-3.3,1.5-3.3,3.3c0,1.8,1.5,3.3,3.3,3.3h70.5c1.8,0,3.3-1.5,3.3-3.3
						C473,100.3,471.5,98.8,469.8,98.8z"/>
				</g>
				<g>
					<path class="st30" d="M481.6,98.8h-3.9c-1.8,0-3.3,1.5-3.3,3.3c0,1.8,1.5,3.3,3.3,3.3h3.9c1.8,0,3.3-1.5,3.3-3.3
						C484.9,100.3,483.4,98.8,481.6,98.8z"/>
				</g>
			</g>
		</g>
	</g>
</g>
<g>
	<linearGradient id="SVGID_29_" gradientUnits="userSpaceOnUse" x1="394.9364" y1="327.5777" x2="812.2849" y2="327.5777">
		<stop  offset="6.610580e-03" style="stop-color:#5F4FE4"/>
		<stop  offset="0.9996" style="stop-color:#DC9AEF"/>
	</linearGradient>
	<path class="st31" d="M806.6,248.7h-4.5v-45.2h-16.6h-25.9h-25.9h-25.9h-25.9h-10.8l-4.3-22.2c-2.4-12.8-27.2-20.2-55.5-22.2v-1
		v-11.6c0.2-0.1,0.4-0.1,0.6-0.2c0.6-0.2,1.2-0.4,1.7-0.7c1.1-0.5,2.2-1,3.2-1.7c2.1-1.2,4-2.8,5.7-4.6c1.7-1.7,3.1-3.8,4.2-5.9
		c1.1-2.2,1.9-4.5,2.5-6.9c0.1-0.6,0.2-1.2,0.3-1.8c0.1-0.6,0.2-1.2,0.2-1.8c0,0,0-0.1,0-0.1c-24.6-2.3-47.2-2.1-67.8,0.3
		c0,0.6,0.1,1.1,0.2,1.7c0.1,0.6,0.2,1.2,0.3,1.8c0.5,2.4,1.4,4.7,2.5,6.9c1.2,2.1,2.5,4.2,4.2,5.9c1.7,1.8,3.6,3.4,5.7,4.6
		c1,0.7,2.1,1.2,3.2,1.7c0.4,0.2,0.8,0.3,1.2,0.5v13c-28.3,2-53.1,9.4-55.5,22.2l-4.3,22.2h-18.8h-25.9h-25.9H423h-4.3
		c-21,33-28,71.7-21.2,108.3c4.6,24.6,5.3,50.8,2.3,77.1h3.1h25.9h25.9h25.9h25.9h23.9v82.9c0,4.8,2.1,9.1,5.4,12.1V534h44.1v-22.9
		c0-13-5.6-24.7-14.6-32.8l16.4-89.5h2.5H610h3.7l16.4,89.5c-9,8.1-14.6,19.8-14.6,32.8V534h44.1v-50.1c3.3-3,5.4-7.3,5.4-12.1
		v-82.9h22.6h25.9h25.9h25.9h25.9h10.9v-88.1v-3.8h1.6c2.6,0,4.6-2.1,4.6-4.6c0-1.9-1.1-3.5-2.7-4.2c1.6-0.7,2.7-2.3,2.7-4.2
		c0-1.9-1.2-3.6-2.9-4.3c1.7-0.7,2.9-2.3,2.9-4.3c0-1.9-1.1-3.4-2.7-4.2c1.6-0.7,2.7-2.3,2.7-4.2c0-2.6-2.1-4.6-4.6-4.6h-1.6V260
		h4.5c3.1,0,5.7-2.5,5.7-5.7v0C812.3,251.2,809.7,248.7,806.6,248.7z"/>
	<g>
		<defs>
			<rect id="SVGID_30_" x="279" width="534" height="534"/>
		</defs>
		<clipPath id="SVGID_31_">
			<use xlink:href="#SVGID_30_"  style="overflow:visible;"/>
		</clipPath>
		<g class="st32">
			<g>
				<g>
					<g>
						<path class="st33" d="M609.1,585.8L609.1,585.8c12.2,0,22.1-9.9,22.1-22.1V467l0,0c-24.4,0-44.1,19.8-44.1,44.1v52.6
							C587,575.9,596.9,585.8,609.1,585.8z"/>
						<path class="st33" d="M603.4,488.2h16.7c9.1,0,16.4-7.3,16.4-16.4V368.1h-55.2L603.4,488.2z"/>
						
							<ellipse transform="matrix(0.2184 -0.9759 0.9759 0.2184 -91.3139 1044.854)" class="st33" cx="606.6" cy="579.4" rx="9.1" ry="22"/>
						<ellipse class="st33" cx="607.2" cy="583.5" rx="21.1" ry="8.7"/>
					</g>
					<g>
						<linearGradient id="SVGID_32_" gradientUnits="userSpaceOnUse" x1="610.2601" y1="433.9274" x2="608.124" y2="620.8275">
							<stop  offset="6.610580e-03" style="stop-color:#5F4FE4"/>
							<stop  offset="0.9996" style="stop-color:#DC9AEF"/>
						</linearGradient>
						<path class="st34" d="M609.1,585.8L609.1,585.8c12.2,0,22.1-9.9,22.1-22.1V467l0,0c-24.4,0-44.1,19.8-44.1,44.1v52.6
							C587,575.9,596.9,585.8,609.1,585.8z"/>
						<linearGradient id="SVGID_33_" gradientUnits="userSpaceOnUse" x1="608.7858" y1="433.9106" x2="606.6497" y2="620.8102">
							<stop  offset="6.610580e-03" style="stop-color:#5F4FE4"/>
							<stop  offset="0.9996" style="stop-color:#DC9AEF"/>
						</linearGradient>
						<path class="st35" d="M603.4,488.2h16.7c9.1,0,16.4-7.3,16.4-16.4V368.1h-55.2L603.4,488.2z"/>
						<linearGradient id="SVGID_34_" gradientUnits="userSpaceOnUse" x1="608.2833" y1="433.9048" x2="606.1472" y2="620.8047">
							<stop  offset="6.610580e-03" style="stop-color:#5F4FE4"/>
							<stop  offset="0.9996" style="stop-color:#DC9AEF"/>
						</linearGradient>
						<path class="st36" d="M585.2,574.6c-1.1,4.9,7.6,11,19.5,13.7c11.8,2.6,22.3,0.8,23.4-4.1c1.1-4.9-7.6-11-19.5-13.7
							C596.8,567.9,586.3,569.7,585.2,574.6z"/>
						<linearGradient id="SVGID_35_" gradientUnits="userSpaceOnUse" x1="608.9203" y1="433.9118" x2="606.7842" y2="620.8121">
							<stop  offset="6.610580e-03" style="stop-color:#5F4FE4"/>
							<stop  offset="0.9996" style="stop-color:#DC9AEF"/>
						</linearGradient>
						<ellipse class="st37" cx="607.2" cy="583.5" rx="21.1" ry="8.7"/>
					</g>
					<linearGradient id="SVGID_36_" gradientUnits="userSpaceOnUse" x1="613.8268" y1="-34.7206" x2="607.7601" y2="496.0988">
						<stop  offset="6.610580e-03" style="stop-color:#5F4FE4"/>
						<stop  offset="0.9996" style="stop-color:#DC9AEF"/>
					</linearGradient>
					<path class="st38" d="M636.5,368.1h-55.2l9,48.9c15.7,0,31.2-0.1,46.2-0.2V368.1z"/>
					<linearGradient id="SVGID_37_" gradientUnits="userSpaceOnUse" x1="613.8268" y1="-34.7206" x2="607.7601" y2="496.0988">
						<stop  offset="6.610580e-03" style="stop-color:#5F4FE4"/>
						<stop  offset="0.9996" style="stop-color:#DC9AEF"/>
					</linearGradient>
					<path class="st39" d="M636.5,368.1h-55.2l9,48.9c15.7,0,31.2-0.1,46.2-0.2V368.1z"/>
					<linearGradient id="SVGID_38_" gradientUnits="userSpaceOnUse" x1="600.9609" y1="448.7228" x2="599.0345" y2="617.2803">
						<stop  offset="6.610580e-03" style="stop-color:#5F4FE4"/>
						<stop  offset="0.9996" style="stop-color:#DC9AEF"/>
					</linearGradient>
					<path class="st40" d="M594.1,563.7v-52.6c0-9.8,3.2-18.9,8.7-26.3l-1.2-6.5c-9,8.1-14.6,19.8-14.6,32.8v52.6
						c0,12.2,9.9,22.1,22.1,22.1c1.2,0,2.4-0.1,3.6-0.3C602.1,583.7,594.1,574.7,594.1,563.7z"/>
				</g>
				<g>
					<g>
						<path class="st33" d="M529.2,585.8L529.2,585.8c-12.2,0-22.1-9.9-22.1-22.1V467l0,0c24.4,0,44.1,19.8,44.1,44.1v52.6
							C551.3,575.9,541.4,585.8,529.2,585.8z"/>
						<path class="st33" d="M534.9,488.2h-16.7c-9.1,0-16.4-7.3-16.4-16.4V368.1H557L534.9,488.2z"/>
						<path class="st33" d="M553.1,574.6c1.1,4.9-7.6,11-19.5,13.7c-11.8,2.6-22.3,0.8-23.4-4.1c-1.1-4.9,7.6-11,19.5-13.7
							C541.6,567.9,552,569.7,553.1,574.6z"/>
						<ellipse class="st33" cx="531.1" cy="583.5" rx="21.1" ry="8.7"/>
					</g>
					<g>
						<linearGradient id="SVGID_39_" gradientUnits="userSpaceOnUse" x1="530.1859" y1="433.0122" x2="528.0499" y2="619.9128">
							<stop  offset="6.610580e-03" style="stop-color:#5F4FE4"/>
							<stop  offset="0.9996" style="stop-color:#DC9AEF"/>
						</linearGradient>
						<path class="st41" d="M529.2,585.8L529.2,585.8c-12.2,0-22.1-9.9-22.1-22.1V467l0,0c24.4,0,44.1,19.8,44.1,44.1v52.6
							C551.3,575.9,541.4,585.8,529.2,585.8z"/>
						<linearGradient id="SVGID_40_" gradientUnits="userSpaceOnUse" x1="528.6356" y1="432.9946" x2="526.4996" y2="619.895">
							<stop  offset="6.610580e-03" style="stop-color:#5F4FE4"/>
							<stop  offset="0.9996" style="stop-color:#DC9AEF"/>
						</linearGradient>
						<path class="st42" d="M534.9,488.2h-16.7c-9.1,0-16.4-7.3-16.4-16.4V368.1H557L534.9,488.2z"/>
						<linearGradient id="SVGID_41_" gradientUnits="userSpaceOnUse" x1="533.3753" y1="433.0488" x2="531.2393" y2="619.9487">
							<stop  offset="6.610580e-03" style="stop-color:#5F4FE4"/>
							<stop  offset="0.9996" style="stop-color:#DC9AEF"/>
						</linearGradient>
						<path class="st43" d="M553.1,574.6c1.1,4.9-7.6,11-19.5,13.7c-11.8,2.6-22.3,0.8-23.4-4.1c-1.1-4.9,7.6-11,19.5-13.7
							C541.6,567.9,552,569.7,553.1,574.6z"/>
						<linearGradient id="SVGID_42_" gradientUnits="userSpaceOnUse" x1="532.8303" y1="433.0421" x2="530.6943" y2="619.9424">
							<stop  offset="6.610580e-03" style="stop-color:#5F4FE4"/>
							<stop  offset="0.9996" style="stop-color:#DC9AEF"/>
						</linearGradient>
						<ellipse class="st44" cx="531.1" cy="583.5" rx="21.1" ry="8.7"/>
					</g>
					<linearGradient id="SVGID_43_" gradientUnits="userSpaceOnUse" x1="533.9711" y1="-33.8424" x2="527.9177" y2="495.8146">
						<stop  offset="6.610580e-03" style="stop-color:#5F4FE4"/>
						<stop  offset="0.9996" style="stop-color:#DC9AEF"/>
					</linearGradient>
					<path class="st45" d="M501.8,368.1v48.7c15,0.1,30.5,0.2,46.2,0.2l9-48.9H501.8z"/>
					<linearGradient id="SVGID_44_" gradientUnits="userSpaceOnUse" x1="533.9711" y1="-33.8424" x2="527.9177" y2="495.8146">
						<stop  offset="6.610580e-03" style="stop-color:#5F4FE4"/>
						<stop  offset="0.9996" style="stop-color:#DC9AEF"/>
					</linearGradient>
					<path class="st46" d="M501.8,368.1v48.7c15,0.1,30.5,0.2,46.2,0.2l9-48.9H501.8z"/>
					<linearGradient id="SVGID_45_" gradientUnits="userSpaceOnUse" x1="517.5734" y1="508.1807" x2="514.5848" y2="769.6693">
						<stop  offset="6.610580e-03" style="stop-color:#5F4FE4"/>
						<stop  offset="0.9996" style="stop-color:#DC9AEF"/>
					</linearGradient>
					<path class="st47" d="M515.7,563.7V488c0.8,0.1,1.6,0.2,2.5,0.2h10c-9.1,0-16.4-7.3-16.4-16.4v-55c-3.3,0-6.7,0-10-0.1v55
						c0,4.8,2.1,9.1,5.4,12.1v79.7c0,12.2,9.9,22.1,22.1,22.1c1.5,0,2.9-0.2,4.3-0.4C523.4,583.3,515.7,574.4,515.7,563.7z"/>
				</g>
			</g>
			<g>
				<g>
					<path class="st48" d="M658,284H475.5l19.7-102.8c5.8-30.3,137.3-30.3,143.1,0L658,284z"/>
					<linearGradient id="SVGID_46_" gradientUnits="userSpaceOnUse" x1="452.1737" y1="206.4697" x2="680.0134" y2="249.1898">
						<stop  offset="6.610580e-03" style="stop-color:#5F4FE4"/>
						<stop  offset="0.9996" style="stop-color:#DC9AEF"/>
					</linearGradient>
					<path class="st49" d="M658,284H475.5l19.7-102.8c5.8-30.3,137.3-30.3,143.1,0L658,284z"/>
					<linearGradient id="SVGID_47_" gradientUnits="userSpaceOnUse" x1="475.5381" y1="221.2913" x2="562.7255" y2="221.2913">
						<stop  offset="6.610580e-03" style="stop-color:#5F4FE4"/>
						<stop  offset="0.9996" style="stop-color:#DC9AEF"/>
					</linearGradient>
					<path class="st50" d="M493,282.4l19.7-102.8c2.1-11.1,26.6-18.1,50.1-21.1c-32.9,0.6-64.7,8.1-67.5,22.7L475.5,284L493,282.4z"
						/>
				</g>
				<g>
					<g>
						<rect x="550.8" y="119.6" class="st51" width="32" height="49.1"/>
						<path class="st52" d="M550.8,144.5c4.4,8.1,13,13.6,22.9,13.6h9.2v-34.2h-32V144.5z"/>
						<ellipse class="st51" cx="566.8" cy="169.8" rx="27.1" ry="11.7"/>
					</g>
					<g>
						<g>
							<g>
								<path class="st53" d="M603,113.2h-2.5c-4.1,0-7.4-3.3-7.4-7.4v-9.1c0-4.1,3.3-7.4,7.4-7.4h2.5c4.1,0,7.4,3.3,7.4,7.4v9.1
									C610.5,109.9,607.2,113.2,603,113.2z"/>
								<path class="st53" d="M534.2,113.2h-2.5c-4.1,0-7.4-3.3-7.4-7.4v-9.1c0-4.1,3.3-7.4,7.4-7.4h2.5c4.1,0,7.4,3.3,7.4,7.4v9.1
									C541.6,109.9,538.3,113.2,534.2,113.2z"/>
								<path class="st52" d="M534,108.6L534,108.6c-2.9,0-5.3-2.4-5.3-5.3v-4c0-2.9,2.4-5.3,5.3-5.3l0,0c2.9,0,5.3,2.4,5.3,5.3v4
									C539.3,106.2,536.9,108.6,534,108.6z"/>
								<path class="st52" d="M600.5,108.6L600.5,108.6c-2.9,0-5.3-2.4-5.3-5.3v-4c0-2.9,2.4-5.3,5.3-5.3l0,0c2.9,0,5.3,2.4,5.3,5.3
									v4C605.8,106.2,603.4,108.6,600.5,108.6z"/>
							</g>
							<path class="st51" d="M576,146.8h-17.4c-13.5,0-24.4-10.9-24.4-24.4V55.7h66.2v66.7C600.4,135.9,589.5,146.8,576,146.8z"/>
							<g>
								<path class="st52" d="M600.4,55.7c0.2,9.4,0.3,18.8,0.5,28.3l0.3,28.3l0.1,7.1c0,1.2,0,2.4-0.1,3.6c0,0.6-0.1,1.2-0.2,1.8
									c-0.1,0.6-0.2,1.2-0.3,1.8c-0.5,2.4-1.4,4.7-2.5,6.8c-0.3,0.5-0.6,1.1-0.9,1.6c-0.3,0.5-0.6,1-1,1.5l-1.1,1.5l-1.2,1.4
									c-0.4,0.5-0.8,0.9-1.3,1.3c-0.5,0.4-0.9,0.8-1.4,1.2c-1,0.7-1.9,1.5-3,2.1c-1,0.7-2.1,1.2-3.2,1.7c-0.6,0.2-1.1,0.4-1.7,0.7
									c-0.6,0.2-1.1,0.4-1.7,0.6l-1.8,0.5l-1.8,0.3l-0.9,0.1l-0.9,0.1l-1.8,0.1l-7.1,0l-7.1,0l-1.8-0.1l-0.9-0.1l-0.9-0.1
									l-1.8-0.3l-1.8-0.5c-0.6-0.1-1.2-0.3-1.7-0.6c-0.6-0.2-1.2-0.4-1.7-0.7c-1.1-0.5-2.2-1-3.2-1.7c-1.1-0.6-2-1.4-3-2.1
									c-0.5-0.4-0.9-0.8-1.4-1.2c-0.5-0.4-0.9-0.8-1.3-1.3l-1.2-1.4l-1.1-1.5c-0.4-0.5-0.7-1-1-1.5c-0.3-0.5-0.7-1-0.9-1.6
									c-1.1-2.2-1.9-4.5-2.5-6.8c-0.1-0.6-0.2-1.2-0.3-1.8c-0.1-0.6-0.2-1.2-0.2-1.8c-0.1-1.2-0.1-2.4-0.1-3.6l0.1-7.1l0.3-28.3
									c0.2-9.4,0.3-18.8,0.5-28.3c0.2,9.4,0.3,18.8,0.5,28.3l0.3,28.3l0.1,7.1c0,1.2,0,2.3,0.1,3.5c0,0.6,0.1,1.1,0.2,1.7
									c0.1,0.6,0.1,1.1,0.3,1.7c0.5,2.2,1.3,4.4,2.4,6.4c0.2,0.5,0.6,1,0.9,1.5c0.3,0.5,0.6,1,0.9,1.4l1,1.4l1.2,1.3
									c0.4,0.4,0.8,0.8,1.2,1.2c0.4,0.4,0.8,0.8,1.3,1.1c0.9,0.7,1.8,1.4,2.8,1.9c0.9,0.6,2,1.1,3,1.6c0.5,0.2,1.1,0.4,1.6,0.6
									c0.5,0.2,1.1,0.4,1.6,0.5l1.6,0.4l1.7,0.3l0.8,0.1l0.8,0l1.7,0.1l7.1,0l7.1,0l1.7-0.1l0.8,0l0.8-0.1l1.7-0.3l1.6-0.4
									c0.6-0.1,1.1-0.3,1.6-0.5c0.5-0.2,1.1-0.4,1.6-0.6c1-0.5,2.1-0.9,3-1.6c1-0.5,1.9-1.3,2.8-1.9c0.5-0.3,0.9-0.8,1.3-1.1
									c0.4-0.4,0.8-0.8,1.2-1.2l1.2-1.3l1-1.4c0.4-0.4,0.7-0.9,0.9-1.4c0.3-0.5,0.6-1,0.9-1.5c1.1-2,1.8-4.2,2.4-6.4
									c0.1-0.6,0.2-1.1,0.3-1.7c0.1-0.6,0.2-1.1,0.2-1.7c0.1-1.1,0.1-2.3,0.1-3.5l0.1-7.1l0.3-28.3
									C600.1,74.5,600.2,65.1,600.4,55.7z"/>
							</g>
							<g>
								<g>
									<path class="st54" d="M567.3,135.6L567.3,135.6c-9.1,0-16.4-4.6-16.4-13.7h32.8C583.7,131,576.4,135.6,567.3,135.6z"/>
									<line class="st55" x1="547.9" y1="121.9" x2="586.7" y2="121.9"/>
									<path class="st55" d="M583.7,121.9c0,9.1-7.3,13.7-16.4,13.7h0c-9.1,0-16.4-4.6-16.4-13.7"/>
								</g>
							</g>
						</g>
						<g>
							<path class="st56" d="M605.8,75h-50.3c-20,0-36.2-16.2-36.2-36.2v-8.5h66.1c11.3,0,20.4,9.1,20.4,20.4V75z"/>
							<path class="st56" d="M601.2,47.3c-4.8,0-8.7,3.7-9.1,8.3h8.3v0c0.2,9.4,0.3,18.8,0.5,28.3l0.1,9.7c0.1,0,0.1,0,0.2,0
								c5,0,9.1-4.1,9.1-9.1v-28C610.3,51.4,606.3,47.3,601.2,47.3z"/>
							<path class="st56" d="M533.7,83.9c0.2-9.4,0.3-18.8,0.5-28.3h8.6c-0.4-4.7-4.3-8.3-9.1-8.3c-5,0-9.1,4.1-9.1,9.1v28
								c0,5,4,9,9,9.1L533.7,83.9z"/>
							<g>
								<path class="st51" d="M592.3,75c-5.9,0.5-11.8,0.7-17.7,0.9c-2.9,0.1-5.9,0.1-8.8,0.1c-3,0-5.9,0-8.9,0
									c-6-0.2-12-1.8-17.3-4.7c-5.2-2.9-9.7-7.1-12.9-12.1c3.7,4.6,8.4,8.3,13.6,10.8c5.2,2.6,10.9,3.9,16.7,4
									c5.8,0,11.8,0,17.6,0.1C580.5,74.3,586.4,74.6,592.3,75z"/>
							</g>
						</g>
					</g>
				</g>
			</g>
			<g>
				<linearGradient id="SVGID_48_" gradientUnits="userSpaceOnUse" x1="283.726" y1="344.4817" x2="1069.2386" y2="210.4479">
					<stop  offset="6.610580e-03" style="stop-color:#E0E0E0"/>
					<stop  offset="0.9996" style="stop-color:#FFFFFF"/>
				</linearGradient>
				<rect x="359.9" y="203.5" class="st57" width="413.7" height="185.4"/>
				<g>
					<g>
						<g>
							<path class="st51" d="M370.4,271.9h-10c-2.6,0-4.6-2.1-4.6-4.6l0,0c0-2.6,2.1-4.6,4.6-4.6h10c2.6,0,4.6,2.1,4.6,4.6l0,0
								C375.1,269.9,373,271.9,370.4,271.9z"/>
							<path class="st51" d="M372.6,280.3h-12.1c-2.6,0-4.6-2.1-4.6-4.6l0,0c0-2.6,2.1-4.6,4.6-4.6h12.1c2.6,0,4.6,2.1,4.6,4.6l0,0
								C377.2,278.2,375.1,280.3,372.6,280.3z"/>
							<path class="st51" d="M372.6,288.9h-12.1c-2.6,0-4.6-2.1-4.6-4.6l0,0c0-2.6,2.1-4.6,4.6-4.6h12.1c2.6,0,4.6,2.1,4.6,4.6l0,0
								C377.2,286.8,375.1,288.9,372.6,288.9z"/>
							<path class="st51" d="M364.9,296.6l-6.6,1.4c-2.5,0.5-5-1.1-5.5-3.5v0c-0.5-2.5,1.1-5,3.5-5.5l6.6-1.4c2.5-0.5,5,1.1,5.5,3.5
								l0,0C369,293.6,367.4,296,364.9,296.6z"/>
						</g>
						<g>
							<path class="st52" d="M370.4,262.7l-5.6,0.2l-2.8,0.1c-0.9,0-1.9-0.1-2.7,0.2c-1.7,0.5-3,2.1-3.1,3.8
								c-0.1,1.7,0.9,3.4,2.5,4.1l0.9,0.4l-0.9,0.4c-1.5,0.7-2.5,2.3-2.4,3.9c0,1.6,1.1,3.1,2.6,3.7l1.1,0.4l-1.1,0.5
								c-0.7,0.3-1.4,0.8-1.8,1.5c-0.5,0.7-0.7,1.5-0.7,2.3c0,1.6,1,3.2,2.5,3.9l1.3,0.6l-1.4,0.3l-2.3,0.5c-0.7,0.2-1.4,0.5-1.9,1
								c-1.1,1-1.6,2.5-1.3,4l0,0.1l0-0.1c0.2,1.1,0.8,2,1.7,2.7c0.9,0.6,2,0.9,3.1,0.8l6.9-1.3l-3.4,0.8c-1.1,0.3-2.3,0.6-3.4,0.8
								c-1.2,0.2-2.5,0-3.5-0.7c-1-0.7-1.8-1.8-2.1-3l0-0.1l0,0.1c-0.4-1.7,0.1-3.6,1.4-4.7c0.6-0.6,1.4-1,2.3-1.2l2.3-0.5l-0.1,0.8
								c-0.9-0.4-1.7-1-2.2-1.9c-0.5-0.8-0.8-1.8-0.8-2.8c0-2,1.3-3.9,3.1-4.7v0.9c-1.8-0.8-3.1-2.6-3.1-4.6c0-1,0.3-2,0.8-2.8
								c0.5-0.8,1.3-1.5,2.2-1.9v0.8c-0.9-0.4-1.7-1.2-2.2-2c-0.5-0.9-0.7-1.9-0.6-2.9c0.2-2,1.7-3.8,3.7-4.3c0.5-0.1,1-0.2,1.5-0.2
								l1.4,0l2.8,0.1L370.4,262.7z"/>
						</g>
					</g>
					<g>
						<g>
							<path class="st51" d="M765.2,271.6h10c2.6,0,4.6-2.1,4.6-4.6l0,0c0-2.6-2.1-4.6-4.6-4.6h-10c-2.6,0-4.6,2.1-4.6,4.6l0,0
								C760.6,269.5,762.7,271.6,765.2,271.6z"/>
							<path class="st51" d="M763.1,280h12.1c2.6,0,4.6-2.1,4.6-4.6l0,0c0-2.6-2.1-4.6-4.6-4.6h-12.1c-2.6,0-4.6,2.1-4.6,4.6l0,0
								C758.5,277.9,760.5,280,763.1,280z"/>
							<path class="st51" d="M763.1,288.5h12.1c2.6,0,4.6-2.1,4.6-4.6l0,0c0-2.6-2.1-4.6-4.6-4.6h-12.1c-2.6,0-4.6,2.1-4.6,4.6l0,0
								C758.5,286.4,760.5,288.5,763.1,288.5z"/>
							<path class="st51" d="M768.4,296.9h6.8c2.6,0,4.6-2.1,4.6-4.6l0,0c0-2.6-2.1-4.6-4.6-4.6h-6.8c-2.6,0-4.6,2.1-4.6,4.6l0,0
								C763.8,294.9,765.9,296.9,768.4,296.9z"/>
						</g>
						<path class="st52" d="M778.1,248.7h-4.5V260h4.5c3.1,0,5.7-2.5,5.7-5.7v0C783.8,251.2,781.3,248.7,778.1,248.7z"/>
					</g>
				</g>
			</g>
		</g>
	</g>
</g>
<text transform="matrix(1 0 0 1 423.6123 283.1553)"><tspan x="0" y="0" class="st58 st59 st60">Sorry no results </tspan><tspan x="0" y="48.1" class="st58 st59 st60">Found...</tspan></text>
</svg>
