<?xml version="1.0" encoding="utf-8"?>
<!-- Generator: Adobe Illustrator 22.0.0, SVG Export Plug-In . SVG Version: 6.00 Build 0)  -->
<svg version="1.1" id="Layer_1" xmlns="http://www.w3.org/2000/svg" xmlns:xlink="http://www.w3.org/1999/xlink" x="0px" y="0px"
	 viewBox="0 0 1080 1920" style="enable-background:new 0 0 1080 1920;" xml:space="preserve">
<style type="text/css">
	.st0{fill:url(#SVGID_1_);}
	.st1{fill:url(#SVGID_2_);}
	.st2{fill:url(#SVGID_3_);}
	.st3{fill:url(#SVGID_4_);}
	.st4{fill:url(#SVGID_5_);}
	.st5{fill:url(#SVGID_6_);}
	.st6{opacity:0.4;fill:url(#SVGID_7_);}
	.st7{fill:url(#SVGID_8_);}
	.st8{fill:url(#SVGID_9_);}
	.st9{fill:url(#SVGID_10_);}
	.st10{fill:url(#SVGID_11_);}
	.st11{fill:url(#SVGID_12_);}
	.st12{fill:url(#SVGID_13_);}
	.st13{fill:url(#SVGID_14_);}
	.st14{fill:url(#SVGID_15_);}
	.st15{fill:url(#SVGID_16_);}
	.st16{fill:url(#SVGID_17_);}
	.st17{fill:url(#SVGID_18_);}
	.st18{fill:url(#SVGID_19_);}
	.st19{fill:url(#SVGID_20_);}
	.st20{fill:url(#SVGID_21_);}
	.st21{fill:url(#SVGID_22_);}
	.st22{fill:url(#SVGID_23_);}
	.st23{fill:url(#SVGID_24_);}
	.st24{fill:url(#SVGID_25_);}
	.st25{fill:url(#SVGID_26_);}
	.st26{fill:url(#SVGID_27_);}
	.st27{fill:url(#SVGID_28_);}
	.st28{fill:url(#SVGID_29_);}
	.st29{fill:url(#SVGID_30_);}
	.st30{fill:url(#SVGID_31_);}
	.st31{fill:url(#SVGID_32_);}
	.st32{fill:url(#SVGID_33_);}
	.st33{fill:url(#SVGID_34_);}
	.st34{fill:url(#SVGID_35_);}
	.st35{fill:url(#SVGID_36_);}
	.st36{fill:url(#SVGID_37_);}
	.st37{fill:url(#SVGID_38_);}
	.st38{fill:url(#SVGID_39_);}
	.st39{fill:url(#SVGID_40_);}
	.st40{fill:url(#SVGID_41_);}
	.st41{fill:url(#SVGID_42_);}
	.st42{fill:url(#SVGID_43_);}
	.st43{fill:url(#SVGID_44_);}
	.st44{fill:url(#SVGID_45_);}
	.st45{fill:url(#SVGID_46_);}
	.st46{fill:url(#SVGID_47_);}
	.st47{fill:url(#SVGID_48_);}
	.st48{fill:url(#SVGID_49_);}
	.st49{fill:url(#SVGID_50_);}
	.st50{fill:url(#SVGID_51_);}
	.st51{fill:url(#SVGID_52_);}
	.st52{fill:url(#SVGID_53_);}
	.st53{fill:url(#SVGID_54_);}
	.st54{fill:url(#SVGID_55_);}
	.st55{fill:url(#SVGID_56_);}
	.st56{fill:url(#SVGID_57_);}
	.st57{fill:url(#SVGID_58_);}
	.st58{fill:url(#SVGID_59_);}
	.st59{fill:url(#SVGID_60_);}
	.st60{fill:url(#SVGID_61_);}
	.st61{fill:url(#SVGID_62_);}
	.st62{fill:url(#SVGID_63_);}
	.st63{fill:url(#SVGID_64_);}
	.st64{fill:url(#SVGID_65_);}
	.st65{fill:url(#SVGID_66_);}
	.st66{fill:url(#SVGID_67_);}
	.st67{fill:url(#SVGID_68_);}
	.st68{fill:url(#SVGID_69_);}
	.st69{fill:url(#SVGID_70_);}
	.st70{fill:url(#SVGID_71_);}
	.st71{fill:url(#SVGID_72_);}
	.st72{fill:url(#SVGID_73_);}
	.st73{fill:url(#SVGID_74_);}
	.st74{fill:url(#SVGID_75_);}
	.st75{fill:url(#SVGID_76_);}
	.st76{fill:url(#SVGID_77_);}
	.st77{fill:url(#SVGID_78_);}
	.st78{fill:url(#SVGID_79_);}
	.st79{fill:url(#SVGID_80_);}
	.st80{fill:url(#SVGID_81_);}
	.st81{fill:url(#SVGID_82_);}
	.st82{fill:url(#SVGID_83_);}
	.st83{fill:url(#SVGID_84_);}
	.st84{fill:url(#SVGID_85_);}
	.st85{fill:url(#SVGID_86_);}
	.st86{fill:url(#SVGID_87_);}
	.st87{fill:url(#SVGID_88_);}
	.st88{fill:url(#SVGID_89_);}
	.st89{fill:url(#SVGID_90_);}
	.st90{fill:url(#SVGID_91_);}
	.st91{fill:url(#SVGID_92_);}
	.st92{fill:url(#SVGID_93_);}
	.st93{fill:url(#SVGID_94_);}
	.st94{fill:url(#SVGID_95_);}
	.st95{fill:url(#SVGID_96_);}
	.st96{fill:url(#SVGID_97_);}
	.st97{fill:url(#SVGID_98_);}
	.st98{fill:url(#SVGID_99_);}
	.st99{fill:url(#SVGID_100_);}
	.st100{fill:url(#SVGID_101_);}
	.st101{fill:url(#SVGID_102_);}
	.st102{fill:url(#SVGID_103_);}
	.st103{fill:url(#SVGID_104_);}
	.st104{fill:url(#SVGID_105_);}
	.st105{fill:url(#SVGID_106_);}
	.st106{fill:url(#SVGID_107_);}
	.st107{fill:url(#SVGID_108_);}
	.st108{fill:url(#SVGID_109_);}
	.st109{fill:url(#SVGID_110_);}
	.st110{fill:#FFFFFF;}
	.st111{fill:url(#SVGID_111_);}
	.st112{fill:url(#SVGID_112_);}
	.st113{fill:url(#SVGID_113_);}
	.st114{fill:url(#SVGID_114_);}
	.st115{fill:url(#SVGID_115_);}
	.st116{fill:url(#SVGID_116_);}
	.st117{fill:url(#SVGID_117_);}
	.st118{fill:url(#SVGID_118_);}
	.st119{fill:url(#SVGID_119_);}
	.st120{fill:url(#SVGID_120_);}
	.st121{fill:url(#SVGID_121_);}
	.st122{fill:url(#SVGID_122_);}
	.st123{fill:url(#SVGID_123_);}
	.st124{fill:url(#SVGID_124_);}
	.st125{fill:url(#SVGID_125_);}
	.st126{fill:url(#SVGID_126_);}
	.st127{fill:url(#SVGID_127_);}
	.st128{fill:url(#SVGID_128_);}
	.st129{fill:url(#SVGID_129_);}
	.st130{fill:url(#SVGID_130_);}
	.st131{fill:url(#SVGID_131_);}
	.st132{fill:url(#SVGID_132_);}
	.st133{fill:url(#SVGID_133_);}
	.st134{fill:url(#SVGID_134_);}
	.st135{fill:url(#SVGID_135_);}
	.st136{fill:url(#SVGID_136_);}
	.st137{fill:url(#SVGID_137_);}
	.st138{fill:url(#SVGID_138_);}
	.st139{fill:url(#SVGID_139_);}
	.st140{fill:url(#SVGID_140_);}
	.st141{fill:url(#SVGID_141_);}
	.st142{fill:url(#SVGID_142_);}
	.st143{fill:url(#SVGID_143_);}
	.st144{fill:url(#SVGID_144_);}
	.st145{fill:url(#SVGID_145_);}
</style>
<g>
	<linearGradient id="SVGID_1_" gradientUnits="userSpaceOnUse" x1="426.0672" y1="463.7354" x2="594.9275" y2="1372.3634">
		<stop  offset="0" style="stop-color:#06C2FD"/>
		<stop  offset="0.981" style="stop-color:#FFFFFF"/>
	</linearGradient>
	<path class="st0" d="M1076.8,640.6c-14.2-0.8-28.3,0.3-41.7,3.4c-70.1,16.2-124.8,83.5-126.4,155.4c-70.8-56-177.5-50-254.1-2.1
		C578,845,528.2,926.9,498.4,1012.1c-20.1,57.4-32.5,118.5-26.4,178.9c-61-37.3-130.8-63.3-202.3-63.2s-144.9,28.8-189.4,84.9
		c-39.2,49.4-53,115-51.2,178c-8.5-2.3-17.2-3.5-26-3.8v126h1073.6V640.6z"/>
	<linearGradient id="SVGID_2_" gradientUnits="userSpaceOnUse" x1="729.8244" y1="662.0796" x2="508.4624" y2="1250.9849">
		<stop  offset="0" style="stop-color:#06C2FD"/>
		<stop  offset="0.981" style="stop-color:#FFFFFF"/>
	</linearGradient>
	<path class="st1" d="M1076.8,1228.2c-176.2-73.1-397.2-8.7-431.2,21.5c-21.6-50.6-45.3-104.1-90.9-135
		c-35.1-23.8-78.6-31.1-120.9-34.8c-78.1-6.9-159.3-3.1-231,28.8c13.6-48.7,10.8-104.8-20.1-144.8c-30.9-40-94.5-55.6-134.1-24.2
		c-0.6-44.5-6.7-98.1-45.5-118.5V1513h1073.6V1228.2z"/>
	<g>
		<linearGradient id="SVGID_3_" gradientUnits="userSpaceOnUse" x1="587.1802" y1="1401.7471" x2="519.2913" y2="1343.9907">
			<stop  offset="0" style="stop-color:#DBECF6"/>
			<stop  offset="1" style="stop-color:#B5D3E4"/>
		</linearGradient>
		<path class="st2" d="M601.7,1359.5c0,6.6-28.8,12-64.3,12c-35.5,0-64.3-5.4-64.3-12c0-6.6,28.8-12,64.3-12
			C573,1347.4,601.7,1352.8,601.7,1359.5z"/>
		<linearGradient id="SVGID_4_" gradientUnits="userSpaceOnUse" x1="893.9559" y1="1346.7612" x2="810.9835" y2="1276.1726">
			<stop  offset="0" style="stop-color:#DBECF6"/>
			<stop  offset="1" style="stop-color:#B5D3E4"/>
		</linearGradient>
		<path class="st3" d="M911.8,1295.1c0,8.1-35.2,14.7-78.6,14.7c-43.4,0-78.6-6.6-78.6-14.7c0-8.1,35.2-14.7,78.6-14.7
			C876.6,1280.4,911.8,1286.9,911.8,1295.1z"/>
		<linearGradient id="SVGID_5_" gradientUnits="userSpaceOnUse" x1="241.3862" y1="705.2094" x2="569.5215" y2="1151.3253">
			<stop  offset="0" style="stop-color:#14C7BB"/>
			<stop  offset="0.981" style="stop-color:#1574E7"/>
		</linearGradient>
		<path class="st4" d="M747.4,865.8c-18.2-56.1-51.2-114.4-110.3-135.5c-31.2-11.2-66.1-10.4-99.1-5.1c-33,5.4-64.9,15.2-97.6,21.7
			c-41,8.2-83.1,11.3-124.9,9.2c-39.8-2-82-8.2-117.7,8.1c-35.9,16.4-57.1,53.3-61.4,90.1c-4.3,36.8,5.8,73.8,18.7,108.8
			c12.9,35,28.8,69.4,36.7,105.7c6,27.4,7.3,55.6,3.9,83.4c-1.6,13.5-4.4,27.4-0.4,40.4c8.8,28.9,45.3,41.2,77.1,47.6
			c74.1,14.8,150.9,20.6,226,10.8c75.1-9.8,148.5-35.8,207.5-79.9c12.9-9.7,25.2-20.2,35.2-32.5c25.2-30.7,34.7-69.8,35.2-107.8
			c0.4-30.8-10.2-61.4-13-92.1C761,913.9,755.1,889.5,747.4,865.8z"/>
		<linearGradient id="SVGID_6_" gradientUnits="userSpaceOnUse" x1="962.586" y1="1020.4568" x2="353.2742" y2="1125.5773">
			<stop  offset="0" style="stop-color:#06C2FD"/>
			<stop  offset="0.981" style="stop-color:#1574E7"/>
		</linearGradient>
		<path class="st5" d="M809.6,1278.9c32.7,0.7,77.6-1.9,106.1-17.9c23-12.9,48.3-45,54.1-73.4c10.1-49.5,3.4-96-23.5-134
			c-23.1-32.5-53.8-61.6-64.3-100.1c-8.6-31.5,1.1-67.8-15.7-95.8c-16.1-26.9-50.8-35.7-82.1-37.3c-52.2-2.7-104.5,7.9-153.6,25.9
			c-104.1,38.2-196,111-252.7,206.3c-29.7,50-49.7,105.4-81,154.5c-10.1,15.8-21.4,31-30.3,47.5c-3.6,6.6-11.1,17.9-11,25.6
			c0.1,9.8,8.2,4.7,14.9,3.8c42.8-5.3,88-3.3,131.1-4.4c87.4-2.3,174.8-3.2,262.3-2.8C712.5,1277.2,761.1,1277.9,809.6,1278.9z"/>
		<linearGradient id="SVGID_7_" gradientUnits="userSpaceOnUse" x1="918.7213" y1="1339.6542" x2="561.5645" y2="1035.8037">
			<stop  offset="0" style="stop-color:#06C2FD"/>
			<stop  offset="0.981" style="stop-color:#1574E7"/>
		</linearGradient>
		<path class="st6" d="M916.3,1015c-14.7-19-28.1-38.5-34.4-61.4c-8.6-31.5,1.1-67.8-15.7-95.8c-16.1-26.9-50.8-35.7-82.1-37.3
			c-52.2-2.7-104.5,7.9-153.6,25.9c-14.2,5.2-28.1,11-41.7,17.5c-0.1,0.2-0.2,0.4-0.3,0.6c-0.1-0.1-0.2-0.2-0.2-0.3
			c-86.5,41-161.6,106.4-210.4,188.6c-29.7,50-49.7,105.4-81,154.5c-5.8,9.1-12,18-17.9,27l1.1,1.3v0.6c0,2.9,3.5,4.8,6.5,3.6
			c22.4-8.9,103.6-32.9,251.9,11.3c0,0,13.8,4.7,19.3,10.9c4.1,4.6,8.5,11.7,17.9,15.2c8.6,0,17.1-0.1,25.7-0.1
			c9.3-3.6,13.6-10.6,17.7-15.1c5.6-6.3,19.3-10.9,19.3-10.9c148.3-44.1,229.5-20.2,251.9-11.3c3,1.2,7.3-0.1,6.5-4.2l19.3-21.8
			L916.3,1015z"/>
		<g>
			<linearGradient id="SVGID_8_" gradientUnits="userSpaceOnUse" x1="770.4558" y1="649.2012" x2="723.656" y2="942.3879">
				<stop  offset="0" style="stop-color:#06C2FD"/>
				<stop  offset="0.981" style="stop-color:#1574E7"/>
			</linearGradient>
			<path class="st7" d="M697.3,861c-0.7,13.6-12,26.2-8.4,39.4c2.7,9.6,13.1,15.5,23,16.2c10,0.6,19.7-2.9,29.1-6.4
				c10.8-4.1,21.8-8.4,30.4-15.9c8.7-7.6,14.8-19.1,12.7-30.5c-2-10.9-11-20.8-8.6-31.6c2.9-13,20.6-18.2,24.1-31
				c3.8-13.7-10.8-27-8.8-41.1c2.3-16.4,25.5-25,25-41.6c-0.4-11.9-13.5-21-12.3-32.9c1.1-10.4,12.9-17,14.5-27.4
				c2.4-15.7-19.1-25.6-21-41.4c-1.3-11,7-23.8-0.2-32.1c-4.7-5.4-13.8-4.7-19.5-0.4c-5.7,4.3-8.8,11.2-11.3,17.9
				c-2.5,6.7-4.8,13.7-9.7,19c-7.9,8.7-21.7,11.8-26.7,22.5c-5.5,11.8,3.1,25.6,1.8,38.5c-1.9,18.4-22.9,31-23.3,49.4
				c-0.2,10.5,6.4,20.1,6.3,30.6c-0.3,20.7-26.1,33.7-27.8,54.3C685.6,832,698.2,845.7,697.3,861z"/>
			
				<linearGradient id="SVGID_9_" gradientUnits="userSpaceOnUse" x1="658.0276" y1="859.1904" x2="870.863" y2="859.1904" gradientTransform="matrix(0.8303 -0.5573 0.5573 0.8303 -358.2305 494.1696)">
				<stop  offset="0" style="stop-color:#06C2FD"/>
				<stop  offset="0.981" style="stop-color:#1574E7"/>
			</linearGradient>
			<path class="st8" d="M738,816.9C738.1,816.9,738.1,816.9,738,816.9c6.9-11,15.8-20.4,26.3-28.1c2.5-1.8-0.2-5.8-2.7-4
				c-8.8,6.4-16.5,14-23,22.7c3.2-24.6,7.6-49,13.2-73.1c0.3-0.3,0.5-0.6,0.6-1c10.1-8.1,20.2-16.2,30.3-24.4c2.4-1.9-0.3-5.9-2.7-4
				c-8.8,7-17.5,14.1-26.3,21.1c4.7-19.5,10.2-38.8,16.5-57.9c0.2-0.1,0.4-0.2,0.6-0.3c7.2-5.2,14.4-10.3,21.5-15.5
				c2.5-1.8-0.2-5.8-2.7-4c-5.6,4.1-11.3,8.1-16.9,12.2c3.1-9.2,6.4-18.3,9.9-27.4c1.1-2.9-3.2-5-4.3-2.1
				c-3.9,10.1-7.5,20.2-10.9,30.4c-3.9-3.5-7-7.6-9.2-12.4c-1.3-2.8-5.9-1.3-4.6,1.5c2.9,6.2,6.9,11.5,12.1,15.8
				c-6.5,19.7-12.1,39.6-17,59.7c-3.2-5.8-5.1-12.1-5.6-18.8c-0.3-3.1-5.1-2.8-4.8,0.3c0.8,9.1,3.8,17.7,8.9,25.2
				c-5.4,23.5-9.8,47.2-13,71.1c-2.3-6.4-5.1-12.5-8.4-18.6c-1.5-2.7-5.5,0-4,2.7c4.6,8.6,8.2,17.7,10.9,27
				c-4.6,38.3-6.2,77.1-4.9,115.7c0.1,3.1,4.9,2.8,4.8-0.3c-1.3-37.6,0.3-75.3,4.6-112.6C737.7,817.8,737.9,817.4,738,816.9z"/>
		</g>
		<g>
			
				<linearGradient id="SVGID_10_" gradientUnits="userSpaceOnUse" x1="963.1415" y1="741.6968" x2="697.4804" y2="933.0278" gradientTransform="matrix(0.9647 -0.2633 0.2633 0.9647 -203.871 212.1386)">
				<stop  offset="0" style="stop-color:#FD825C"/>
				<stop  offset="0.5744" style="stop-color:#F0585F"/>
				<stop  offset="1" style="stop-color:#E73D61"/>
			</linearGradient>
			<path class="st9" d="M932.1,682.1c14.1,17.9,7.7,45.3-6.9,62.8c-14.6,17.5-35.4,28.3-54,41.5c-38.9,27.8-68,66.8-96.1,105.5
				c-5.1,7-10.4,14.2-18,18.3c-7.6,4.1-18.3,3.9-23.8-2.7c-6.1-7.3-3.6-18.2-0.6-27.1c21.6-63.7,55.9-123.1,100.2-173.7
				c12.9-14.7,27.2-29.1,45.6-35.9C896.8,663.9,920,666.7,932.1,682.1z"/>
			
				<linearGradient id="SVGID_11_" gradientUnits="userSpaceOnUse" x1="-4116.145" y1="395.5831" x2="-3941.7375" y2="395.5831" gradientTransform="matrix(-0.9999 1.290000e-02 1.290000e-02 0.9999 -3219.2268 470.7198)">
				<stop  offset="0" style="stop-color:#E73D61"/>
				<stop  offset="0.4256" style="stop-color:#F0585F"/>
				<stop  offset="1" style="stop-color:#FD825C"/>
			</linearGradient>
			<path class="st10" d="M776.2,834.1c-0.4-0.5-0.6-1.2-0.4-2.1c7.6-25.6,18.9-50,33.6-72.3c1.7-2.6,5.9-0.2,4.2,2.4
				c-11.9,18.1-21.6,37.4-28.8,57.7c4-6.4,8.2-12.7,12.5-18.9c14.4-20.6,49-57.9,49.4-58.4c10-14.5,20-29.1,30-43.6
				c1.7-2.5,6-0.2,4.2,2.4c-7,10.2-14.1,20.5-21.1,30.7c10.9-9.4,22.4-18.2,34.4-26.2c2.6-1.7,5,2.4,2.5,4.1
				c-20.1,13.6-38.7,29.1-55.7,46.3c18-11.2,36.6-21.3,55.9-30.3c2.8-1.3,5.3,2.8,2.5,4.1c-25,11.6-49,25.2-71.9,40.7c0,0,0,0,0,0
				c-9.9,11.2-19.2,23-27.8,35.4c-8.9,12.9-17,26.2-24.7,39.8c18.4-18.7,38.6-35.5,60.3-50.2c2.6-1.7,5,2.4,2.5,4.1
				c-26.1,17.6-49.8,38.3-70.9,61.7c-0.2,0.2-0.4,0.4-0.7,0.5c-11.7,22.2-22.4,45-33,67.7c-1.3,2.8-5.5,0.4-4.2-2.4
				C743.7,895.9,758.6,864.2,776.2,834.1z"/>
		</g>
		<g>
			
				<linearGradient id="SVGID_12_" gradientUnits="userSpaceOnUse" x1="764.0813" y1="891.7212" x2="1002.1815" y2="878.1927" gradientTransform="matrix(0.9647 -0.2633 0.2633 0.9647 -203.871 212.1386)">
				<stop  offset="0" style="stop-color:#785CB5"/>
				<stop  offset="0.9688" style="stop-color:#FA3C75"/>
			</linearGradient>
			<path class="st11" d="M779.3,823.3c-6.4,6.2-16.8,5.4-24.7,9.4c-13.1,6.8-15.4,25.7-8.7,38.8c6.7,13.1,19.7,21.6,32.2,29.4
				c7,4.3,14.1,8.6,22.1,10.5c8,1.9,17,1,23.3-4.3c7.3-6.1,9.8-17.1,18.1-21.9c13.9-8.1,32.2,7.3,47.1,1.4
				c14.1-5.6,17.4-27,32.1-30.8c11.1-2.9,23.9,6.1,33.8,0.2c7.4-4.5,8.6-15.1,15.3-20.7c6.8-5.6,16.6-4.3,25.4-4.9
				c8.8-0.6,19.3-6.3,18.1-15c-0.8-5.7-6.5-9.4-12-10.7c-5.6-1.3-11.4-1-16.9-2.5c-15.8-4.3-27.7-22.6-43.8-19.6
				c-7.7,1.4-13.6,7.6-21.1,10c-16.4,5.2-34.5-9.2-50.7-3.3c-11.4,4.2-18,17.4-29.7,20.7c-8.4,2.4-17.2-0.9-25.6-3.1
				c-8.4-2.2-18.6-3-24.8,3.1C784.8,813.7,783.2,819.4,779.3,823.3z"/>
			
				<linearGradient id="SVGID_13_" gradientUnits="userSpaceOnUse" x1="590.8134" y1="459.481" x2="766.3501" y2="459.481" gradientTransform="matrix(0.8782 0.4782 -0.4782 0.8782 482.0353 124.4785)">
				<stop  offset="3.117030e-02" style="stop-color:#FA3C75"/>
				<stop  offset="1" style="stop-color:#785CB5"/>
			</linearGradient>
			<path class="st12" d="M975.5,814.7c-7.8,0.9-15.6,1.7-23.4,2.6c2.3-2.9,4.6-5.8,6.9-8.7c1.6-2-1.3-4.7-2.8-2.7
				c-2.8,3.6-5.7,7.1-8.5,10.7c-0.3,0.4-0.5,0.9-0.5,1.3c-7.1,0.9-14.3,1.7-21.4,2.7c2.7-3.7,6-6.8,10.1-9.3c2.2-1.3,0.1-4.7-2-3.4
				c-5.5,3.3-9.9,7.8-13.1,13.4c-7.7,1.1-15.4,2.2-23.1,3.5c3.4-4.7,7.4-8.8,12.1-12.3c2-1.5,0-4.9-2-3.4
				c-6.2,4.6-11.3,10.2-15.5,16.6c-9.3,1.6-18.6,3.5-27.8,5.6c4.3-5.3,9.3-10.1,14.8-14.2c2-1.5,0-4.9-2-3.4
				c-7.2,5.4-13.4,11.7-18.7,19c-9.2,2.2-18.3,4.7-27.3,7.5c3-5.3,6.9-9.9,11.7-13.9c2-1.6-0.9-4.3-2.8-2.7
				c-6.1,5-10.9,11.2-14.1,18.3c-7.6,2.5-15.1,5.3-22.5,8.3c2.4-4.9,4.7-9.8,7.1-14.7c1.1-2.3-2.4-4.2-3.5-1.9
				c-3,6.3-6.1,12.6-9.1,18.9c-20.4,8.8-39.8,19.9-57.8,34.1c-2,1.6,0,5,2,3.4c17.6-13.9,36.6-24.8,56.6-33.5c0,0,0,0,0,0
				c0.1,0.1,0.2,0.2,0.4,0.3c11.7,7,24.1,12.4,37.2,16.2c2.4,0.7,3.3-3.1,0.9-3.9c-11.9-3.5-23.3-8.4-34.1-14.6
				c7.4-3.1,15-5.9,22.7-8.5c0.2,0.1,0.3,0.2,0.5,0.3c0.2,0.2,0.3,0.4,0.6,0.5c10.3,6,20.5,11.9,30.8,17.9c2.2,1.3,4.1-2.2,1.9-3.5
				c-9.6-5.6-19.3-11.2-28.9-16.8c8.6-2.7,17.4-5.2,26.3-7.4c8.8,8.4,19,15.1,30.2,19.8c2.3,1,4.2-2.5,1.9-3.5
				c-10.1-4.3-19.4-10.1-27.5-17.4c9.8-2.3,19.8-4.3,29.7-6.1c0.1,0.1,0.3,0.3,0.5,0.4c0.1,0.2,0.3,0.4,0.6,0.5
				c7.9,5,15.9,10,23.8,15c2.2,1.4,4-2.1,1.9-3.5c-7.1-4.5-14.2-8.9-21.3-13.4c7.9-1.4,15.9-2.6,23.8-3.7c0.6,0.4,1.3,0.5,1.9,0.2
				c0.1,0.1,0.1,0.1,0.2,0.2c6.2,3.4,12.5,6.8,18.7,10.2c2.2,1.2,4.1-2.3,1.9-3.5c-5-2.7-10-5.4-14.9-8.1c7.4-1,14.9-1.9,22.3-2.8
				c0.2,0.2,0.5,0.3,0.8,0.4c4.5,1.4,9,2.7,13.5,4.1c2.4,0.7,3.3-3.1,0.9-3.9c-1.9-0.6-3.8-1.1-5.7-1.7c5.2-0.6,10.4-1.2,15.5-1.7
				C978.1,818.4,978,814.4,975.5,814.7z"/>
		</g>
		<g>
			<linearGradient id="SVGID_14_" gradientUnits="userSpaceOnUse" x1="257.2332" y1="1200.4221" x2="881.4836" y2="1200.4221">
				<stop  offset="0" style="stop-color:#1C436D"/>
				<stop  offset="1" style="stop-color:#1C68A0"/>
			</linearGradient>
			<path class="st13" d="M881.5,1180.4l-69.9-35.2l-242.3,41l-242.3-41l-69.9,35.2l3.7,31.5v0.6c0,2.9,3.5,4.8,6.5,3.6
				c22.4-8.9,103.6-32.9,251.9,11.3c0,0,13.8,4.7,19.3,10.9c5.6,6.3,11.7,17.3,30.7,17.3c19,0,25.1-11.1,30.7-17.3
				c5.6-6.3,19.3-10.9,19.3-10.9c148.3-44.1,229.5-20.2,251.9-11.3c3,1.2,7.3-0.1,6.5-4.2l0,0L881.5,1180.4z"/>
			<linearGradient id="SVGID_15_" gradientUnits="userSpaceOnUse" x1="569.3586" y1="1255.9219" x2="569.3586" y2="1163.5612">
				<stop  offset="0" style="stop-color:#DBECF6"/>
				<stop  offset="1" style="stop-color:#B5D3E4"/>
			</linearGradient>
			<path class="st14" d="M881.5,1173.4l-69.9-35.2l-242.3,41l-242.3-41l-69.9,35.2l-15.6,16.8l19.3,21.8c0,0,81.4-44.3,258.4,8.4
				c0,0,14.7,4.9,19.3,8.6c9.1,7.2,11.7,19.3,30.7,19.3c19,0,22.2-12.3,29.3-18.6c3.4-3,20.7-9.2,20.7-9.2
				c177.1-52.7,258.4-8.4,258.4-8.4l19.3-21.8L881.5,1173.4z"/>
			<linearGradient id="SVGID_16_" gradientUnits="userSpaceOnUse" x1="738.0233" y1="999.1125" x2="565.5762" y2="999.1125">
				<stop  offset="0" style="stop-color:#FFFFFF"/>
				<stop  offset="0.3424" style="stop-color:#FBFDFE"/>
				<stop  offset="0.6612" style="stop-color:#F0F7FB"/>
				<stop  offset="0.9697" style="stop-color:#DDEDF7"/>
				<stop  offset="1" style="stop-color:#DBECF6"/>
			</linearGradient>
			<path class="st15" d="M569.4,1207.5c0,0,198.4-80.9,327.7-17.3V823.6c-126.1-69.7-315.7-11-327.7,17.3V1207.5z"/>
			<g>
				<linearGradient id="SVGID_17_" gradientUnits="userSpaceOnUse" x1="619.3449" y1="856.8705" x2="849.8903" y2="856.8705">
					<stop  offset="0" style="stop-color:#DBECF6"/>
					<stop  offset="1" style="stop-color:#B5D3E4"/>
				</linearGradient>
				<path class="st16" d="M704.1,847c-39.4,6-72.8,14.3-84.7,17.4v9.1c16.4-4.4,155.4-40.6,230.5-16.1v-9.2
					C815.5,838,766.5,837.6,704.1,847z"/>
			</g>
			<g>
				<linearGradient id="SVGID_18_" gradientUnits="userSpaceOnUse" x1="619.3449" y1="909.8048" x2="849.8903" y2="909.8048">
					<stop  offset="0" style="stop-color:#DBECF6"/>
					<stop  offset="1" style="stop-color:#B5D3E4"/>
				</linearGradient>
				<path class="st17" d="M704.1,899.9c-39.4,6-72.8,14.3-84.7,17.4v9.1c16.4-4.4,155.4-40.6,230.5-16.1v-9.2
					C815.5,890.9,766.5,890.5,704.1,899.9z"/>
			</g>
			<g>
				<linearGradient id="SVGID_19_" gradientUnits="userSpaceOnUse" x1="619.3449" y1="962.7391" x2="849.8903" y2="962.7391">
					<stop  offset="0" style="stop-color:#DBECF6"/>
					<stop  offset="1" style="stop-color:#B5D3E4"/>
				</linearGradient>
				<path class="st18" d="M704.1,952.9c-39.4,6-72.8,14.3-84.7,17.4v9.1c16.4-4.4,155.4-40.6,230.5-16.1v-9.2
					C815.5,943.9,766.5,943.5,704.1,952.9z"/>
			</g>
			<g>
				<linearGradient id="SVGID_20_" gradientUnits="userSpaceOnUse" x1="619.3449" y1="1015.6733" x2="849.8903" y2="1015.6733">
					<stop  offset="0" style="stop-color:#DBECF6"/>
					<stop  offset="1" style="stop-color:#B5D3E4"/>
				</linearGradient>
				<path class="st19" d="M704.1,1005.8c-39.4,6-72.8,14.3-84.7,17.4v9.1c16.4-4.4,155.4-40.6,230.5-16.1v-9.2
					C815.5,996.8,766.5,996.4,704.1,1005.8z"/>
			</g>
			<g>
				<linearGradient id="SVGID_21_" gradientUnits="userSpaceOnUse" x1="619.3449" y1="1068.6077" x2="849.8903" y2="1068.6077">
					<stop  offset="0" style="stop-color:#DBECF6"/>
					<stop  offset="1" style="stop-color:#B5D3E4"/>
				</linearGradient>
				<path class="st20" d="M704.1,1058.7c-39.4,6-72.8,14.3-84.7,17.4v9.1c16.4-4.4,155.4-40.6,230.5-16.1v-9.2
					C815.5,1049.7,766.5,1049.3,704.1,1058.7z"/>
			</g>
			<g>
				<linearGradient id="SVGID_22_" gradientUnits="userSpaceOnUse" x1="619.3449" y1="1121.5417" x2="849.8903" y2="1121.5417">
					<stop  offset="0" style="stop-color:#DBECF6"/>
					<stop  offset="1" style="stop-color:#B5D3E4"/>
				</linearGradient>
				<path class="st21" d="M704.1,1111.7c-39.4,6-72.8,14.3-84.7,17.4v9.1c16.4-4.4,155.4-40.6,230.5-16.1v-9.2
					C815.5,1102.7,766.5,1102.3,704.1,1111.7z"/>
			</g>
			<linearGradient id="SVGID_23_" gradientUnits="userSpaceOnUse" x1="456.7281" y1="996.6853" x2="564.0027" y2="996.6853">
				<stop  offset="0" style="stop-color:#FFFFFF"/>
				<stop  offset="0.4316" style="stop-color:#FDFEFE"/>
				<stop  offset="0.6839" style="stop-color:#F4F9FC"/>
				<stop  offset="0.8895" style="stop-color:#E6F2F9"/>
				<stop  offset="1" style="stop-color:#DBECF6"/>
			</linearGradient>
			<path class="st22" d="M569.4,1207.5c0,0-198.4-80.9-327.7-17.3V823.6c127.3-69.4,297.1-30.6,327.7,17.3V1207.5z"/>
			<g>
				<linearGradient id="SVGID_24_" gradientUnits="userSpaceOnUse" x1="288.8268" y1="856.8705" x2="519.3719" y2="856.8705">
					<stop  offset="0" style="stop-color:#DBECF6"/>
					<stop  offset="1" style="stop-color:#B5D3E4"/>
				</linearGradient>
				<path class="st23" d="M434.6,847c39.4,6,72.8,14.3,84.7,17.4v9.1c-16.4-4.4-155.4-40.6-230.5-16.1v-9.2
					C323.2,838,372.2,837.6,434.6,847z"/>
			</g>
			<g>
				<linearGradient id="SVGID_25_" gradientUnits="userSpaceOnUse" x1="288.8268" y1="909.8048" x2="519.3719" y2="909.8048">
					<stop  offset="0" style="stop-color:#DBECF6"/>
					<stop  offset="1" style="stop-color:#B5D3E4"/>
				</linearGradient>
				<path class="st24" d="M434.6,899.9c39.4,6,72.8,14.3,84.7,17.4v9.1c-16.4-4.4-155.4-40.6-230.5-16.1v-9.2
					C323.2,890.9,372.2,890.5,434.6,899.9z"/>
			</g>
			<g>
				<linearGradient id="SVGID_26_" gradientUnits="userSpaceOnUse" x1="288.8268" y1="962.7391" x2="519.3719" y2="962.7391">
					<stop  offset="0" style="stop-color:#DBECF6"/>
					<stop  offset="1" style="stop-color:#B5D3E4"/>
				</linearGradient>
				<path class="st25" d="M434.6,952.9c39.4,6,72.8,14.3,84.7,17.4v9.1c-16.4-4.4-155.4-40.6-230.5-16.1v-9.2
					C323.2,943.9,372.2,943.5,434.6,952.9z"/>
			</g>
			<g>
				<linearGradient id="SVGID_27_" gradientUnits="userSpaceOnUse" x1="288.8268" y1="1015.6733" x2="519.3719" y2="1015.6733">
					<stop  offset="0" style="stop-color:#DBECF6"/>
					<stop  offset="1" style="stop-color:#B5D3E4"/>
				</linearGradient>
				<path class="st26" d="M434.6,1005.8c39.4,6,72.8,14.3,84.7,17.4v9.1c-16.4-4.4-155.4-40.6-230.5-16.1v-9.2
					C323.2,996.8,372.2,996.4,434.6,1005.8z"/>
			</g>
			<g>
				<linearGradient id="SVGID_28_" gradientUnits="userSpaceOnUse" x1="288.8268" y1="1068.6077" x2="519.3719" y2="1068.6077">
					<stop  offset="0" style="stop-color:#DBECF6"/>
					<stop  offset="1" style="stop-color:#B5D3E4"/>
				</linearGradient>
				<path class="st27" d="M434.6,1058.7c39.4,6,72.8,14.3,84.7,17.4v9.1c-16.4-4.4-155.4-40.6-230.5-16.1v-9.2
					C323.2,1049.7,372.2,1049.3,434.6,1058.7z"/>
			</g>
			<g>
				<linearGradient id="SVGID_29_" gradientUnits="userSpaceOnUse" x1="288.8268" y1="1121.5417" x2="519.3719" y2="1121.5417">
					<stop  offset="0" style="stop-color:#DBECF6"/>
					<stop  offset="1" style="stop-color:#B5D3E4"/>
				</linearGradient>
				<path class="st28" d="M434.6,1111.7c39.4,6,72.8,14.3,84.7,17.4v9.1c-16.4-4.4-155.4-40.6-230.5-16.1v-9.2
					C323.2,1102.7,372.2,1102.3,434.6,1111.7z"/>
			</g>
		</g>
		<linearGradient id="SVGID_30_" gradientUnits="userSpaceOnUse" x1="490.8655" y1="1156.5671" x2="621.1458" y2="1156.5671">
			<stop  offset="0" style="stop-color:#DBECF6"/>
			<stop  offset="1" style="stop-color:#B5D3E4"/>
		</linearGradient>
		<path class="st29" d="M620.8,1104.5c-0.8-0.8-2.2-0.1-3,0.6c-5.2,4.3-6,4.4-9.8,10.2c-2,3-3.8,6.2-6.7,8.2
			c0,0-21.7,17.5-28.6,15.2c-8.7-2.8-18.5-13.1-25-16.3c-0.2-0.3-0.5-0.6-0.8-0.8c-5.3-4.8-11.6-4.5-11.6-4.5s-0.1,0-0.3,0.1
			c-0.7-4.1-0.8-8.2-0.2-12.3c1.6,0.5,3.2,1.2,4.8,0.4c0.4-0.5,1.9-4.2,1.8-6.1c-0.1-1.9,0-2.9,0.3-4.4c0.8,0.5,2.7,0.5,2.8-0.4
			c0.1-1-0.7-2.8-1.1-3.7c-1.1-2.7-0.1-6.8,0.6-10.2c2.1-0.3,4.1-1.5,4.5-3.6c0.9-4.8-1.2-7.2-2.8-9.2c-1.6-2-3.9-3.1-6.1-4.2
			c-2.7-1.2-5.4-2.4-8.2-3.1c-7.7-1.7-15.9,1.5-21.5,7.3c-13.2,13.5-7.1,40.2-11.3,48.1c-2.3,4.4-5.2,8.7-6.6,13.5
			c-1.4,4.8-1,10.7,2.6,14.1c0.8,0.8,1.8,1.4,2.8,1.9c-4.2,6.7-7.3,15-6.7,24.3c1,14.1,8,26.7,13.5,34.6c-0.6,6.7-1.2,12.1-1.6,15
			c0.3,0.2,0.7,0.3,1.1,0.4c-0.1,1-0.2,2-0.3,3.1c5.2,1.4,10.4,2.9,15.7,4.5c0,0,13.8,4.7,19.3,10.9c4,4.5,8.2,11.3,17.2,14.9
			c-0.5-12.2-1.5-27.3-3.7-37.8c0.6-0.7,0.9-1.6,0.7-2.5c-1.3-6.4-4.5-20.4-5.1-23.7c-0.4-2-0.6-4.1-0.6-6.2
			c0-4.3,0.4-11.6,2.3-16.9c1.8-4.8,6.1-9.3,7.4-15.7c4.2,2,8.5,3.3,12,3.8c8.9,1.3,37-24.5,38.8-26.8c2.5-3.2,5.8-3.5,9-6.1
			c0.9-0.7,2.5-3.4,2.4-4.6c-0.1-1.7-2.3-2.9-2.6-3.4c-0.9-1.4,1.8-3.2,3.7-5.7C620.9,1106.8,621.6,1105.4,620.8,1104.5z
			 M505.6,1186.7c-1.9-6.5-3.2-13.2-2.8-17.9c0.3-3.9,1.5-7.4,3.1-10.7C506.3,1166.7,506.1,1176.9,505.6,1186.7z"/>
		<linearGradient id="SVGID_31_" gradientUnits="userSpaceOnUse" x1="709.785" y1="874.3915" x2="772.9962" y2="1250.7179">
			<stop  offset="0" style="stop-color:#DBECF6"/>
			<stop  offset="1" style="stop-color:#B5D3E4"/>
		</linearGradient>
		<path class="st30" d="M882.5,1126.4l-13.9-10.1c1.2-19,2.7-36.7,1.1-41c-3.1-8.3-9.7-10-11.7-11c-0.4-2-0.7-4-0.8-5.9
			c1.9-0.1,4.2-2,4.6-5c0.7-5.4,5-9.8,5.5-15.2c0.5-5.4-0.2-11.4-4-15.3c-2.2-2.3-5.3-3.6-8.3-4.7c-3.8-1.3-7.7-2-11.7-2.1
			c-2.1,0-4.2,0.1-6.1,0.9c-2.4,1-4.4,3-4.5,5.8c0,1,0.3,2,0.9,2.8c0.9,1.1,2.1,1.5,3.4,1.7c-0.3,1.4-0.4,2.9-0.8,4.2
			c-0.7,2.7-2.2,5.3-4.3,7.2c-1,0.9-2.2,2.2-1.7,3.4c0.5,1,1.9,1.2,2.8,1.9c1.1,0.9,1.1,2.6,0.7,4c-0.4,1.4-1.3,2.6-1.7,3.9
			c-0.4,1.4-0.2,3.1,1.1,3.8c1.6,1,3.8-0.2,5.5,0.5c1.5,0.7,2.3,5.5,2.2,7.9c-4.7,0.5-11.3,3.3-14.3,6.6c-2.5,2.3-5.2,5.3-8.1,9
			l-24-17.4c-1.9-1.4-4.6-1-6,1l-5.2,7.1l-32.7-23.7c19.2-34.6,10-78.9-22.8-102.7c-35.5-25.7-85.1-17.8-110.8,17.7
			c-25.7,35.5-17.8,85.1,17.7,110.8c32.9,23.8,77.8,18.8,104.7-10.2l32.7,23.7l-5.2,7.1c-0.5,0.6-0.7,1.3-0.8,2
			c-1.4,1.4-2.2,3.6-2.1,5.6c0.1,2.8,1.5,5.4,3.1,7.8c0.9,1.4,1.9,2.7,3.2,3.8c0,0,0,0.1,0.1,0.1c1,1.2,2.4,1.8,3.9,2.1
			c0,0.1,0,0.3,0.1,0.4c0,0,7.1,2.2,17.2,1.4l23.1,16.8c-1.3,7.7-2.5,15.8-3.7,24.8c1.2,0.7,2.5,1.3,3.9,1.9
			c-2.4,10.3-5.1,25.7-7.6,42.8c23,1.9,40.2,5.7,51.9,9.2c0.4-2.9,0.9-5.8,1.4-8.7c1.7-9.1,4-18,5.1-27.2c0.5-4.2,0.8-8.6,0.6-12.8
			c1.1-0.6,2-1.2,2.8-1.9c-0.4-2.2-0.7-4.6-0.9-7.4l15.5-21.4C884.9,1130.5,884.5,1127.8,882.5,1126.4z"/>
		<g>
			<g>
				<linearGradient id="SVGID_32_" gradientUnits="userSpaceOnUse" x1="433.6595" y1="1254.3849" x2="477.986" y2="1254.3849">
					<stop  offset="0" style="stop-color:#FFFFFF"/>
					<stop  offset="0.8537" style="stop-color:#DBECF6"/>
				</linearGradient>
				<polygon class="st31" points="433.7,1236.1 433.7,1322.8 478,1272.7 478,1186 				"/>
				<g>
					<linearGradient id="SVGID_33_" gradientUnits="userSpaceOnUse" x1="115.7133" y1="1279.4392" x2="433.6595" y2="1279.4392">
						<stop  offset="0" style="stop-color:#FFFFFF"/>
						<stop  offset="0.8537" style="stop-color:#DBECF6"/>
					</linearGradient>
					<path class="st32" d="M159.1,1236.1c-23.9,0-43.4,19.5-43.4,43.4c0,23.9,19.5,43.4,43.4,43.4h274.6v-86.7H159.1z"/>
				</g>
				<linearGradient id="SVGID_34_" gradientUnits="userSpaceOnUse" x1="134.4896" y1="1279.4392" x2="433.6595" y2="1279.4392">
					<stop  offset="0" style="stop-color:#DBECF6"/>
					<stop  offset="1" style="stop-color:#B5D3E4"/>
				</linearGradient>
				<path class="st33" d="M433.7,1282.8H136.1c-0.9,0-1.6-0.7-1.6-1.6v-3.6c0-0.9,0.7-1.6,1.6-1.6h297.6V1282.8z"/>
				<g>
					<linearGradient id="SVGID_35_" gradientUnits="userSpaceOnUse" x1="433.6595" y1="1255.7632" x2="477.9583" y2="1255.7632">
						<stop  offset="0" style="stop-color:#DBECF6"/>
						<stop  offset="1" style="stop-color:#B5D3E4"/>
					</linearGradient>
					<polygon class="st34" points="433.7,1282.8 478,1235.5 478,1228.7 433.7,1276.1 					"/>
					<linearGradient id="SVGID_36_" gradientUnits="userSpaceOnUse" x1="433.6595" y1="1269.7357" x2="477.9583" y2="1269.7357">
						<stop  offset="0" style="stop-color:#DBECF6"/>
						<stop  offset="1" style="stop-color:#B5D3E4"/>
					</linearGradient>
					<polygon class="st35" points="433.7,1296.8 478,1249.4 478,1242.7 433.7,1290 					"/>
					<linearGradient id="SVGID_37_" gradientUnits="userSpaceOnUse" x1="433.6595" y1="1283.7083" x2="477.9583" y2="1283.7083">
						<stop  offset="0" style="stop-color:#DBECF6"/>
						<stop  offset="1" style="stop-color:#B5D3E4"/>
					</linearGradient>
					<polygon class="st36" points="433.7,1310.8 478,1263.4 478,1256.7 433.7,1304 					"/>
					<linearGradient id="SVGID_38_" gradientUnits="userSpaceOnUse" x1="433.6595" y1="1241.7906" x2="477.9583" y2="1241.7906">
						<stop  offset="0" style="stop-color:#DBECF6"/>
						<stop  offset="1" style="stop-color:#B5D3E4"/>
					</linearGradient>
					<polygon class="st37" points="433.7,1268.8 478,1221.5 478,1214.7 433.7,1262.1 					"/>
					<linearGradient id="SVGID_39_" gradientUnits="userSpaceOnUse" x1="433.6595" y1="1227.8181" x2="477.9583" y2="1227.8181">
						<stop  offset="0" style="stop-color:#DBECF6"/>
						<stop  offset="1" style="stop-color:#B5D3E4"/>
					</linearGradient>
					<polygon class="st38" points="433.7,1254.9 478,1207.5 478,1200.8 433.7,1248.1 					"/>
				</g>
				<linearGradient id="SVGID_40_" gradientUnits="userSpaceOnUse" x1="141.2348" y1="1265.4667" x2="433.6595" y2="1265.4667">
					<stop  offset="0" style="stop-color:#DBECF6"/>
					<stop  offset="1" style="stop-color:#B5D3E4"/>
				</linearGradient>
				<path class="st39" d="M433.7,1268.8H144.6c-1.9,0-3.4-1.5-3.4-3.4l0,0c0-1.9,1.5-3.4,3.4-3.4h289.1V1268.8z"/>
				<linearGradient id="SVGID_41_" gradientUnits="userSpaceOnUse" x1="148.7876" y1="1251.4941" x2="433.6595" y2="1251.4941">
					<stop  offset="0" style="stop-color:#DBECF6"/>
					<stop  offset="1" style="stop-color:#B5D3E4"/>
				</linearGradient>
				<path class="st40" d="M433.7,1254.9H152.2c-1.9,0-3.4-1.5-3.4-3.4l0,0c0-1.9,1.5-3.4,3.4-3.4h281.5V1254.9z"/>
				<linearGradient id="SVGID_42_" gradientUnits="userSpaceOnUse" x1="141.2348" y1="1293.4117" x2="433.6595" y2="1293.4117">
					<stop  offset="0" style="stop-color:#DBECF6"/>
					<stop  offset="1" style="stop-color:#B5D3E4"/>
				</linearGradient>
				<path class="st41" d="M433.7,1290H144.6c-1.9,0-3.4,1.5-3.4,3.4l0,0c0,1.9,1.5,3.4,3.4,3.4h289.1V1290z"/>
				<linearGradient id="SVGID_43_" gradientUnits="userSpaceOnUse" x1="148.7876" y1="1307.3843" x2="433.6595" y2="1307.3843">
					<stop  offset="0" style="stop-color:#DBECF6"/>
					<stop  offset="1" style="stop-color:#B5D3E4"/>
				</linearGradient>
				<path class="st42" d="M433.7,1304H152.2c-1.9,0-3.4,1.5-3.4,3.4l0,0c0,1.9,1.5,3.4,3.4,3.4h281.5V1304z"/>
				<g>
					<linearGradient id="SVGID_44_" gradientUnits="userSpaceOnUse" x1="108.9679" y1="1279.4392" x2="444.9016" y2="1279.4392">
						<stop  offset="0" style="stop-color:#14C7BB"/>
						<stop  offset="0.981" style="stop-color:#1574E7"/>
					</linearGradient>
					<path class="st43" d="M444.9,1329.5H159.1c-27.6,0-50.1-22.5-50.1-50.1c0-27.6,22.5-50.1,50.1-50.1h285.8v6.7H159.1
						c-23.9,0-43.4,19.5-43.4,43.4c0,23.9,19.5,43.4,43.4,43.4h285.8V1329.5z"/>
				</g>
				<linearGradient id="SVGID_45_" gradientUnits="userSpaceOnUse" x1="444.9016" y1="1207.6493" x2="489.2284" y2="1207.6493">
					<stop  offset="0" style="stop-color:#14C7BB"/>
					<stop  offset="0.981" style="stop-color:#1574E7"/>
				</linearGradient>
				<polygon class="st44" points="444.9,1229.3 489.2,1179.2 489.2,1186 444.9,1236.1 				"/>
				<linearGradient id="SVGID_46_" gradientUnits="userSpaceOnUse" x1="444.9016" y1="1301.1207" x2="489.2284" y2="1301.1207">
					<stop  offset="0" style="stop-color:#14C7BB"/>
					<stop  offset="0.981" style="stop-color:#1574E7"/>
				</linearGradient>
				<polygon class="st45" points="444.9,1322.8 489.2,1272.7 489.2,1279.4 444.9,1329.5 				"/>
				<linearGradient id="SVGID_47_" gradientUnits="userSpaceOnUse" x1="122.1865" y1="1212.3943" x2="489.2284" y2="1212.3943">
					<stop  offset="0" style="stop-color:#14C7BB"/>
					<stop  offset="0.981" style="stop-color:#1574E7"/>
				</linearGradient>
				<path class="st46" d="M203.4,1179.2c-14.9,0-28.3,6.5-37.5,16.9l0,0l-43.8,49.5h0c7.9-8.6,18.9-14.5,31.1-15.9
					c1.9-0.2,3.8-0.3,5.8-0.3h1h284.9l38.4-43.4l6-6.7H203.4z"/>
				<linearGradient id="SVGID_48_" gradientUnits="userSpaceOnUse" x1="433.6595" y1="1297.748" x2="489.2284" y2="1297.748">
					<stop  offset="0" style="stop-color:#14C7BB"/>
					<stop  offset="0.981" style="stop-color:#1574E7"/>
				</linearGradient>
				<polygon class="st47" points="478,1272.7 489.2,1272.7 444.9,1322.8 433.7,1322.8 				"/>
			</g>
			<g>
				<linearGradient id="SVGID_49_" gradientUnits="userSpaceOnUse" x1="391.212" y1="1145.2466" x2="435.5387" y2="1145.2466">
					<stop  offset="0" style="stop-color:#FFFFFF"/>
					<stop  offset="0.8537" style="stop-color:#DBECF6"/>
				</linearGradient>
				<polygon class="st48" points="391.2,1126.9 391.2,1213.7 435.5,1163.6 435.5,1076.8 				"/>
				<g>
					<linearGradient id="SVGID_50_" gradientUnits="userSpaceOnUse" x1="73.266" y1="1170.3009" x2="391.212" y2="1170.3009">
						<stop  offset="0" style="stop-color:#FFFFFF"/>
						<stop  offset="0.8537" style="stop-color:#DBECF6"/>
					</linearGradient>
					<path class="st49" d="M116.6,1126.9c-23.9,0-43.4,19.5-43.4,43.4c0,23.9,19.5,43.4,43.4,43.4h274.6v-86.7H116.6z"/>
				</g>
				<linearGradient id="SVGID_51_" gradientUnits="userSpaceOnUse" x1="92.0421" y1="1170.3009" x2="391.212" y2="1170.3009">
					<stop  offset="0" style="stop-color:#DBECF6"/>
					<stop  offset="1" style="stop-color:#B5D3E4"/>
				</linearGradient>
				<path class="st50" d="M391.2,1173.7H93.6c-0.9,0-1.6-0.7-1.6-1.6v-3.6c0-0.9,0.7-1.6,1.6-1.6h297.6V1173.7z"/>
				<g>
					<linearGradient id="SVGID_52_" gradientUnits="userSpaceOnUse" x1="391.212" y1="1146.6249" x2="435.511" y2="1146.6249">
						<stop  offset="0" style="stop-color:#DBECF6"/>
						<stop  offset="1" style="stop-color:#B5D3E4"/>
					</linearGradient>
					<polygon class="st51" points="391.2,1173.7 435.5,1126.3 435.5,1119.6 391.2,1166.9 					"/>
					<linearGradient id="SVGID_53_" gradientUnits="userSpaceOnUse" x1="391.212" y1="1160.5974" x2="435.511" y2="1160.5974">
						<stop  offset="0" style="stop-color:#DBECF6"/>
						<stop  offset="1" style="stop-color:#B5D3E4"/>
					</linearGradient>
					<polygon class="st52" points="391.2,1187.6 435.5,1140.3 435.5,1133.5 391.2,1180.9 					"/>
					<linearGradient id="SVGID_54_" gradientUnits="userSpaceOnUse" x1="391.212" y1="1174.5699" x2="435.511" y2="1174.5699">
						<stop  offset="0" style="stop-color:#DBECF6"/>
						<stop  offset="1" style="stop-color:#B5D3E4"/>
					</linearGradient>
					<polygon class="st53" points="391.2,1201.6 435.5,1154.3 435.5,1147.5 391.2,1194.9 					"/>
					<linearGradient id="SVGID_55_" gradientUnits="userSpaceOnUse" x1="391.212" y1="1132.6523" x2="435.511" y2="1132.6523">
						<stop  offset="0" style="stop-color:#DBECF6"/>
						<stop  offset="1" style="stop-color:#B5D3E4"/>
					</linearGradient>
					<polygon class="st54" points="391.2,1159.7 435.5,1112.3 435.5,1105.6 391.2,1153 					"/>
					<linearGradient id="SVGID_56_" gradientUnits="userSpaceOnUse" x1="391.212" y1="1118.6798" x2="435.511" y2="1118.6798">
						<stop  offset="0" style="stop-color:#DBECF6"/>
						<stop  offset="1" style="stop-color:#B5D3E4"/>
					</linearGradient>
					<polygon class="st55" points="391.2,1145.7 435.5,1098.4 435.5,1091.6 391.2,1139 					"/>
				</g>
				<linearGradient id="SVGID_57_" gradientUnits="userSpaceOnUse" x1="98.7875" y1="1156.3284" x2="391.212" y2="1156.3284">
					<stop  offset="0" style="stop-color:#DBECF6"/>
					<stop  offset="1" style="stop-color:#B5D3E4"/>
				</linearGradient>
				<path class="st56" d="M391.2,1159.7H102.2c-1.9,0-3.4-1.5-3.4-3.4l0,0c0-1.9,1.5-3.4,3.4-3.4h289.1V1159.7z"/>
				<linearGradient id="SVGID_58_" gradientUnits="userSpaceOnUse" x1="106.3403" y1="1142.3558" x2="391.212" y2="1142.3558">
					<stop  offset="0" style="stop-color:#DBECF6"/>
					<stop  offset="1" style="stop-color:#B5D3E4"/>
				</linearGradient>
				<path class="st57" d="M391.2,1145.7H109.7c-1.9,0-3.4-1.5-3.4-3.4l0,0c0-1.9,1.5-3.4,3.4-3.4h281.5V1145.7z"/>
				<linearGradient id="SVGID_59_" gradientUnits="userSpaceOnUse" x1="98.7875" y1="1184.2734" x2="391.212" y2="1184.2734">
					<stop  offset="0" style="stop-color:#DBECF6"/>
					<stop  offset="1" style="stop-color:#B5D3E4"/>
				</linearGradient>
				<path class="st58" d="M391.2,1180.9H102.2c-1.9,0-3.4,1.5-3.4,3.4l0,0c0,1.9,1.5,3.4,3.4,3.4h289.1V1180.9z"/>
				<linearGradient id="SVGID_60_" gradientUnits="userSpaceOnUse" x1="106.3403" y1="1198.246" x2="391.212" y2="1198.246">
					<stop  offset="0" style="stop-color:#DBECF6"/>
					<stop  offset="1" style="stop-color:#B5D3E4"/>
				</linearGradient>
				<path class="st59" d="M391.2,1194.9H109.7c-1.9,0-3.4,1.5-3.4,3.4l0,0c0,1.9,1.5,3.4,3.4,3.4h281.5V1194.9z"/>
				<g>
					<linearGradient id="SVGID_61_" gradientUnits="userSpaceOnUse" x1="66.5206" y1="1170.3009" x2="402.4543" y2="1170.3009">
						<stop  offset="0" style="stop-color:#FD825C"/>
						<stop  offset="0.5744" style="stop-color:#F0585F"/>
						<stop  offset="1" style="stop-color:#E73D61"/>
					</linearGradient>
					<path class="st60" d="M402.5,1220.4H116.6c-27.6,0-50.1-22.5-50.1-50.1c0-27.6,22.5-50.1,50.1-50.1h285.8v6.7H116.6
						c-23.9,0-43.4,19.5-43.4,43.4c0,23.9,19.5,43.4,43.4,43.4h285.8V1220.4z"/>
				</g>
				<linearGradient id="SVGID_62_" gradientUnits="userSpaceOnUse" x1="402.4543" y1="1098.511" x2="446.7811" y2="1098.511">
					<stop  offset="0" style="stop-color:#FD825C"/>
					<stop  offset="0.5744" style="stop-color:#F0585F"/>
					<stop  offset="1" style="stop-color:#E73D61"/>
				</linearGradient>
				<polygon class="st61" points="402.5,1120.2 446.8,1070.1 446.8,1076.8 402.5,1126.9 				"/>
				<linearGradient id="SVGID_63_" gradientUnits="userSpaceOnUse" x1="402.4543" y1="1191.9824" x2="446.7811" y2="1191.9824">
					<stop  offset="0" style="stop-color:#FD825C"/>
					<stop  offset="0.5744" style="stop-color:#F0585F"/>
					<stop  offset="1" style="stop-color:#E73D61"/>
				</linearGradient>
				<polygon class="st62" points="402.5,1213.7 446.8,1163.6 446.8,1170.3 402.5,1220.4 				"/>
				<linearGradient id="SVGID_64_" gradientUnits="userSpaceOnUse" x1="79.7392" y1="1103.256" x2="446.7811" y2="1103.256">
					<stop  offset="0" style="stop-color:#FD825C"/>
					<stop  offset="0.5744" style="stop-color:#F0585F"/>
					<stop  offset="1" style="stop-color:#E73D61"/>
				</linearGradient>
				<path class="st63" d="M161,1070.1c-14.9,0-28.3,6.5-37.5,16.9l0,0l-43.8,49.5h0c7.9-8.6,18.9-14.5,31.1-15.9
					c1.9-0.2,3.8-0.3,5.8-0.3h1h284.9l38.4-43.4l6-6.7H161z"/>
				<linearGradient id="SVGID_65_" gradientUnits="userSpaceOnUse" x1="391.212" y1="1188.6097" x2="446.7811" y2="1188.6097">
					<stop  offset="0" style="stop-color:#FD825C"/>
					<stop  offset="0.5744" style="stop-color:#F0585F"/>
					<stop  offset="1" style="stop-color:#E73D61"/>
				</linearGradient>
				<polygon class="st64" points="435.5,1163.6 446.8,1163.6 402.5,1213.7 391.2,1213.7 				"/>
			</g>
			<g>
				<linearGradient id="SVGID_66_" gradientUnits="userSpaceOnUse" x1="437.9655" y1="1036.1083" x2="482.2923" y2="1036.1083">
					<stop  offset="0" style="stop-color:#FFFFFF"/>
					<stop  offset="0.8537" style="stop-color:#DBECF6"/>
				</linearGradient>
				<polygon class="st65" points="438,1017.8 438,1104.5 482.3,1054.4 482.3,967.7 				"/>
				<g>
					<linearGradient id="SVGID_67_" gradientUnits="userSpaceOnUse" x1="120.0195" y1="1061.1626" x2="437.9655" y2="1061.1626">
						<stop  offset="0" style="stop-color:#FFFFFF"/>
						<stop  offset="0.8537" style="stop-color:#DBECF6"/>
					</linearGradient>
					<path class="st66" d="M163.4,1017.8c-23.9,0-43.4,19.5-43.4,43.4c0,23.9,19.5,43.4,43.4,43.4H438v-86.7H163.4z"/>
				</g>
				<g>
					<linearGradient id="SVGID_68_" gradientUnits="userSpaceOnUse" x1="437.9655" y1="1037.4866" x2="482.2643" y2="1037.4866">
						<stop  offset="0" style="stop-color:#DBECF6"/>
						<stop  offset="1" style="stop-color:#B5D3E4"/>
					</linearGradient>
					<polygon class="st67" points="438,1064.5 482.3,1017.2 482.3,1010.4 438,1057.8 					"/>
					<linearGradient id="SVGID_69_" gradientUnits="userSpaceOnUse" x1="437.9655" y1="1051.4591" x2="482.2643" y2="1051.4591">
						<stop  offset="0" style="stop-color:#DBECF6"/>
						<stop  offset="1" style="stop-color:#B5D3E4"/>
					</linearGradient>
					<polygon class="st68" points="438,1078.5 482.3,1031.2 482.3,1024.4 438,1071.8 					"/>
					<linearGradient id="SVGID_70_" gradientUnits="userSpaceOnUse" x1="437.9655" y1="1065.4316" x2="482.2643" y2="1065.4316">
						<stop  offset="0" style="stop-color:#DBECF6"/>
						<stop  offset="1" style="stop-color:#B5D3E4"/>
					</linearGradient>
					<polygon class="st69" points="438,1092.5 482.3,1045.1 482.3,1038.4 438,1085.7 					"/>
					<linearGradient id="SVGID_71_" gradientUnits="userSpaceOnUse" x1="437.9655" y1="1023.514" x2="482.2643" y2="1023.514">
						<stop  offset="0" style="stop-color:#DBECF6"/>
						<stop  offset="1" style="stop-color:#B5D3E4"/>
					</linearGradient>
					<polygon class="st70" points="438,1050.6 482.3,1003.2 482.3,996.5 438,1043.8 					"/>
					<linearGradient id="SVGID_72_" gradientUnits="userSpaceOnUse" x1="437.9655" y1="1009.5414" x2="482.2643" y2="1009.5414">
						<stop  offset="0" style="stop-color:#DBECF6"/>
						<stop  offset="1" style="stop-color:#B5D3E4"/>
					</linearGradient>
					<polygon class="st71" points="438,1036.6 482.3,989.2 482.3,982.5 438,1029.8 					"/>
				</g>
				<g>
					<linearGradient id="SVGID_73_" gradientUnits="userSpaceOnUse" x1="138.7956" y1="1061.1626" x2="437.9655" y2="1061.1626">
						<stop  offset="0" style="stop-color:#DBECF6"/>
						<stop  offset="1" style="stop-color:#B5D3E4"/>
					</linearGradient>
					<path class="st72" d="M438,1064.5H140.4c-0.9,0-1.6-0.7-1.6-1.6v-3.6c0-0.9,0.7-1.6,1.6-1.6H438V1064.5z"/>
					<linearGradient id="SVGID_74_" gradientUnits="userSpaceOnUse" x1="145.541" y1="1047.1901" x2="437.9655" y2="1047.1901">
						<stop  offset="0" style="stop-color:#DBECF6"/>
						<stop  offset="1" style="stop-color:#B5D3E4"/>
					</linearGradient>
					<path class="st73" d="M438,1050.6H148.9c-1.9,0-3.4-1.5-3.4-3.4l0,0c0-1.9,1.5-3.4,3.4-3.4H438V1050.6z"/>
					<linearGradient id="SVGID_75_" gradientUnits="userSpaceOnUse" x1="153.0939" y1="1033.2175" x2="437.9655" y2="1033.2175">
						<stop  offset="0" style="stop-color:#DBECF6"/>
						<stop  offset="1" style="stop-color:#B5D3E4"/>
					</linearGradient>
					<path class="st74" d="M438,1036.6H156.5c-1.9,0-3.4-1.5-3.4-3.4l0,0c0-1.9,1.5-3.4,3.4-3.4H438V1036.6z"/>
					<linearGradient id="SVGID_76_" gradientUnits="userSpaceOnUse" x1="145.541" y1="1075.1351" x2="437.9655" y2="1075.1351">
						<stop  offset="0" style="stop-color:#DBECF6"/>
						<stop  offset="1" style="stop-color:#B5D3E4"/>
					</linearGradient>
					<path class="st75" d="M438,1071.8H148.9c-1.9,0-3.4,1.5-3.4,3.4l0,0c0,1.9,1.5,3.4,3.4,3.4H438V1071.8z"/>
					<linearGradient id="SVGID_77_" gradientUnits="userSpaceOnUse" x1="153.0939" y1="1089.1077" x2="437.9655" y2="1089.1077">
						<stop  offset="0" style="stop-color:#DBECF6"/>
						<stop  offset="1" style="stop-color:#B5D3E4"/>
					</linearGradient>
					<path class="st76" d="M438,1085.7H156.5c-1.9,0-3.4,1.5-3.4,3.4l0,0c0,1.9,1.5,3.4,3.4,3.4H438V1085.7z"/>
				</g>
				<g>
					<linearGradient id="SVGID_78_" gradientUnits="userSpaceOnUse" x1="113.2741" y1="1061.1626" x2="449.2079" y2="1061.1626">
						<stop  offset="0" style="stop-color:#1C436D"/>
						<stop  offset="1" style="stop-color:#1C68A0"/>
					</linearGradient>
					<path class="st77" d="M449.2,1111.3H163.4c-27.6,0-50.1-22.5-50.1-50.1c0-27.6,22.5-50.1,50.1-50.1h285.8v6.7H163.4
						c-23.9,0-43.4,19.5-43.4,43.4c0,23.9,19.5,43.4,43.4,43.4h285.8V1111.3z"/>
				</g>
				<linearGradient id="SVGID_79_" gradientUnits="userSpaceOnUse" x1="449.2079" y1="989.3727" x2="493.5344" y2="989.3727">
					<stop  offset="0" style="stop-color:#1C436D"/>
					<stop  offset="1" style="stop-color:#1C68A0"/>
				</linearGradient>
				<polygon class="st78" points="449.2,1011.1 493.5,960.9 493.5,967.7 449.2,1017.8 				"/>
				<linearGradient id="SVGID_80_" gradientUnits="userSpaceOnUse" x1="496.462" y1="1057.7532" x2="457.0153" y2="1097.2">
					<stop  offset="0" style="stop-color:#1C436D"/>
					<stop  offset="1" style="stop-color:#1C68A0"/>
				</linearGradient>
				<polygon class="st79" points="449.2,1104.5 493.5,1054.4 493.5,1061.2 449.2,1111.3 				"/>
				<linearGradient id="SVGID_81_" gradientUnits="userSpaceOnUse" x1="126.4927" y1="994.1176" x2="493.5346" y2="994.1176">
					<stop  offset="0" style="stop-color:#1C436D"/>
					<stop  offset="1" style="stop-color:#1C68A0"/>
				</linearGradient>
				<path class="st80" d="M207.7,960.9c-14.9,0-28.3,6.5-37.5,16.9l0,0l-43.8,49.5h0c7.9-8.6,18.9-14.5,31.1-15.9
					c1.9-0.2,3.8-0.3,5.8-0.3h1h284.9l38.4-43.4l6-6.7H207.7z"/>
				<linearGradient id="SVGID_82_" gradientUnits="userSpaceOnUse" x1="320.9347" y1="1011.6068" x2="320.9347" y2="910.4125">
					<stop  offset="0" style="stop-color:#DBECF6"/>
					<stop  offset="1" style="stop-color:#78939D"/>
				</linearGradient>
				<ellipse class="st81" cx="320.9" cy="989.3" rx="63.7" ry="15.4"/>
				<linearGradient id="SVGID_83_" gradientUnits="userSpaceOnUse" x1="437.9655" y1="1079.4714" x2="493.5344" y2="1079.4714">
					<stop  offset="0" style="stop-color:#1C436D"/>
					<stop  offset="1" style="stop-color:#1C68A0"/>
				</linearGradient>
				<polygon class="st82" points="482.3,1054.4 493.5,1054.4 449.2,1104.5 438,1104.5 				"/>
			</g>
		</g>
		<linearGradient id="SVGID_84_" gradientUnits="userSpaceOnUse" x1="204.6382" y1="1164.2911" x2="289.5664" y2="1164.2911">
			<stop  offset="0" style="stop-color:#DBECF6"/>
			<stop  offset="1" style="stop-color:#B5D3E4"/>
		</linearGradient>
		<path class="st83" d="M270.2,1329.5l19.4-327.1c0.1-1.8-1.5-3.4-3.3-3.4c-1.3,0-2.3,0.9-2.4,2.2l-2,34h-54l1.9-32.8
			c0.1-1.8-1.5-3.4-3.3-3.4c-1.3,0-2.3,0.9-2.4,2.2l-19.5,328.3h5.8l0.2-3.6h54l-0.2,3.6H270.2z M227.6,1039.8h54l-2.2,36.4h-54
			L227.6,1039.8z M225.2,1080.6h54L277,1117h-54L225.2,1080.6z M222.8,1121.5h54l-2.2,36.4h-54L222.8,1121.5z M220.3,1162.4h54
			l-2.2,36.4h-54L220.3,1162.4z M217.9,1203.3h54l-2.2,36.4h-54L217.9,1203.3z M215.5,1244.2h54l-2.2,36.4h-54L215.5,1244.2z
			 M210.9,1321.4l2.2-36.4h54l-2.2,36.4H210.9z"/>
		<linearGradient id="SVGID_85_" gradientUnits="userSpaceOnUse" x1="147.2718" y1="1177.264" x2="289.0844" y2="1177.264">
			<stop  offset="0" style="stop-color:#1C436D"/>
			<stop  offset="1" style="stop-color:#1C68A0"/>
		</linearGradient>
		<path class="st84" d="M283.5,1001.3l-7.4,34h-54l7.1-32.8c0.4-1.8-1-3.4-2.8-3.4l0,0c-1.3,0-2.5,0.9-2.8,2.2l-76.4,350.8
			c-0.4,1.8,1,3.4,2.8,3.4l0,0c1.3,0,2.5-0.9,2.8-2.2l6-27.3h54l-5.7,26.1c-0.4,1.8,1,3.4,2.8,3.4l0,0c1.3,0,2.5-0.9,2.8-2.2
			l76.4-350.8c0.4-1.8-1-3.4-2.8-3.4l0,0C284.9,999,283.8,1000,283.5,1001.3z M275.1,1039.8l-7.9,36.4h-54l7.9-36.4H275.1z
			 M177.6,1239.7l7.9-36.4h54l-7.9,36.4H177.6z M230.6,1244.2l-7.9,36.4h-54l7.9-36.4H230.6z M186.5,1198.8l7.9-36.4h54l-7.9,36.4
			H186.5z M195.4,1157.9l7.9-36.4h54l-7.9,36.4H195.4z M204.3,1117l7.9-36.4h54l-7.9,36.4H204.3z M159.8,1321.4l7.9-36.4h54
			l-7.9,36.4H159.8z"/>
		<linearGradient id="SVGID_86_" gradientUnits="userSpaceOnUse" x1="867.4914" y1="1088.4735" x2="895.7889" y2="1088.4735">
			<stop  offset="0" style="stop-color:#FD825C"/>
			<stop  offset="1" style="stop-color:#E73D61"/>
		</linearGradient>
		<path class="st85" d="M878.1,1127.7c-0.7,0-1.2-0.5-1.6-1c-3.4-3.6-5.5-8.3-6.8-13.1c-1.3-4.8-1.7-9.8-2-14.7
			c-0.4-7.7-0.5-15.6,1.8-23c2.3-7.1,1.1-19.4,2.9-26.6c16.9,6.7,23.1,31.6,23.3,35.2c0.2,3.5-1,6.9-2.3,10.2
			c-3.9,10.6-8,21.1-13.2,31.1C879.9,1126.7,879.2,1127.7,878.1,1127.7z"/>
		<g>
			<linearGradient id="SVGID_87_" gradientUnits="userSpaceOnUse" x1="537.0117" y1="711.0096" x2="537.0117" y2="771.4621">
				<stop  offset="0" style="stop-color:#1C436D"/>
				<stop  offset="1" style="stop-color:#1C68A0"/>
			</linearGradient>
			<path class="st86" d="M459.1,685.9v67.6l0,0c0,7.3,34.9,23.2,77.9,23.2c43,0,77.9-15.9,77.9-23.2v-67.6H459.1z"/>
			<linearGradient id="SVGID_88_" gradientUnits="userSpaceOnUse" x1="537.0118" y1="713.1589" x2="537.0118" y2="634.9604">
				<stop  offset="0" style="stop-color:#1C436D"/>
				<stop  offset="1" style="stop-color:#1C68A0"/>
			</linearGradient>
			<polygon class="st87" points="537,626.2 400.3,673 537,719.7 673.7,673 			"/>
			<linearGradient id="SVGID_89_" gradientUnits="userSpaceOnUse" x1="411.6326" y1="699.5687" x2="647.9297" y2="699.5687">
				<stop  offset="0" style="stop-color:#1C436D"/>
				<stop  offset="1" style="stop-color:#1C68A0"/>
			</linearGradient>
			<polygon class="st88" points="673.7,673 673.7,679.4 537,726.2 537,719.7 			"/>
			<linearGradient id="SVGID_90_" gradientUnits="userSpaceOnUse" x1="347.8503" y1="699.5687" x2="518.8445" y2="699.5687">
				<stop  offset="0" style="stop-color:#1C436D"/>
				<stop  offset="1" style="stop-color:#1C68A0"/>
			</linearGradient>
			<polygon class="st89" points="400.3,673 537,719.7 537,726.2 400.3,679.4 			"/>
			<g>
				<linearGradient id="SVGID_91_" gradientUnits="userSpaceOnUse" x1="528.2794" y1="700.6962" x2="408.7328" y2="700.6962">
					<stop  offset="0" style="stop-color:#1C436D"/>
					<stop  offset="1" style="stop-color:#1C68A0"/>
				</linearGradient>
				<path class="st90" d="M400.3,731.4c-0.9,0-1.7-0.7-1.7-1.7v-58.1c0-0.9,0.7-1.7,1.7-1.7H537c0.9,0,1.7,0.7,1.7,1.7
					c0,0.9-0.7,1.7-1.7,1.7H402v56.4C402,730.7,401.3,731.4,400.3,731.4z"/>
			</g>
			<linearGradient id="SVGID_92_" gradientUnits="userSpaceOnUse" x1="392.4303" y1="728.7856" x2="408.2323" y2="728.7856">
				<stop  offset="0" style="stop-color:#FCB331"/>
				<stop  offset="1" style="stop-color:#FDD632"/>
			</linearGradient>
			<path class="st91" d="M405.6,731.4H395c-1.4,0-2.6-1.2-2.6-2.6l0,0c0-1.4,1.2-2.6,2.6-2.6h10.6c1.4,0,2.6,1.2,2.6,2.6l0,0
				C408.2,730.2,407.1,731.4,405.6,731.4z"/>
			<linearGradient id="SVGID_93_" gradientUnits="userSpaceOnUse" x1="400.3313" y1="731.0782" x2="400.3313" y2="746.054">
				<stop  offset="0" style="stop-color:#1C436D"/>
				<stop  offset="1" style="stop-color:#1C68A0"/>
			</linearGradient>
			<polygon class="st92" points="405.6,731.4 395,731.4 389.6,750.1 411,750.1 			"/>
			<linearGradient id="SVGID_94_" gradientUnits="userSpaceOnUse" x1="537.012" y1="673.6232" x2="537.012" y2="664.2185">
				<stop  offset="0" style="stop-color:#FCB331"/>
				<stop  offset="1" style="stop-color:#FDD632"/>
			</linearGradient>
			<path class="st93" d="M546.9,671.7c0,2.5-4.4,4.5-9.9,4.5s-9.9-2-9.9-4.5s4.4-4.5,9.9-4.5S546.9,669.2,546.9,671.7z"/>
		</g>
		<g>
			<linearGradient id="SVGID_95_" gradientUnits="userSpaceOnUse" x1="332.9225" y1="971.9523" x2="332.9225" y2="980.4164">
				<stop  offset="0" style="stop-color:#FFAF8D"/>
				<stop  offset="1" style="stop-color:#FDC892"/>
			</linearGradient>
			<path class="st94" d="M338.4,971.1c-0.1-0.4-0.2-0.8-0.5-1c-0.2-0.2-0.5-0.1-0.8-0.1c-3.4,0.3-6.7,0.6-10.1,0.9
				c0.7,1.7,0.6,3.7,0.6,5.6c0,1.9,0.3,4,1.7,5.1c1.1,1,2.7,1,4.1,0.9c0.8,0,1.7,0,2.5-0.3c0.8-0.2,1.6-0.7,2.1-1.4
				c0.6-0.9,0.8-2,0.8-3.2C338.9,975.5,338.8,973.3,338.4,971.1z"/>
			<linearGradient id="SVGID_96_" gradientUnits="userSpaceOnUse" x1="332.5342" y1="985.6663" x2="359.4242" y2="985.6663">
				<stop  offset="0" style="stop-color:#311C55"/>
				<stop  offset="0.9973" style="stop-color:#4C2652"/>
			</linearGradient>
			<path class="st95" d="M326.1,991c-1-4.6-0.4-9.6,1.4-14c1.6,1.6,3.7,2.4,5.8,2.4c2.1,0,4.2-1,5.7-2.6c0.6-0.6,1.5,0.4,2,1.1
				c0.5,0.8,0.8,1.7,1.2,2.4c1,1.6,2.9,2.3,4.7,2.4s3.6-0.1,5.3,0.2c0.9,0.1,1.8,0.4,2.5,1c1.2,0.9,1.8,2.5,2,4.1
				c0.2,1.6-0.1,3.2-0.3,4.8c-6.4,2.5-13.4,1.9-20.1,0.7C332.9,992.9,329.5,991.9,326.1,991z"/>
			<linearGradient id="SVGID_97_" gradientUnits="userSpaceOnUse" x1="295.188" y1="967.1666" x2="295.188" y2="974.9286">
				<stop  offset="0" style="stop-color:#FFAF8D"/>
				<stop  offset="1" style="stop-color:#FDC892"/>
			</linearGradient>
			<path class="st96" d="M300.9,966.7c0-0.4-1.8,0.7-2.1,0.7c-3.3,0.3-6-1.7-9.2-1.4c0.2,1.6-0.1,6.3-0.1,8.1c0,1.8,0.4,3.3,1.7,4.5
				c1.1,0.9,2.6,0.9,3.9,0.9c0.8,0,1.6,0,2.4-0.3c0.8-0.2,1.6-0.7,2.1-1.4c0.6-0.9,0.7-2,0.8-3.1
				C300.6,972.8,300.5,969.5,300.9,966.7z"/>
			<linearGradient id="SVGID_98_" gradientUnits="userSpaceOnUse" x1="287.6448" y1="981.0307" x2="317.8795" y2="981.0307">
				<stop  offset="0" style="stop-color:#311C55"/>
				<stop  offset="0.9973" style="stop-color:#4C2652"/>
			</linearGradient>
			<path class="st97" d="M288.1,987.7c-1-4.5-0.4-9.3,1.4-13.5c1.5,1.5,3.5,2.4,5.6,2.3s4-0.9,5.5-2.5c0.6-0.6,1.5,0.3,2,1.1
				c0.5,0.7,4,0.6,5.7,0.8c1.7,0.2,3.5-0.1,5.2,0.2c0.9,0.1,1.7,0.4,2.4,0.9c1.1,0.9,1.7,2.5,1.9,4s-0.1,3.1-0.3,4.6
				C311.4,988.1,291.4,988.7,288.1,987.7z"/>
			<linearGradient id="SVGID_99_" gradientUnits="userSpaceOnUse" x1="295.7197" y1="896.3304" x2="295.7197" y2="972.2527">
				<stop  offset="0" style="stop-color:#311C55"/>
				<stop  offset="0.9973" style="stop-color:#4C2652"/>
			</linearGradient>
			<path class="st98" d="M280.1,837.4c-3.2,8.9-3.6,6.8-2.6,16.4c1,9.6,8.6,31.7,10.1,41.2c3.9,23.8,3.7,48.5-0.6,72.2
				c6.1,2.1,12.9,2,19.1,0.2c1.9-12.6,3.7-25.3,5.6-37.9c1.4-9.5,2.9-19,2.7-28.6c-0.1-11.9-2.7-23.6-2.5-35.5
				c0.1-7.6,1.2-15.3-0.2-22.7c-0.3-1.6-0.8-3.3-1.9-4.3c-2.2-2-5.4-0.7-8.1,0.3C296.1,840.6,285.8,838.8,280.1,837.4z"/>
			<linearGradient id="SVGID_100_" gradientUnits="userSpaceOnUse" x1="314.8633" y1="962.9438" x2="314.8633" y2="884.3441">
				<stop  offset="0" style="stop-color:#311C55"/>
				<stop  offset="0.9973" style="stop-color:#4C2652"/>
			</linearGradient>
			<path class="st99" d="M285.4,844.2c-0.4,9.6,4.3,18.4,8.7,26.7c8.2,15.3,16.2,31,21.8,47.8c5.6,16.8,8.8,34.8,7.4,52.7
				c6.5,2.1,13.4,1.7,19.6-1.2c4.8-34.6-2.6-70-9.1-104.3c-1.9-10-4-20.5-9.7-28.5c-4,5.1-10.1,8.3-15.9,9.8c-5.9,1.5-12,1.4-18,0.5
				c-1.1-0.2-2.2-0.4-3.1-1C286.1,846.1,285.4,845.4,285.4,844.2z"/>
			<linearGradient id="SVGID_101_" gradientUnits="userSpaceOnUse" x1="299.0982" y1="757.04" x2="299.0982" y2="700.8387">
				<stop  offset="0" style="stop-color:#FFAF8D"/>
				<stop  offset="1" style="stop-color:#FDC892"/>
			</linearGradient>
			<path class="st100" d="M284.2,748.8c1.1-3.9,1.4-5.3,1.2-8.8c-0.3-6-2.4-12.2-2-18.2c0.3-4.3,0.9-8.6,2.8-12.4
				c1.9-3.8,5.2-7.1,9.3-8.2c4.1-1.1,10.2,0.4,12.3,4.1c1.4,2.6,0.8,4.4,1.6,7.2c0.8,2.9,1.4,4.9,3.6,6.9c1.1,1,2.4,2.3,1.8,3.7
				c-0.5,1.1-2,1.3-3,2.1c-1.2,1,0.3,3.8,0.8,5.3c0.5,1.4,0.3,3.8,0.7,5.3c0.4,1.5-0.2,2.5-1.5,3.3c-1.7,1-3.9,0.1-5.7,1
				c-1.8,0.8-2.1,8.6-1.7,10.5c0.5,2,1.8-0.9,1.4,1.1c-0.6,2.7-3.5,4.3-6.2,4.9c-3,0.7-6.1,0.7-9,0c-1.7-0.4-3.4-1.1-4.5-2.5
				C285.1,753,283.8,750.2,284.2,748.8z"/>
			<path d="M293.3,727.3c-2.3-0.9-4.1-3-4.4-5.5c-0.4-2.4,0.7-5,2.6-6.5c0.6-0.5,1.3-0.8,2.1-0.8c0.9,0.1,1.5,0.9,1.5,1.7
				c-0.1,1.7,0.8,3.2,2,4.5c0.5,0.6,1.3,0.7,2,0.3c0,0,0,0,0,0c0.7-0.4,1-1.3,0.7-2c-0.7-1.7-1.3-3.4-1.1-5.3c0.1-0.7,0.3-1.4,0.7-2
				c2.8-4.3,9.2-0.4,12.3-4.3c0.7-0.8,1-1.9,1-3c-0.1-2.9-2.2-5.1-4.8-6.1c-2-0.8-4.3-1-6.5-0.9c-4.2,0.1-8.5,0.8-12.5,2.2
				c-3.2,1.1-6.4,2.5-8.8,5c-4,4.2-5.4,10.3-5.1,16.1c0.3,5.4,3.7,15.3,10.2,22.1c2.1-0.3,2.1-0.4,4.2-0.9c1.1-0.3,2.2-0.6,3.1-1.3
				c1-0.8,1.7-2.1,1.3-3.3c-0.3-1.2-0.9-5.5-0.3-6.5C294.1,729.8,294.4,727.8,293.3,727.3z"/>
			<linearGradient id="SVGID_102_" gradientUnits="userSpaceOnUse" x1="276.3608" y1="764.9344" x2="276.3608" y2="797.2565">
				<stop  offset="0" style="stop-color:#0CA1EF"/>
				<stop  offset="0.9973" style="stop-color:#007DD4"/>
			</linearGradient>
			<path class="st101" d="M280.2,834.4c0.7,0,1.3-0.6,1.8-1.1c3.7-3.9,6.1-9,7.4-14.3c1.4-5.2,1.8-10.7,2.1-16.1
				c0.5-8.4,0.6-17.1-2-25.1c-2.5-7.8-3.4-21.2-5.4-29.1c-10.9,5.3-21.5,27-23.2,38.5c-0.6,3.8,1.1,7.5,2.5,11.1
				c4.2,11.5,8.7,23,14.4,33.9C278.3,833.3,279.1,834.5,280.2,834.4z"/>
			<linearGradient id="SVGID_103_" gradientUnits="userSpaceOnUse" x1="391.1999" y1="738.0933" x2="391.1999" y2="700.3719">
				<stop  offset="0" style="stop-color:#FFAF8D"/>
				<stop  offset="1" style="stop-color:#FDC892"/>
			</linearGradient>
			<path class="st102" d="M377.6,730.6c3.1-4.1,5.5-8.8,8.1-13.3c2.6-4.5,5.3-9,8.9-12.7c3.6-3.7,9.2-5,9.9-3.9
				c0.7,1.1-0.2,3.9-2.6,6.2c-1.2,1.1-3.9,4.5-2.9,5.9c1.7,2.5,2.1,7,0.2,9.5c-1.6,2.1-4.6,2.7-6.7,4.3c-3.3,2.6-5.8,7.5-8,11.4
				c-1.7-0.6-2.9-3.1-4.2-4.4C379.7,732.6,378.7,731.4,377.6,730.6z"/>
			<linearGradient id="SVGID_104_" gradientUnits="userSpaceOnUse" x1="329.9075" y1="756.1246" x2="329.9075" y2="859.4798">
				<stop  offset="0" style="stop-color:#0CA1EF"/>
				<stop  offset="0.9973" style="stop-color:#0787E5"/>
			</linearGradient>
			<path class="st103" d="M328.4,782.4c0.6-1.1,2-1.3,3.2-1.5c24-4,46.1-21.4,55.1-44c-1.4-4-5-7.2-9.2-7.9
				c-7.1,8.4-24.8,21.1-27.4,22.1c-4,1.7-7.9,3.4-12.1,4.3c-4.2,0.9-8.7,1.1-12.7-0.3c-2.8-0.9-15.4-4.2-21.2-5.5
				c-7,2.2-13.1,1.8-20-0.7c-2.1,1-4.1,2.3-5.7,4c-2.2,2.3-4.1,5.2-5,8.7c-2.2,9.1,4.3,65-0.2,88.7c-0.7,3.7,14.8,6.3,18.5,6.6
				c9.8,0.7,20.9-1.8,28.9-5.3c2.4-1.1,12.4-6.4,11.8-9C330.4,834.4,327.8,783.5,328.4,782.4z"/>
		</g>
		<g>
			<g>
				<linearGradient id="SVGID_105_" gradientUnits="userSpaceOnUse" x1="735.996" y1="975.9658" x2="642.5848" y2="1005.0376">
					<stop  offset="0" style="stop-color:#FFFFFF"/>
					<stop  offset="0.3424" style="stop-color:#FBFDFE"/>
					<stop  offset="0.6612" style="stop-color:#F0F7FB"/>
					<stop  offset="0.9697" style="stop-color:#DDEDF7"/>
					<stop  offset="1" style="stop-color:#DBECF6"/>
				</linearGradient>
				<path class="st104" d="M749,951.3c-2.2-3.7-5.1-6.2-8.3-8.5c-0.4-0.1-0.9-0.2-1.4-0.5c-15.6-9.9-32.5-22.8-51.8-23.5
					c-10.2-0.4-18.7,2.7-27.7,7.4c-8.3,4.4-16.9,8.5-23.8,14.9c-10.5,9.8-22.8,22.4-23.7,37.5c-0.8,13.7,1.3,29.1,5.8,42.1
					c4.9,14,13.7,27.6,27.5,34.2c13.6,6.5,29.1,6.6,43.9,6.4c12.6-0.2,25.2-1.2,35.6-9c11.1-8.3,18.5-21.7,23.5-34.4
					c5.7-14.6,7.6-29.3,6.2-44.9C754.1,965.6,752.7,957.6,749,951.3z"/>
				<linearGradient id="SVGID_106_" gradientUnits="userSpaceOnUse" x1="519.3389" y1="1002.4677" x2="918.7123" y2="1002.4677">
					<stop  offset="0" style="stop-color:#DBECF6"/>
					<stop  offset="1" style="stop-color:#B5D3E4"/>
				</linearGradient>
				<path class="st105" d="M666.1,994.6c-18.3,3.2-35.8,6.7-52,10.3c1,5.4,2.4,10.7,4.1,15.6c0.2,0.4,0.3,0.9,0.5,1.3
					c39.7-8.7,87.1-17.1,134.8-21c1.1-5.8,1.7-11.7,1.7-17.7C727.5,985.3,697.8,989.1,666.1,994.6z"/>
			</g>
			<g>
				<linearGradient id="SVGID_107_" gradientUnits="userSpaceOnUse" x1="780.7939" y1="1108.201" x2="780.7939" y2="1090.4535">
					<stop  offset="0" style="stop-color:#FFAF8D"/>
					<stop  offset="1" style="stop-color:#FDC892"/>
				</linearGradient>
				<path class="st106" d="M776.3,1081c1-0.4,2.3-0.4,3.1,0.3c1,0.8,1.1,2.2,1,3.4c-0.1,1.2-0.4,2.5-0.2,3.7
					c0.5,2.1,2.6,3.4,4.5,4.4c1.9,1,4,2.3,4.6,4.4c0.6,2.2-1,4.5-3.1,5.3c-2.1,0.8-4.5,0.2-6.4-1c-1.9-1.2-3.3-3.1-4.5-4.9
					c-1.7-2.5-3.1-5.3-3.3-8.3C772,1085.3,773.5,1082,776.3,1081z"/>
				<linearGradient id="SVGID_108_" gradientUnits="userSpaceOnUse" x1="787.5313" y1="1071.5886" x2="746.6935" y2="1030.751">
					<stop  offset="0" style="stop-color:#1C436D"/>
					<stop  offset="1" style="stop-color:#1C68A0"/>
				</linearGradient>
				<polygon class="st107" points="792.7,1055.9 780.7,1072.5 733.3,1038.2 745.3,1021.6 				"/>
				<linearGradient id="SVGID_109_" gradientUnits="userSpaceOnUse" x1="798.9296" y1="1062.5481" x2="878.8859" y2="1142.5044">
					<stop  offset="0" style="stop-color:#311C55"/>
					<stop  offset="0.9973" style="stop-color:#4C2652"/>
				</linearGradient>
				<path class="st108" d="M799.6,1046.4l-25.9,35.7c-0.7,1-0.5,2.3,0.5,3l97.9,71c1,0.7,2.3,0.5,3-0.5l25.9-35.7
					c0.7-1,0.5-2.3-0.5-3l-97.9-71C801.7,1045.2,800.3,1045.4,799.6,1046.4z"/>
				<linearGradient id="SVGID_110_" gradientUnits="userSpaceOnUse" x1="683.8641" y1="1073.9946" x2="683.8641" y2="910.8531">
					<stop  offset="0" style="stop-color:#1C436D"/>
					<stop  offset="1" style="stop-color:#1C68A0"/>
				</linearGradient>
				<path class="st109" d="M733.5,921.2c-37.8-27.4-90.7-19-118.2,18.8c-27.4,37.8-19,90.7,18.8,118.2c37.8,27.4,90.7,19,118.2-18.8
					C779.8,1001.5,771.4,948.6,733.5,921.2z M736.5,1027.8c-21.1,29.1-61.7,35.5-90.8,14.5c-29.1-21.1-35.5-61.7-14.5-90.8
					C652.3,922.4,693,916,722,937C751.1,958.1,757.6,998.8,736.5,1027.8z"/>
				<g>
					<path class="st110" d="M671.1,948.8c-2.7,0-5.1-1.8-5.8-4.5c-0.9-3.2,1-6.5,4.2-7.4c5.3-1.4,10.8-2.1,16.2-1.9
						c3.3,0.1,6,2.9,5.8,6.2c-0.1,3.3-2.9,6-6.2,5.8c-4.3-0.1-8.5,0.4-12.7,1.5C672.1,948.7,671.6,948.8,671.1,948.8z"/>
				</g>
				<g>
					<path class="st110" d="M635.7,988.5c-0.3,0-0.6,0-0.9-0.1c-3.3-0.5-5.6-3.6-5.1-6.9c2.1-14.1,10-27.2,21.6-35.9
						c2.7-2,6.5-1.5,8.5,1.2c2,2.7,1.5,6.5-1.2,8.5c-9.1,6.8-15.2,17-16.8,28C641.3,986.4,638.7,988.5,635.7,988.5z"/>
				</g>
			</g>
			<g>
				<linearGradient id="SVGID_111_" gradientUnits="userSpaceOnUse" x1="818.92" y1="1292.4341" x2="818.92" y2="1278.9956">
					<stop  offset="0" style="stop-color:#FFAF8D"/>
					<stop  offset="1" style="stop-color:#FDC892"/>
				</linearGradient>
				<path class="st111" d="M813,1280.2c0.1-0.4,0.2-0.8,0.5-1.1c0.3-0.2,0.6-0.1,0.9-0.1c3.7,0.4,7.3,0.7,11,1.1
					c-0.3,2.2-0.6,6.5-0.6,6.5c0,2-0.5,3.7-2,4.9c-1.2,1-2.9,1-4.5,0.9c-0.9,0-1.9-0.1-2.8-0.3c-0.9-0.3-1.8-0.8-2.3-1.6
					c-0.7-0.9-0.8-2.2-0.9-3.4C812.3,1284.8,812.5,1282.5,813,1280.2z"/>
				<linearGradient id="SVGID_112_" gradientUnits="userSpaceOnUse" x1="808.517" y1="1289.0664" x2="808.517" y2="1314.4429">
					<stop  offset="0" style="stop-color:#311C55"/>
					<stop  offset="0.9973" style="stop-color:#4C2652"/>
				</linearGradient>
				<path class="st112" d="M826.2,1301.5c1.2-4.9,0.6-10.3-1.4-14.9c-1.7,1.6-4,2.5-6.3,2.5c-2.3-0.1-4.5-1.1-6.2-2.8
					c-0.7-0.7-1.7,0.4-2.2,1.2c-0.6,0.8-0.9,1.8-1.4,2.6c-1.2,1.7-5.6,2.4-7.5,2.5c-1.9,0.1-3.9-0.2-5.8,0.1c-1,0.1-2,0.4-2.8,1
					c-1.3,1-2,2.7-2.2,4.4c-0.2,1.7,0,3.4,0.3,5.1c6.6,1.7,22.8,2.1,30.1,0.8C824.5,1303.4,825.4,1303,826.2,1301.5z"/>
				<linearGradient id="SVGID_113_" gradientUnits="userSpaceOnUse" x1="865.5449" y1="1283.7717" x2="865.5449" y2="1269.634">
					<stop  offset="0" style="stop-color:#FFAF8D"/>
					<stop  offset="1" style="stop-color:#FDC892"/>
				</linearGradient>
				<path class="st113" d="M859.2,1270.4c-0.1-0.4,8.3-1,11.7-0.7c0.1,2.1,0.9,8.6,0.9,8.6c0,1.9-0.5,3.4-1.9,4.5
					c-1.2,0.9-2.7,0.9-4.1,0.9c-0.9,0-1.7-0.1-2.6-0.3c-0.8-0.2-1.6-0.7-2.2-1.5c-0.6-0.9-0.7-2-0.8-3.1
					C860.2,1276.7,859.7,1272.9,859.2,1270.4z"/>
				<linearGradient id="SVGID_114_" gradientUnits="userSpaceOnUse" x1="857.7756" y1="1279.6361" x2="857.7756" y2="1295.9475">
					<stop  offset="0" style="stop-color:#311C55"/>
					<stop  offset="0.9973" style="stop-color:#4C2652"/>
				</linearGradient>
				<path class="st114" d="M873.1,1292.2c1.1-4.6,0.5-9.5-1.3-13.9c-1.6,1.5-3.8,2.4-5.9,2.3c-2.1-0.1-4.2-1-5.8-2.6
					c-0.6-0.6-1.6,0.3-2.1,1.1c-0.5,0.7-9.7,2.3-11.5,2.5c-0.9,0.1-1.8,0.4-2.6,0.9c-1.2,0.9-1.9,2.5-2,4.1c-0.2,1.6,0,3.2,0.3,4.8
					C851.1,1294,869.6,1293.1,873.1,1292.2z"/>
				<linearGradient id="SVGID_115_" gradientUnits="userSpaceOnUse" x1="863.8506" y1="1165.4523" x2="863.8506" y2="1241.5425">
					<stop  offset="0" style="stop-color:#311C55"/>
					<stop  offset="0.9973" style="stop-color:#4C2652"/>
				</linearGradient>
				<path class="st115" d="M878.2,1139.1c3.3,9.2,3.4,19.4,2.2,29.2c-1.2,9.8-3.7,19.3-5.4,29c-4.5,24.3-4.6,49.6-0.4,73.9
					c-6.5,2-13.6,1.9-20.1-0.1c-1.8-12.9-3.5-26-5.4-38.9c-1.4-9.7-2.7-19.5-2.5-29.3c0.3-12.2,3.1-24.1,3.2-36.3
					c0-7.8-1.1-15.7,0.5-23.3c0.3-1.6,0.9-3.4,2.1-4.4c2.3-2.1,5.7-0.7,8.5,0.4C866.7,1141.5,872.1,1140.5,878.2,1139.1z"/>
				<linearGradient id="SVGID_116_" gradientUnits="userSpaceOnUse" x1="840.4582" y1="1149.8861" x2="840.4582" y2="1217.0021">
					<stop  offset="0" style="stop-color:#311C55"/>
					<stop  offset="0.9973" style="stop-color:#4C2652"/>
				</linearGradient>
				<path class="st116" d="M872.8,1145.6c0.3,10.3-4.9,19.6-9.9,28.3c-9.2,16.2-28.6,67.3-33.3,106.7c-7.1,2.2-14.7,1.6-21.5-1.6
					c4.3-47.3,16.2-132.9,22.5-141.3c4.3,5.5,10.9,9,17.3,10.7c6.4,1.7,13.1,1.7,19.7,0.8c1.2-0.2,2.4-0.4,3.4-1
					C872,1147.6,872.8,1146.9,872.8,1145.6z"/>
				<linearGradient id="SVGID_117_" gradientUnits="userSpaceOnUse" x1="858.7214" y1="1057.5975" x2="858.7214" y2="1001.315">
					<stop  offset="0" style="stop-color:#FFAF8D"/>
					<stop  offset="1" style="stop-color:#FDC892"/>
				</linearGradient>
				<path class="st117" d="M872.8,1050.7c-0.8-3.6-1.3-7-1.1-10.5c0.3-6,3.4-11.9,3-17.9c-0.3-4.3-0.9-8.6-2.8-12.4
					s-5.2-7.1-9.3-8.2c-4.1-1.1-9,0.5-11.1,4.2c-1.4,2.6-1.4,5.7-2.2,8.5c-0.8,2.9-2.4,5.6-4.6,7.7c-1.1,1-2.4,2.3-1.8,3.7
					c0.5,1.1,2,1.3,3,2.1c1.2,1,1.2,2.8,0.7,4.2c-0.5,1.4-1.4,2.7-1.8,4.2c-0.4,1.5-0.2,3.3,1.1,4.1c1.7,1,4-0.2,5.8,0.6
					c1.8,0.8,2.7,7.4,2.2,9.3c-0.5,2-0.1,4.2,0.3,6.2c0.6,2.7,1.5,0,4.2,0.7c3,0.7,6.1,0.7,9,0c1.7-0.4,3.4-1.1,4.5-2.5
					C873,1053.4,873.1,1052.1,872.8,1050.7z"/>
				<path d="M864.7,1027.8c2.3-0.9,4.1-3,4.4-5.5c0.4-2.4-0.7-5-2.6-6.5c-0.6-0.5-1.3-0.8-2.1-0.8c-0.9,0.1-1.5,0.9-1.5,1.7
					c0.1,1.7-0.8,3.2-2,4.5c-0.5,0.6-1.3,0.7-2,0.3c0,0,0,0,0,0c-0.7-0.4-1-1.3-0.7-2c0.7-1.7,1.3-3.4,1.1-5.3
					c-0.1-0.7-0.3-1.4-0.7-2c-2.8-4.3-9.2-0.4-12.3-4.3c-0.7-0.8-1-1.9-1-3c0.1-2.9,2.2-5.1,4.8-6.1c2-0.8,4.3-1,6.5-0.9
					c4.2,0.1,8.5,0.8,12.5,2.2c3.2,1.1,6.4,2.5,8.8,5c4,4.2,4.8,10.6,4.3,16.3c-0.5,5.8-5.1,10.4-5.8,16.2c-0.5,3.6-3.6,5.7-5.7,5.2
					c-1.1-0.3-4.3-1.1-5.2-1.8c-1-0.8-1.7-2.1-1.3-3.3C864.7,1036.6,863.6,1028.2,864.7,1027.8z"/>
				<linearGradient id="SVGID_118_" gradientUnits="userSpaceOnUse" x1="781.8627" y1="1098.5056" x2="781.8627" y2="1084.7513">
					<stop  offset="0" style="stop-color:#FFAF8D"/>
					<stop  offset="1" style="stop-color:#FDC892"/>
				</linearGradient>
				<path class="st118" d="M777,1096.6c0.4,1.5,0.9,3,1.9,4.1c1.5,1.8,4,2.5,6.3,2.3c1.3-0.1,2.8-0.6,3.4-1.8
					c0.5-1.2-0.1-2.7-1.1-3.6c-2.1-2.1-5.7-2.5-7.3-5c-0.5-0.7-0.8-1.6-1.2-2.3c-0.4-0.8-1-1.5-1.8-1.8c-0.8-0.3-1.9,0.2-2.1,1
					c-0.1,0.4,0,0.8,0.2,1.2C775.8,1092.7,776.4,1094.7,777,1096.6z"/>
				<linearGradient id="SVGID_119_" gradientUnits="userSpaceOnUse" x1="826.4052" y1="1036.6399" x2="848.7747" y2="1169.8168">
					<stop  offset="0" style="stop-color:#FD825C"/>
					<stop  offset="0.5744" style="stop-color:#F0585F"/>
					<stop  offset="1" style="stop-color:#E73D61"/>
				</linearGradient>
				<path class="st119" d="M884.9,1061c-3.3-8.8-10.4-10.7-12.4-11.7c-6.9,2.5-11.4,2.2-18.4,0c-5,0.5-12,3.5-15.2,7
					c-4.5,4.1-9.5,10.3-15.4,18.4c-13,17.5-28.7,20.5-36.3,19.8c0,0-5.2,4.1-4.1,8.8c0,0,24.1,7.6,47.9-9.4
					c-2.9,17.2-6,34.1-8.8,55.2c17,9.5,51.9,12.6,61.9,3.4C879.5,1128.8,888.2,1069.7,884.9,1061z"/>
			</g>
		</g>
		<g>
			
				<linearGradient id="SVGID_120_" gradientUnits="userSpaceOnUse" x1="518.4677" y1="1342.7096" x2="518.4677" y2="1266.339" gradientTransform="matrix(0.9667 2.840000e-02 -2.940000e-02 0.9996 47.3937 -14.8854)">
				<stop  offset="0" style="stop-color:#FFAF8D"/>
				<stop  offset="1" style="stop-color:#FDC892"/>
			</linearGradient>
			<path class="st120" d="M519.9,1265.9l1.7,4.9l-4,71.4l-8.5-0.2c0,0-3.3-37.8-3.3-52l-4.9-21.5L519.9,1265.9z"/>
			<linearGradient id="SVGID_121_" gradientUnits="userSpaceOnUse" x1="505.2956" y1="1349.8082" x2="538.4336" y2="1349.8082">
				<stop  offset="0" style="stop-color:#311C55"/>
				<stop  offset="0.9973" style="stop-color:#4C2652"/>
			</linearGradient>
			<path class="st121" d="M508.9,1340.1c0,0,2.2,2.5,8.8,0.9c3.3,6.4,9.8,11.1,16.5,13c1.1,0.3,2.3,0.6,3.2,1.3
				c0.9,0.8,1.4,2.2,0.7,3.2c-0.7,1-2,1-3.2,1c-4-0.2-8-0.4-12-0.6c-1.7-0.1-10.4-0.4-14.8-0.6c-1.1,0-2.1-1-2-2.2
				c0.2-3.1-1.2-6.4-0.8-9.6C505.6,1344.1,507,1341.5,508.9,1340.1z"/>
			
				<linearGradient id="SVGID_122_" gradientUnits="userSpaceOnUse" x1="542.9006" y1="1347.4244" x2="542.9006" y2="1266.3391" gradientTransform="matrix(0.9667 2.840000e-02 -2.940000e-02 0.9996 47.3937 -14.8854)">
				<stop  offset="0" style="stop-color:#FFAF8D"/>
				<stop  offset="1" style="stop-color:#FDC892"/>
			</linearGradient>
			<path class="st122" d="M544,1266.6l1.8,5.2l-4.2,75.8l-9-0.3c0,0-5.5-42.4-5.6-57.4l-3.1-20.6L544,1266.6z"/>
			
				<linearGradient id="SVGID_123_" gradientUnits="userSpaceOnUse" x1="521.2264" y1="1202.1216" x2="521.2264" y2="1271.8613" gradientTransform="matrix(0.9671 -1.000000e-03 -1.000000e-03 1 17.4088 0.4674)">
				<stop  offset="0" style="stop-color:#311C55"/>
				<stop  offset="0.9973" style="stop-color:#4C2652"/>
			</linearGradient>
			<path class="st123" d="M494.9,1207.6c0,0-6.1,33.6,1.8,66.1c0,0,27.5,6.6,51-2.6c0,0,0-45.5-5.4-64.8L494.9,1207.6z"/>
			<linearGradient id="SVGID_124_" gradientUnits="userSpaceOnUse" x1="528.5402" y1="1355.6964" x2="563.7241" y2="1355.6964">
				<stop  offset="0" style="stop-color:#311C55"/>
				<stop  offset="0.9973" style="stop-color:#4C2652"/>
			</linearGradient>
			<path class="st124" d="M532.4,1345.4c0,0,2.3,2.6,9.3,1c3.5,6.7,10.4,11.8,17.5,13.8c1.2,0.3,2.4,0.6,3.4,1.4
				c1,0.8,1.5,2.3,0.8,3.4c-0.7,1-2.2,1.1-3.4,1c-4.3-0.2-8.5-0.4-12.8-0.7c-1.7-0.1-10.4-0.4-15.1-0.6c-1.5-0.1-2.6-1.3-2.6-2.9
				c0.1-3.1-1.2-6.5-0.9-9.6C528.9,1349.6,530.3,1346.9,532.4,1345.4z"/>
			<linearGradient id="SVGID_125_" gradientUnits="userSpaceOnUse" x1="492.1911" y1="1141.7804" x2="492.1911" y2="1198.3767">
				<stop  offset="0" style="stop-color:#FFAF8D"/>
				<stop  offset="1" style="stop-color:#FDC892"/>
			</linearGradient>
			<path class="st125" d="M492.7,1163.3c0.8-8.8,5.3-15.7,10.7-22.5l0.6-19.6c0,0-25.4,17.8-23.5,43c1.8,24.5,20.9,44.5,20.9,44.5
				l0.4-11.1C497,1188.3,491.9,1172.3,492.7,1163.3z"/>
			
				<linearGradient id="SVGID_126_" gradientUnits="userSpaceOnUse" x1="522.0894" y1="1112.6937" x2="522.0894" y2="1061.4816" gradientTransform="matrix(0.9667 2.840000e-02 -2.940000e-02 0.9996 47.3937 -14.8854)">
				<stop  offset="0" style="stop-color:#FFAF8D"/>
				<stop  offset="1" style="stop-color:#FDC892"/>
			</linearGradient>
			<path class="st126" d="M535.6,1070c-0.7,3.7-2.5,9.3-1.1,12.8c0.4,0.9,1.2,2.8,1.1,3.8c-0.1,1-2,0.9-2.9,0.4
				c-0.3,1.5-0.4,2.5-0.3,4.5c0.1,1.9-1.5,5.8-1.9,6.3c-1.6,0.8-3.2,0.1-4.9-0.4c-0.7,4.9-0.6,9.8,0.5,14.6c-3-1-6.1-0.2-9.2,0
				c-3.1,0.2-6.6-0.2-8.7-2.6c-1.2-1.4-1.7-3.3-2.1-5.2c-1.1-5-1.6-10.2-1.6-15.4c0-4.9,0.5-9.8,2.2-14.4c1.7-4.6,4.6-8.7,8.7-11.2
				c4.1-2.5,9.4-3,13.6-0.8C532,1064,536.2,1066.7,535.6,1070z"/>
			
				<linearGradient id="SVGID_127_" gradientUnits="userSpaceOnUse" x1="521.6957" y1="1090.5472" x2="521.6957" y2="1215.1361" gradientTransform="matrix(0.9671 -1.000000e-03 -1.000000e-03 1 17.4088 0.4674)">
				<stop  offset="0" style="stop-color:#FD825C"/>
				<stop  offset="0.5744" style="stop-color:#F0585F"/>
				<stop  offset="1" style="stop-color:#E73D61"/>
			</linearGradient>
			<path class="st127" d="M538.9,1184.2c-0.4-2.1-0.6-4.2-0.6-6.4c0-4.4,0.4-11.9,2.4-17.4c3-8.1,13.2-15.3,4.8-32
				c-3-6-4.5-11-7.5-13.8c-5.5-4.9-11.9-4.6-11.9-4.6s-14.4,3.1-21.8-0.6c0,0-12.2,12.6-9.3,32.4c2.8,19.8-0.6,62.8-2.3,73.4
				c5.6,3.2,53.4,3.3,51.5-6.6C542.9,1202,539.6,1187.6,538.9,1184.2z"/>
			<linearGradient id="SVGID_128_" gradientUnits="userSpaceOnUse" x1="571.4625" y1="1158.9121" x2="571.4625" y2="1129.1981">
				<stop  offset="0" style="stop-color:#FFAF8D"/>
				<stop  offset="1" style="stop-color:#FDC892"/>
			</linearGradient>
			<path class="st128" d="M535,1114.5c-4.2,0.5-10,5.7-3.6,15.9s20.2,16.5,29.4,17.8c9.1,1.3,38-25.2,39.9-27.6
				c2.6-3.3,6-3.6,9.2-6.3c0.9-0.8,2.5-3.5,2.5-4.7c-0.1-1.8-2.3-2.9-2.7-3.5c-1-1.5,1.8-3.3,3.8-5.8c0.7-0.9,1.5-2.4,0.6-3.3
				c-0.8-0.9-2.2-0.2-3.1,0.6c-5.4,4.4-6.2,4.6-10.1,10.4c-2,3.1-3.9,6.4-6.9,8.4c0,0-22.3,18-29.4,15.7
				C553.6,1128.7,541.1,1113.8,535,1114.5z"/>
			<path d="M514.7,1134.3c-4.3,5.1-11.4,6.3-17.9,6.4c-4.4,0-9.2-0.5-12.3-3.6c-3.6-3.6-4.1-9.6-2.6-14.5c1.4-5,4.4-9.3,6.8-13.9
				c4.3-8.2-2-35.6,11.6-49.5c5.8-5.9,14.2-9.2,22.1-7.5c2.9,0.6,5.7,1.9,8.4,3.2c2.3,1.1,4.7,2.3,6.3,4.3s3.8,4.5,2.8,9.4
				c-0.4,2.3-2.5,3.5-4.8,3.8c-2.3,0.2-8-2.8-9.9-1.5c-1.3,0.9-2.1,2.2-2.9,3.5c-4.9,8.2-7.1,18-6.2,27.5c0.5,5.6,2.1,11,2.5,16.6
				C519.1,1124,518.3,1130.1,514.7,1134.3z"/>
		</g>
		<g>
			
				<linearGradient id="SVGID_129_" gradientUnits="userSpaceOnUse" x1="649.863" y1="1271.0867" x2="649.863" y2="1317.5177" gradientTransform="matrix(0.9689 -0.2475 0.2475 0.9689 -247.9907 180.2233)">
				<stop  offset="0" style="stop-color:#311C55"/>
				<stop  offset="0.9973" style="stop-color:#4C2652"/>
			</linearGradient>
			<path class="st129" d="M774.3,1276.2l-134.4,34.3c-1.9,0.5-3.9-0.7-4.4-2.6l-24.8-97.2l141.4-36.1l24.8,97.2
				C777.4,1273.7,776.2,1275.7,774.3,1276.2z"/>
			
				<linearGradient id="SVGID_130_" gradientUnits="userSpaceOnUse" x1="649.8621" y1="1218.8163" x2="649.8621" y2="1262.9348" gradientTransform="matrix(0.9689 -0.2475 0.2475 0.9689 -247.9907 180.2233)">
				<stop  offset="0" style="stop-color:#311C55"/>
				<stop  offset="0.9973" style="stop-color:#4C2652"/>
			</linearGradient>
			<path class="st130" d="M610.7,1210.7l12.1,47.3c1.7,6.6,8.3,10.5,14.9,8.8l117.7-30.1c6.6-1.7,10.5-8.3,8.8-14.9l-12.1-47.3
				L610.7,1210.7z"/>
			
				<linearGradient id="SVGID_131_" gradientUnits="userSpaceOnUse" x1="649.8632" y1="1259.3806" x2="649.8632" y2="1278.8346" gradientTransform="matrix(0.9689 -0.2475 0.2475 0.9689 -247.9907 180.2233)">
				<stop  offset="0" style="stop-color:#FFFFFF"/>
				<stop  offset="0.3424" style="stop-color:#FBFDFE"/>
				<stop  offset="0.6612" style="stop-color:#F0F7FB"/>
				<stop  offset="0.9697" style="stop-color:#DDEDF7"/>
				<stop  offset="1" style="stop-color:#DBECF6"/>
			</linearGradient>
			<path class="st131" d="M709.2,1259.2l-20.3,5.2c-1.2,0.3-2.4-0.4-2.7-1.6l-5.1-20.1l24.6-6.3l5.1,20.1
				C711.1,1257.7,710.4,1258.9,709.2,1259.2z"/>
			
				<linearGradient id="SVGID_132_" gradientUnits="userSpaceOnUse" x1="649.8632" y1="1259.7483" x2="649.8632" y2="1271.9661" gradientTransform="matrix(0.9689 -0.2475 0.2475 0.9689 -247.9907 180.2233)">
				<stop  offset="0" style="stop-color:#311C55"/>
				<stop  offset="0.9973" style="stop-color:#4C2652"/>
			</linearGradient>
			<polygon class="st132" points="705.4,1254.8 690.1,1258.7 685.7,1241.5 701,1237.6 			"/>
			
				<linearGradient id="SVGID_133_" gradientUnits="userSpaceOnUse" x1="649.8609" y1="1193.3955" x2="649.8609" y2="1210.2542" gradientTransform="matrix(0.9689 -0.2475 0.2475 0.9689 -247.9907 180.2233)">
				<stop  offset="0" style="stop-color:#311C55"/>
				<stop  offset="0.9973" style="stop-color:#4C2652"/>
			</linearGradient>
			<path class="st133" d="M699.8,1162.9l-48.8,12.5l-1.2,0.3c-3.4,0.9-5.5,4.3-4.6,7.7l4.4,17.3l7.3-1.9l-4.1-16l48.8-12.5l4.1,16
				l7.3-1.9l-4.4-17.3c-0.9-3.4-4.3-5.5-7.7-4.6L699.8,1162.9z"/>
		</g>
		<g>
			<linearGradient id="SVGID_134_" gradientUnits="userSpaceOnUse" x1="461.0592" y1="906.3468" x2="461.0592" y2="1032.1306">
				<stop  offset="0" style="stop-color:#FDDE29"/>
				<stop  offset="1" style="stop-color:#FDA314"/>
			</linearGradient>
			<path class="st134" d="M512.3,931.5c0-29.5-24.9-53.2-54.9-51.1c-25.3,1.7-45.8,22.3-47.5,47.7c-0.7,11,2.1,21.3,7.3,30
				c9.2,15.1,13.5,32.6,13.5,50.2v4.7h60.5v-6.1c0-17,4.3-33.9,13.3-48.4C509.5,950.7,512.3,941.4,512.3,931.5z"/>
			<linearGradient id="SVGID_135_" gradientUnits="userSpaceOnUse" x1="430.7998" y1="1036.7069" x2="491.3185" y2="1036.7069">
				<stop  offset="0" style="stop-color:#1C436D"/>
				<stop  offset="1" style="stop-color:#1C68A0"/>
			</linearGradient>
			<path class="st135" d="M430.8,1013v25.8c0,11.9,9.7,21.6,21.6,21.6h17.4c11.9,0,21.6-9.7,21.6-21.6V1013H430.8z"/>
			<g>
				<linearGradient id="SVGID_136_" gradientUnits="userSpaceOnUse" x1="494.6027" y1="1018.7971" x2="452.4077" y2="1060.9919">
					<stop  offset="0" style="stop-color:#1C436D"/>
					<stop  offset="1" style="stop-color:#1C68A0"/>
				</linearGradient>
				<path class="st136" d="M450.6,1060.3l40.7-24v-8l-49.7,29.3C444.3,1059.1,447.3,1060.1,450.6,1060.3z"/>
				<linearGradient id="SVGID_137_" gradientUnits="userSpaceOnUse" x1="485.1286" y1="1009.3229" x2="442.9336" y2="1051.5179">
					<stop  offset="0" style="stop-color:#1C436D"/>
					<stop  offset="1" style="stop-color:#1C68A0"/>
				</linearGradient>
				<path class="st137" d="M435.5,1052.2l55.8-32.9v-6.3h-2.9l-56.3,33.2C432.9,1048.4,434,1050.4,435.5,1052.2z"/>
				<linearGradient id="SVGID_138_" gradientUnits="userSpaceOnUse" x1="474.6392" y1="998.8336" x2="432.4444" y2="1041.0284">
					<stop  offset="0" style="stop-color:#1C436D"/>
					<stop  offset="1" style="stop-color:#1C68A0"/>
				</linearGradient>
				<polygon class="st138" points="459.5,1013 430.8,1029.9 430.8,1038 473.2,1013 				"/>
			</g>
			<path class="st110" d="M480.4,925c-6.8,0-12.3,5.5-12.3,12.3v13.1h-7h-7v-13.1c0-6.8-5.5-12.3-12.3-12.3s-12.3,5.5-12.3,12.3v3.6
				c0,6.8,5.5,12.3,12.3,12.3h9.4v59.7h2.9v-59.7h7h7v59.7h2.9v-59.7h9.4c6.8,0,12.3-5.5,12.3-12.3v-3.6
				C492.8,930.5,487.2,925,480.4,925z M451.1,950.4h-9.4c-5.2,0-9.4-4.2-9.4-9.4v-3.6c0-5.2,4.2-9.4,9.4-9.4s9.4,4.2,9.4,9.4V950.4z
				 M489.9,941c0,5.2-4.2,9.4-9.4,9.4H471v-13.1c0-5.2,4.2-9.4,9.4-9.4c5.2,0,9.4,4.2,9.4,9.4V941z"/>
			<g>
				<linearGradient id="SVGID_139_" gradientUnits="userSpaceOnUse" x1="461.0591" y1="839.8183" x2="461.0591" y2="949.7646">
					<stop  offset="0" style="stop-color:#FDDE29"/>
					<stop  offset="1" style="stop-color:#FDA314"/>
				</linearGradient>
				<path class="st139" d="M461.1,824.5c-2.4,0-4.3,1.9-4.3,4.3v34.5c0,2.4,1.9,4.3,4.3,4.3s4.3-1.9,4.3-4.3v-34.5
					C465.4,826.5,463.4,824.5,461.1,824.5z"/>
				<linearGradient id="SVGID_140_" gradientUnits="userSpaceOnUse" x1="509.2534" y1="839.8182" x2="509.2534" y2="949.7646">
					<stop  offset="0" style="stop-color:#FDDE29"/>
					<stop  offset="1" style="stop-color:#FDA314"/>
				</linearGradient>
				<path class="st140" d="M522.1,844.6c-1.9-1.4-4.6-1-6,0.9l-20.5,27.7c-1.4,1.9-1,4.6,0.9,6c0.8,0.6,1.7,0.8,2.6,0.8
					c1.3,0,2.6-0.6,3.5-1.8l20.5-27.7C524.4,848.7,524,846,522.1,844.6z"/>
				<linearGradient id="SVGID_141_" gradientUnits="userSpaceOnUse" x1="538.5572" y1="839.8183" x2="538.5572" y2="949.7649">
					<stop  offset="0" style="stop-color:#FDDE29"/>
					<stop  offset="1" style="stop-color:#FDA314"/>
				</linearGradient>
				<path class="st141" d="M518,909.7c0.6,1.9,2.3,3.1,4.1,3.1c0.4,0,0.8-0.1,1.3-0.2l32.9-10.1c2.3-0.7,3.6-3.1,2.9-5.4
					c-0.7-2.3-3.1-3.6-5.4-2.9l-32.9,10.1C518.5,905,517.3,907.4,518,909.7z"/>
				<linearGradient id="SVGID_142_" gradientUnits="userSpaceOnUse" x1="537.4823" y1="839.8182" x2="537.4823" y2="949.7649">
					<stop  offset="0" style="stop-color:#FDDE29"/>
					<stop  offset="1" style="stop-color:#FDA314"/>
				</linearGradient>
				<path class="st142" d="M555.2,955.8l-32.5-11.5c-2.3-0.8-4.7,0.4-5.5,2.6c-0.8,2.3,0.4,4.7,2.6,5.5l32.5,11.5
					c0.5,0.2,1,0.2,1.4,0.2c1.8,0,3.4-1.1,4.1-2.9C558.6,959,557.4,956.6,555.2,955.8z"/>
				<linearGradient id="SVGID_143_" gradientUnits="userSpaceOnUse" x1="412.8649" y1="839.8182" x2="412.8649" y2="949.7646">
					<stop  offset="0" style="stop-color:#FDDE29"/>
					<stop  offset="1" style="stop-color:#FDA314"/>
				</linearGradient>
				<path class="st143" d="M406.1,845.5c-1.4-1.9-4.1-2.3-6-0.9c-1.9,1.4-2.3,4.1-0.9,6l20.5,27.7c0.8,1.1,2.2,1.8,3.5,1.8
					c0.9,0,1.8-0.3,2.6-0.8c1.9-1.4,2.3-4.1,0.9-6L406.1,845.5z"/>
				<linearGradient id="SVGID_144_" gradientUnits="userSpaceOnUse" x1="383.5612" y1="839.818" x2="383.5612" y2="949.7648">
					<stop  offset="0" style="stop-color:#FDDE29"/>
					<stop  offset="1" style="stop-color:#FDA314"/>
				</linearGradient>
				<path class="st144" d="M365.8,902.5l32.9,10.1c0.4,0.1,0.8,0.2,1.3,0.2c1.9,0,3.6-1.2,4.1-3.1c0.7-2.3-0.6-4.7-2.9-5.4
					l-32.9-10.1c-2.3-0.7-4.7,0.6-5.4,2.9C362.3,899.3,363.5,901.8,365.8,902.5z"/>
				<linearGradient id="SVGID_145_" gradientUnits="userSpaceOnUse" x1="384.636" y1="839.8179" x2="384.636" y2="949.7649">
					<stop  offset="0" style="stop-color:#FDDE29"/>
					<stop  offset="1" style="stop-color:#FDA314"/>
				</linearGradient>
				<path class="st145" d="M399.4,944.3L367,955.8c-2.3,0.8-3.4,3.3-2.6,5.5c0.6,1.8,2.3,2.9,4.1,2.9c0.5,0,1-0.1,1.4-0.2l32.5-11.5
					c2.3-0.8,3.4-3.3,2.6-5.5C404.2,944.7,401.7,943.5,399.4,944.3z"/>
			</g>
		</g>
	</g>
</g>
</svg>
