<?xml version="1.0" encoding="utf-8"?>
<!-- Generator: Adobe Illustrator 22.0.0, SVG Export Plug-In . SVG Version: 6.00 Build 0)  -->
<svg version="1.1" id="Layer_1" xmlns="http://www.w3.org/2000/svg" xmlns:xlink="http://www.w3.org/1999/xlink" x="0px" y="0px"
	 viewBox="0 0 1090 550" style="enable-background:new 0 0 1090 550;" xml:space="preserve">
<style type="text/css">
	.st0{fill:url(#SVGID_1_);}
	.st1{fill:url(#SVGID_2_);}
	.st2{fill:url(#SVGID_3_);}
	.st3{fill:url(#SVGID_4_);}
	.st4{fill:url(#SVGID_5_);}
	.st5{fill:url(#SVGID_6_);}
	.st6{fill:url(#SVGID_7_);}
	.st7{fill:url(#SVGID_8_);}
	.st8{opacity:0.4;fill:url(#SVGID_9_);}
	.st9{fill:url(#SVGID_10_);}
	.st10{fill:url(#SVGID_11_);}
	.st11{fill:url(#SVGID_12_);}
	.st12{fill:url(#SVGID_13_);}
	.st13{fill:url(#SVGID_14_);}
	.st14{fill:url(#SVGID_15_);}
	.st15{fill:url(#SVGID_16_);}
	.st16{fill:url(#SVGID_17_);}
	.st17{fill:url(#SVGID_18_);}
	.st18{fill:url(#SVGID_19_);}
	.st19{fill:url(#SVGID_20_);}
	.st20{fill:url(#SVGID_21_);}
	.st21{fill:url(#SVGID_22_);}
	.st22{fill:url(#SVGID_23_);}
	.st23{fill:url(#SVGID_24_);}
	.st24{fill:url(#SVGID_25_);}
	.st25{fill:url(#SVGID_26_);}
	.st26{fill:url(#SVGID_27_);}
	.st27{fill:url(#SVGID_28_);}
	.st28{fill:url(#SVGID_29_);}
	.st29{fill:url(#SVGID_30_);}
	.st30{fill:url(#SVGID_31_);}
	.st31{fill:url(#SVGID_32_);}
	.st32{fill:url(#SVGID_33_);}
	.st33{fill:url(#SVGID_34_);}
	.st34{fill:url(#SVGID_35_);}
	.st35{fill:url(#SVGID_36_);}
	.st36{fill:url(#SVGID_37_);}
	.st37{fill:url(#SVGID_38_);}
	.st38{fill:url(#SVGID_39_);}
	.st39{fill:url(#SVGID_40_);}
	.st40{fill:url(#SVGID_41_);}
	.st41{fill:url(#SVGID_42_);}
	.st42{fill:url(#SVGID_43_);}
	.st43{fill:url(#SVGID_44_);}
	.st44{fill:url(#SVGID_45_);}
	.st45{fill:url(#SVGID_46_);}
	.st46{fill:url(#SVGID_47_);}
	.st47{fill:url(#SVGID_48_);}
	.st48{fill:url(#SVGID_49_);}
	.st49{fill:url(#SVGID_50_);}
	.st50{fill:url(#SVGID_51_);}
	.st51{fill:url(#SVGID_52_);}
	.st52{fill:url(#SVGID_53_);}
	.st53{fill:url(#SVGID_54_);}
	.st54{fill:url(#SVGID_55_);}
	.st55{fill:url(#SVGID_56_);}
	.st56{fill:url(#SVGID_57_);}
	.st57{fill:url(#SVGID_58_);}
	.st58{fill:url(#SVGID_59_);}
	.st59{fill:url(#SVGID_60_);}
	.st60{fill:url(#SVGID_61_);}
	.st61{fill:url(#SVGID_62_);}
	.st62{fill:url(#SVGID_63_);}
	.st63{fill:url(#SVGID_64_);}
	.st64{fill:url(#SVGID_65_);}
	.st65{fill:url(#SVGID_66_);}
	.st66{fill:url(#SVGID_67_);}
	.st67{fill:url(#SVGID_68_);}
	.st68{fill:url(#SVGID_69_);}
	.st69{fill:url(#SVGID_70_);}
	.st70{fill:url(#SVGID_71_);}
	.st71{fill:url(#SVGID_72_);}
	.st72{fill:url(#SVGID_73_);}
	.st73{fill:url(#SVGID_74_);}
	.st74{fill:url(#SVGID_75_);}
	.st75{fill:url(#SVGID_76_);}
	.st76{fill:url(#SVGID_77_);}
	.st77{fill:url(#SVGID_78_);}
	.st78{fill:url(#SVGID_79_);}
	.st79{fill:url(#SVGID_80_);}
	.st80{fill:url(#SVGID_81_);}
	.st81{fill:url(#SVGID_82_);}
	.st82{fill:url(#SVGID_83_);}
	.st83{fill:url(#SVGID_84_);}
	.st84{fill:url(#SVGID_85_);}
	.st85{fill:url(#SVGID_86_);}
	.st86{fill:url(#SVGID_87_);}
	.st87{fill:url(#SVGID_88_);}
	.st88{fill:url(#SVGID_89_);}
	.st89{fill:url(#SVGID_90_);}
	.st90{fill:url(#SVGID_91_);}
	.st91{fill:url(#SVGID_92_);}
	.st92{fill:url(#SVGID_93_);}
	.st93{fill:url(#SVGID_94_);}
	.st94{fill:url(#SVGID_95_);}
	.st95{fill:url(#SVGID_96_);}
	.st96{fill:url(#SVGID_97_);}
	.st97{fill:url(#SVGID_98_);}
	.st98{fill:url(#SVGID_99_);}
	.st99{fill:url(#SVGID_100_);}
	.st100{fill:url(#SVGID_101_);}
	.st101{fill:url(#SVGID_102_);}
	.st102{fill:url(#SVGID_103_);}
	.st103{fill:url(#SVGID_104_);}
	.st104{fill:url(#SVGID_105_);}
	.st105{fill:url(#SVGID_106_);}
	.st106{fill:url(#SVGID_107_);}
	.st107{fill:url(#SVGID_108_);}
	.st108{fill:url(#SVGID_109_);}
	.st109{fill:url(#SVGID_110_);}
	.st110{fill:url(#SVGID_111_);}
	.st111{fill:url(#SVGID_112_);}
	.st112{fill:#FFFFFF;}
	.st113{fill:url(#SVGID_113_);}
	.st114{fill:url(#SVGID_114_);}
	.st115{fill:url(#SVGID_115_);}
	.st116{fill:url(#SVGID_116_);}
	.st117{fill:url(#SVGID_117_);}
	.st118{fill:url(#SVGID_118_);}
	.st119{fill:url(#SVGID_119_);}
	.st120{fill:url(#SVGID_120_);}
	.st121{fill:url(#SVGID_121_);}
	.st122{fill:url(#SVGID_122_);}
	.st123{fill:url(#SVGID_123_);}
	.st124{fill:url(#SVGID_124_);}
	.st125{fill:url(#SVGID_125_);}
	.st126{fill:url(#SVGID_126_);}
	.st127{fill:url(#SVGID_127_);}
	.st128{fill:url(#SVGID_128_);}
	.st129{fill:url(#SVGID_129_);}
	.st130{fill:url(#SVGID_130_);}
	.st131{fill:url(#SVGID_131_);}
	.st132{fill:url(#SVGID_132_);}
	.st133{fill:url(#SVGID_133_);}
	.st134{fill:url(#SVGID_134_);}
	.st135{fill:url(#SVGID_135_);}
	.st136{fill:url(#SVGID_136_);}
	.st137{fill:url(#SVGID_137_);}
	.st138{fill:url(#SVGID_138_);}
	.st139{fill:url(#SVGID_139_);}
	.st140{fill:url(#SVGID_140_);}
	.st141{fill:url(#SVGID_141_);}
	.st142{fill:url(#SVGID_142_);}
	.st143{fill:url(#SVGID_143_);}
	.st144{fill:url(#SVGID_144_);}
	.st145{fill:url(#SVGID_145_);}
	.st146{fill:url(#SVGID_146_);}
	.st147{fill:url(#SVGID_147_);}
</style>
<g>
	<linearGradient id="SVGID_1_" gradientUnits="userSpaceOnUse" x1="718.7857" y1="-55.7549" x2="814.968" y2="461.7967">
		<stop  offset="0" style="stop-color:#06C2FD"/>
		<stop  offset="0.981" style="stop-color:#FFFFFF"/>
	</linearGradient>
	<path class="st0" d="M1089.4,45c-8.1-0.4-16.1,0.2-23.7,1.9c-39.9,9.2-71.1,47.6-72,88.5c-40.3-31.9-101.1-28.5-144.7-1.2
		c-43.6,27.2-72,73.9-89,122.4c-11.4,32.7-18.5,67.5-15,101.9c-34.8-21.3-74.5-36.1-115.2-36c-40.8,0.1-82.5,16.4-107.9,48.3
		c-22.3,28.1-30.2,65.5-29.1,101.4c-4.9-1.3-9.8-2-14.8-2.2v71.8h611.5V45z"/>
	<linearGradient id="SVGID_2_" gradientUnits="userSpaceOnUse" x1="817.2509" y1="109.9646" x2="887.7258" y2="489.1864">
		<stop  offset="0" style="stop-color:#06C2FD"/>
		<stop  offset="0.981" style="stop-color:#FFFFFF"/>
	</linearGradient>
	<path class="st1" d="M1088.8,183.8c-5.9-0.3-11.8,0.1-17.4,1.4c-29.2,6.7-52.1,34.8-52.8,64.8c-29.6-23.4-74.1-20.8-106.1-0.9
		c-32,20-52.7,54.1-65.2,89.7c-8.4,23.9-13.6,49.4-11,74.7c-25.5-15.6-54.6-26.4-84.4-26.4s-60.5,12-79,35.4
		c-16.4,20.6-22.1,48-21.4,74.3c-3.6-1-7.2-1.5-10.8-1.6v52.6h448.1V183.8z"/>
	<linearGradient id="SVGID_3_" gradientUnits="userSpaceOnUse" x1="415.4251" y1="-54.4805" x2="289.3381" y2="280.958">
		<stop  offset="0" style="stop-color:#06C2FD"/>
		<stop  offset="0.981" style="stop-color:#FFFFFF"/>
	</linearGradient>
	<path class="st2" d="M613.1,268c-100.4-41.6-226.3-4.9-245.6,12.2c-12.3-28.8-25.8-59.3-51.8-76.9c-20-13.6-44.8-17.7-68.8-19.8
		c-44.5-3.9-90.8-1.8-131.6,16.4c7.7-27.7,6.2-59.7-11.4-82.5s-53.8-31.6-76.4-13.8c-0.3-25.4-3.8-55.9-25.9-67.5v394.1h611.5V268z"
		/>
	<linearGradient id="SVGID_4_" gradientUnits="userSpaceOnUse" x1="415.4419" y1="56.238" x2="289.3548" y2="391.6765">
		<stop  offset="0" style="stop-color:#06C2FD"/>
		<stop  offset="0.981" style="stop-color:#FFFFFF"/>
	</linearGradient>
	<path class="st3" d="M613.1,378.7c-100.4-41.6-226.3-4.9-245.6,12.2c-12.3-28.8-25.8-59.3-51.8-76.9c-20-13.6-44.8-17.7-68.8-19.8
		c-44.5-3.9-90.8-1.8-131.6,16.4c7.7-27.7,6.2-59.7-11.4-82.5s-53.8-31.6-76.4-13.8c-0.3-25.4-3.8-55.9-25.9-67.5v394.1h611.5V378.7
		z"/>
	<g>
		<linearGradient id="SVGID_5_" gradientUnits="userSpaceOnUse" x1="571.8737" y1="477.5502" x2="533.2044" y2="444.6524">
			<stop  offset="0" style="stop-color:#DBECF6"/>
			<stop  offset="1" style="stop-color:#B5D3E4"/>
		</linearGradient>
		<path class="st4" d="M580.2,453.5c0,3.8-16.4,6.9-36.6,6.9c-20.2,0-36.6-3.1-36.6-6.9c0-3.8,16.4-6.9,36.6-6.9
			C563.8,446.6,580.2,449.7,580.2,453.5z"/>
		<linearGradient id="SVGID_6_" gradientUnits="userSpaceOnUse" x1="746.6121" y1="446.2305" x2="699.3513" y2="406.0234">
			<stop  offset="0" style="stop-color:#DBECF6"/>
			<stop  offset="1" style="stop-color:#B5D3E4"/>
		</linearGradient>
		<path class="st5" d="M756.8,416.8c0,4.6-20,8.4-44.7,8.4c-24.7,0-44.7-3.8-44.7-8.4c0-4.6,20-8.4,44.7-8.4
			C736.7,408.4,756.8,412.2,756.8,416.8z"/>
		<linearGradient id="SVGID_7_" gradientUnits="userSpaceOnUse" x1="287.8909" y1="80.8046" x2="474.7957" y2="334.9108">
			<stop  offset="0" style="stop-color:#14C7BB"/>
			<stop  offset="0.981" style="stop-color:#1574E7"/>
		</linearGradient>
		<path class="st6" d="M576.1,172.3c-10.3-32-29.2-65.1-62.8-77.2c-17.8-6.4-37.6-5.9-56.4-2.9c-18.8,3.1-37,8.6-55.6,12.4
			c-23.3,4.7-47.3,6.4-71.2,5.3c-22.7-1.1-46.7-4.7-67,4.6c-20.5,9.3-32.5,30.3-35,51.3c-2.5,21,3.3,42,10.7,62
			c7.4,20,16.4,39.5,20.9,60.2c3.4,15.6,4.2,31.7,2.2,47.5c-0.9,7.7-2.5,15.6-0.2,23c5,16.5,25.8,23.5,43.9,27.1
			c42.2,8.4,86,11.7,128.7,6.2c42.8-5.6,84.6-20.4,118.2-45.5c7.4-5.5,14.3-11.5,20.1-18.5c14.4-17.5,19.8-39.8,20-61.4
			c0.2-17.5-5.8-34.9-7.4-52.5C583.9,199.7,580.5,185.8,576.1,172.3z"/>
		<linearGradient id="SVGID_8_" gradientUnits="userSpaceOnUse" x1="785.7036" y1="260.3685" x2="438.6416" y2="320.2448">
			<stop  offset="0" style="stop-color:#06C2FD"/>
			<stop  offset="0.981" style="stop-color:#1574E7"/>
		</linearGradient>
		<path class="st7" d="M698.6,407.6c18.6,0.4,44.2-1.1,60.4-10.2c13.1-7.4,27.5-25.7,30.8-41.8c5.8-28.2,2-54.7-13.4-76.3
			c-13.2-18.5-30.6-35.1-36.6-57c-4.9-17.9,0.6-38.6-8.9-54.6c-9.2-15.3-28.9-20.3-46.7-21.3c-29.7-1.6-59.5,4.5-87.5,14.8
			C537.3,183,485,224.5,452.7,278.7c-16.9,28.5-28.3,60.1-46.1,88c-5.8,9-12.2,17.6-17.3,27.1c-2,3.8-6.3,10.2-6.3,14.6
			c0,5.6,4.6,2.7,8.5,2.2c24.4-3,50.1-1.9,74.7-2.5c49.8-1.3,99.6-1.8,149.4-1.6C643.3,406.6,670.9,407,698.6,407.6z"/>
		<linearGradient id="SVGID_9_" gradientUnits="userSpaceOnUse" x1="760.7184" y1="442.1823" x2="557.2831" y2="269.1101">
			<stop  offset="0" style="stop-color:#06C2FD"/>
			<stop  offset="0.981" style="stop-color:#1574E7"/>
		</linearGradient>
		<path class="st8" d="M759.4,257.3c-8.4-10.8-16-21.9-19.6-35c-4.9-17.9,0.6-38.6-8.9-54.6c-9.2-15.3-28.9-20.3-46.7-21.3
			c-29.7-1.6-59.5,4.5-87.5,14.8c-8.1,3-16,6.3-23.8,10c-0.1,0.1-0.1,0.2-0.2,0.3c0-0.1-0.1-0.1-0.1-0.2
			c-49.3,23.3-92,60.6-119.9,107.4c-16.9,28.5-28.3,60.1-46.1,88c-3.3,5.2-6.8,10.2-10.2,15.4l0.6,0.7v0.3c0,1.6,2,2.7,3.7,2
			c12.8-5.1,59-18.7,143.5,6.4c0,0,7.8,2.7,11,6.2c2.3,2.6,4.8,6.7,10.2,8.7c4.9,0,9.8-0.1,14.6-0.1c5.3-2,7.8-6,10.1-8.6
			c3.2-3.6,11-6.2,11-6.2c84.5-25.1,130.7-11.5,143.5-6.4c1.7,0.7,4.1-0.1,3.7-2.4l11-12.4L759.4,257.3z"/>
		<g>
			<linearGradient id="SVGID_10_" gradientUnits="userSpaceOnUse" x1="676.2669" y1="48.9025" x2="649.6099" y2="215.9008">
				<stop  offset="0" style="stop-color:#06C2FD"/>
				<stop  offset="0.981" style="stop-color:#1574E7"/>
			</linearGradient>
			<path class="st9" d="M634.6,169.5c-0.4,7.7-6.8,15-4.8,22.4c1.5,5.5,7.4,8.8,13.1,9.2c5.7,0.4,11.2-1.6,16.6-3.6
				c6.1-2.3,12.4-4.8,17.3-9.1c4.9-4.3,8.4-10.9,7.2-17.4c-1.1-6.2-6.3-11.8-4.9-18c1.7-7.4,11.7-10.4,13.7-17.7
				c2.2-7.8-6.1-15.4-5-23.4c1.3-9.3,14.5-14.2,14.2-23.7c-0.2-6.8-7.7-12-7-18.7c0.6-5.9,7.4-9.7,8.3-15.6
				c1.4-8.9-10.9-14.6-12-23.6c-0.7-6.2,4-13.5-0.1-18.3c-2.7-3.1-7.9-2.7-11.1-0.2c-3.2,2.5-5,6.4-6.4,10.2
				c-1.4,3.8-2.8,7.8-5.5,10.8c-4.5,5-12.4,6.7-15.2,12.8c-3.1,6.7,1.8,14.6,1,22c-1.1,10.5-13,17.6-13.3,28.2
				c-0.1,6,3.7,11.5,3.6,17.4c-0.2,11.8-14.9,19.2-15.8,30.9C628,153,635.1,160.8,634.6,169.5z"/>
			
				<linearGradient id="SVGID_11_" gradientUnits="userSpaceOnUse" x1="616.4194" y1="145.5816" x2="737.6497" y2="145.5816" gradientTransform="matrix(0.8303 -0.5573 0.5573 0.8303 24.3685 380.7116)">
				<stop  offset="0" style="stop-color:#06C2FD"/>
				<stop  offset="0.981" style="stop-color:#1574E7"/>
			</linearGradient>
			<path class="st10" d="M657.8,144.4C657.8,144.4,657.8,144.4,657.8,144.4c3.9-6.3,9-11.6,15-16c1.4-1-0.1-3.3-1.5-2.3
				c-5,3.7-9.4,8-13.1,13c1.8-14,4.3-27.9,7.5-41.6c0.2-0.2,0.3-0.3,0.3-0.5c5.8-4.6,11.5-9.3,17.3-13.9c1.4-1.1-0.1-3.4-1.5-2.3
				c-5,4-10,8-15,12c2.7-11.1,5.8-22.1,9.4-33c0.1,0,0.2-0.1,0.4-0.2c4.1-2.9,8.2-5.9,12.3-8.8c1.4-1-0.1-3.3-1.5-2.3
				c-3.2,2.3-6.4,4.6-9.6,6.9c1.8-5.2,3.7-10.4,5.6-15.6c0.6-1.6-1.8-2.9-2.5-1.2c-2.2,5.7-4.3,11.5-6.2,17.3c-2.2-2-4-4.3-5.3-7.1
				c-0.7-1.6-3.3-0.7-2.6,0.9c1.6,3.5,3.9,6.6,6.9,9c-3.7,11.2-6.9,22.6-9.7,34c-1.8-3.3-2.9-6.9-3.2-10.7c-0.2-1.8-2.9-1.6-2.7,0.2
				c0.4,5.2,2.1,10.1,5,14.4c-3.1,13.4-5.6,26.9-7.4,40.5c-1.3-3.6-2.9-7.1-4.8-10.6c-0.8-1.6-3.1,0-2.3,1.5
				c2.6,4.9,4.7,10.1,6.2,15.4c-2.6,21.8-3.6,43.9-2.8,65.9c0.1,1.8,2.8,1.6,2.7-0.2c-0.7-21.4,0.2-42.9,2.6-64.1
				C657.6,144.9,657.7,144.7,657.8,144.4z"/>
		</g>
		<g>
			
				<linearGradient id="SVGID_12_" gradientUnits="userSpaceOnUse" x1="790.6393" y1="84.9609" x2="639.3196" y2="193.9424" gradientTransform="matrix(0.9647 -0.2633 0.2633 0.9647 -23.334 189.2746)">
				<stop  offset="0" style="stop-color:#FD825C"/>
				<stop  offset="0.5744" style="stop-color:#F0585F"/>
				<stop  offset="1" style="stop-color:#E73D61"/>
			</linearGradient>
			<path class="st11" d="M768.3,67.6c8,10.2,4.4,25.8-3.9,35.8c-8.3,10-20.2,16.1-30.8,23.7c-22.1,15.8-38.7,38.1-54.7,60.1
				c-2.9,4-5.9,8.1-10.3,10.4c-4.3,2.3-10.4,2.2-13.6-1.5c-3.5-4.1-2.1-10.3-0.3-15.5c12.3-36.3,31.8-70.1,57.1-99
				c7.3-8.4,15.5-16.6,26-20.5C748.2,57.3,761.4,58.9,768.3,67.6z"/>
			
				<linearGradient id="SVGID_13_" gradientUnits="userSpaceOnUse" x1="-3955.3352" y1="-277.2949" x2="-3855.9932" y2="-277.2949" gradientTransform="matrix(-0.9999 1.290000e-02 1.290000e-02 0.9999 -3200.3906 470.5868)">
				<stop  offset="0" style="stop-color:#E73D61"/>
				<stop  offset="0.4256" style="stop-color:#F0585F"/>
				<stop  offset="1" style="stop-color:#FD825C"/>
			</linearGradient>
			<path class="st12" d="M679.5,154.2c-0.2-0.3-0.4-0.7-0.2-1.2c4.3-14.6,10.8-28.5,19.1-41.2c1-1.5,3.4-0.1,2.4,1.4
				c-6.8,10.3-12.3,21.3-16.4,32.9c2.3-3.6,4.7-7.3,7.1-10.8c8.2-11.7,27.9-33,28.1-33.3c5.7-8.3,11.4-16.6,17.1-24.9
				c1-1.4,3.4-0.1,2.4,1.4c-4,5.8-8,11.7-12,17.5c6.2-5.3,12.8-10.3,19.6-14.9c1.5-1,2.9,1.4,1.4,2.4c-11.5,7.7-22.1,16.6-31.7,26.4
				c10.2-6.4,20.9-12.1,31.8-17.2c1.6-0.7,3,1.6,1.4,2.4c-14.2,6.6-27.9,14.4-41,23.2c0,0,0,0,0,0c-5.7,6.4-10.9,13.1-15.8,20.2
				c-5.1,7.3-9.7,14.9-14.1,22.7c10.5-10.6,22-20.2,34.3-28.6c1.5-1,2.9,1.4,1.4,2.4c-14.8,10-28.4,21.8-40.4,35.1
				c-0.1,0.1-0.2,0.2-0.4,0.3c-6.7,12.7-12.7,25.7-18.8,38.6c-0.7,1.6-3.1,0.2-2.4-1.4C661,189.4,669.5,171.4,679.5,154.2z"/>
		</g>
		<g>
			
				<linearGradient id="SVGID_14_" gradientUnits="userSpaceOnUse" x1="677.2552" y1="170.4144" x2="812.8763" y2="162.7086" gradientTransform="matrix(0.9647 -0.2633 0.2633 0.9647 -23.334 189.2746)">
				<stop  offset="0" style="stop-color:#785CB5"/>
				<stop  offset="0.9688" style="stop-color:#FA3C75"/>
			</linearGradient>
			<path class="st13" d="M681.3,148c-3.6,3.5-9.5,3.1-14,5.4c-7.5,3.9-8.8,14.6-5,22.1c3.8,7.5,11.2,12.3,18.4,16.7
				c4,2.5,8,4.9,12.6,6c4.5,1.1,9.7,0.6,13.3-2.5c4.2-3.5,5.6-9.8,10.3-12.5c7.9-4.6,18.3,4.2,26.8,0.8c8-3.2,9.9-15.4,18.3-17.6
				c6.3-1.6,13.6,3.5,19.2,0.1c4.2-2.5,4.9-8.6,8.7-11.8c3.8-3.2,9.5-2.5,14.5-2.8c5-0.3,11-3.6,10.3-8.5c-0.5-3.2-3.7-5.3-6.9-6.1
				c-3.2-0.8-6.5-0.6-9.6-1.4c-9-2.4-15.8-12.9-25-11.2c-4.4,0.8-7.8,4.3-12,5.7c-9.3,3-19.7-5.2-28.9-1.9
				c-6.5,2.4-10.2,9.9-16.9,11.8c-4.8,1.4-9.8-0.5-14.6-1.8c-4.8-1.3-10.6-1.7-14.1,1.8C684.4,142.6,683.5,145.9,681.3,148z"/>
			
				<linearGradient id="SVGID_15_" gradientUnits="userSpaceOnUse" x1="511.9521" y1="-162.4685" x2="611.9373" y2="-162.4685" gradientTransform="matrix(0.8782 0.4782 -0.4782 0.8782 155.0773 38.6545)">
				<stop  offset="3.117030e-02" style="stop-color:#FA3C75"/>
				<stop  offset="1" style="stop-color:#785CB5"/>
			</linearGradient>
			<path class="st14" d="M793.1,143.2c-4.4,0.5-8.9,1-13.4,1.5c1.3-1.6,2.6-3.3,4-4.9c0.9-1.1-0.7-2.7-1.6-1.6c-1.6,2-3.2,4-4.9,6.1
				c-0.2,0.2-0.3,0.5-0.3,0.8c-4.1,0.5-8.1,1-12.2,1.5c1.5-2.1,3.4-3.9,5.7-5.3c1.2-0.8,0.1-2.7-1.2-1.9c-3.1,1.9-5.7,4.5-7.5,7.6
				c-4.4,0.6-8.8,1.3-13.1,2c1.9-2.7,4.2-5,6.9-7c1.2-0.9,0-2.8-1.2-1.9c-3.5,2.6-6.5,5.8-8.8,9.5c-5.3,0.9-10.6,2-15.9,3.2
				c2.5-3,5.3-5.7,8.4-8.1c1.2-0.9,0-2.8-1.2-1.9c-4.1,3.1-7.7,6.7-10.7,10.8c-5.2,1.3-10.4,2.7-15.6,4.3c1.7-3,3.9-5.7,6.6-7.9
				c1.1-0.9-0.5-2.5-1.6-1.6c-3.5,2.8-6.2,6.4-8,10.4c-4.3,1.4-8.6,3-12.8,4.7c1.3-2.8,2.7-5.6,4-8.4c0.6-1.3-1.3-2.4-2-1.1
				c-1.7,3.6-3.5,7.2-5.2,10.8c-11.6,5-22.7,11.3-32.9,19.4c-1.1,0.9,0,2.8,1.2,1.9c10-7.9,20.9-14.1,32.2-19.1c0,0,0,0,0,0
				c0.1,0.1,0.1,0.1,0.2,0.2c6.6,4,13.8,7.1,21.2,9.3c1.4,0.4,1.9-1.8,0.5-2.2c-6.8-2-13.3-4.8-19.4-8.3c4.2-1.8,8.6-3.4,12.9-4.8
				c0.1,0.1,0.2,0.1,0.3,0.2c0.1,0.1,0.2,0.2,0.3,0.3c5.8,3.4,11.7,6.8,17.5,10.2c1.3,0.7,2.3-1.2,1.1-2c-5.5-3.2-11-6.4-16.5-9.6
				c4.9-1.6,9.9-3,15-4.2c5,4.8,10.8,8.6,17.2,11.3c1.3,0.6,2.4-1.4,1.1-2c-5.8-2.4-11-5.7-15.7-9.9c5.6-1.3,11.3-2.5,16.9-3.5
				c0.1,0.1,0.2,0.2,0.3,0.2c0.1,0.1,0.2,0.2,0.3,0.3c4.5,2.8,9,5.7,13.6,8.5c1.2,0.8,2.3-1.2,1.1-2c-4-2.5-8.1-5.1-12.1-7.6
				c4.5-0.8,9-1.5,13.6-2.1c0.3,0.2,0.7,0.3,1.1,0.1c0,0,0.1,0.1,0.1,0.1c3.6,1.9,7.1,3.9,10.7,5.8c1.3,0.7,2.4-1.3,1.1-2
				c-2.8-1.5-5.7-3.1-8.5-4.6c4.2-0.6,8.5-1.1,12.7-1.6c0.1,0.1,0.3,0.2,0.4,0.2c2.6,0.8,5.1,1.5,7.7,2.3c1.4,0.4,1.9-1.8,0.5-2.2
				c-1.1-0.3-2.2-0.7-3.3-1c3-0.3,5.9-0.7,8.8-1C794.6,145.3,794.5,143,793.1,143.2z"/>
		</g>
		<g>
			<linearGradient id="SVGID_16_" gradientUnits="userSpaceOnUse" x1="383.937" y1="362.8762" x2="739.508" y2="362.8762">
				<stop  offset="0" style="stop-color:#1C436D"/>
				<stop  offset="1" style="stop-color:#1C68A0"/>
			</linearGradient>
			<path class="st15" d="M739.5,351.5l-39.8-20l-138,23.3l-138-23.3l-39.8,20l2.1,17.9v0.3c0,1.6,2,2.7,3.7,2
				c12.8-5.1,59-18.7,143.5,6.4c0,0,7.8,2.7,11,6.2c3.2,3.6,6.7,9.9,17.5,9.9s14.3-6.3,17.5-9.9c3.2-3.6,11-6.2,11-6.2
				c84.5-25.1,130.7-11.5,143.5-6.4c1.7,0.7,4.1-0.1,3.7-2.4l0,0L739.5,351.5z"/>
			<linearGradient id="SVGID_17_" gradientUnits="userSpaceOnUse" x1="561.7225" y1="394.4886" x2="561.7225" y2="341.8803">
				<stop  offset="0" style="stop-color:#DBECF6"/>
				<stop  offset="1" style="stop-color:#B5D3E4"/>
			</linearGradient>
			<path class="st16" d="M739.5,347.5l-39.8-20l-138,23.3l-138-23.3l-39.8,20L375,357l11,12.4c0,0,46.3-25.2,147.2,4.8
				c0,0,8.4,2.8,11,4.9c5.2,4.1,6.7,11,17.5,11s12.7-7,16.7-10.6c1.9-1.7,11.8-5.3,11.8-5.3c100.9-30,147.2-4.8,147.2-4.8l11-12.4
				L739.5,347.5z"/>
			<linearGradient id="SVGID_18_" gradientUnits="userSpaceOnUse" x1="657.7934" y1="248.2109" x2="559.5681" y2="248.2109">
				<stop  offset="0" style="stop-color:#FFFFFF"/>
				<stop  offset="0.3424" style="stop-color:#FBFDFE"/>
				<stop  offset="0.6612" style="stop-color:#F0F7FB"/>
				<stop  offset="0.9697" style="stop-color:#DDEDF7"/>
				<stop  offset="1" style="stop-color:#DBECF6"/>
			</linearGradient>
			<path class="st17" d="M561.7,366.9c0,0,113-46.1,186.7-9.9V148.2c-71.8-39.7-179.8-6.3-186.7,9.9V366.9z"/>
			<g>
				<linearGradient id="SVGID_19_" gradientUnits="userSpaceOnUse" x1="590.1946" y1="167.1903" x2="721.5125" y2="167.1903">
					<stop  offset="0" style="stop-color:#DBECF6"/>
					<stop  offset="1" style="stop-color:#B5D3E4"/>
				</linearGradient>
				<path class="st18" d="M638.5,161.6c-22.5,3.4-41.5,8.1-48.3,9.9v5.2c9.4-2.5,88.5-23.1,131.3-9.2v-5.3
					C701.9,156.4,674,156.2,638.5,161.6z"/>
			</g>
			<g>
				<linearGradient id="SVGID_20_" gradientUnits="userSpaceOnUse" x1="590.1946" y1="197.3415" x2="721.5125" y2="197.3415">
					<stop  offset="0" style="stop-color:#DBECF6"/>
					<stop  offset="1" style="stop-color:#B5D3E4"/>
				</linearGradient>
				<path class="st19" d="M638.5,191.7c-22.5,3.4-41.5,8.1-48.3,9.9v5.2c9.4-2.5,88.5-23.1,131.3-9.2v-5.3
					C701.9,186.6,674,186.4,638.5,191.7z"/>
			</g>
			<g>
				<linearGradient id="SVGID_21_" gradientUnits="userSpaceOnUse" x1="590.1946" y1="227.4927" x2="721.5125" y2="227.4927">
					<stop  offset="0" style="stop-color:#DBECF6"/>
					<stop  offset="1" style="stop-color:#B5D3E4"/>
				</linearGradient>
				<path class="st20" d="M638.5,221.9c-22.5,3.4-41.5,8.1-48.3,9.9v5.2c9.4-2.5,88.5-23.1,131.3-9.2v-5.3
					C701.9,216.7,674,216.5,638.5,221.9z"/>
			</g>
			<g>
				<linearGradient id="SVGID_22_" gradientUnits="userSpaceOnUse" x1="590.1946" y1="257.6439" x2="721.5125" y2="257.6439">
					<stop  offset="0" style="stop-color:#DBECF6"/>
					<stop  offset="1" style="stop-color:#B5D3E4"/>
				</linearGradient>
				<path class="st21" d="M638.5,252c-22.5,3.4-41.5,8.1-48.3,9.9v5.2c9.4-2.5,88.5-23.1,131.3-9.2v-5.3
					C701.9,246.9,674,246.7,638.5,252z"/>
			</g>
			<g>
				<linearGradient id="SVGID_23_" gradientUnits="userSpaceOnUse" x1="590.1946" y1="287.7951" x2="721.5125" y2="287.7951">
					<stop  offset="0" style="stop-color:#DBECF6"/>
					<stop  offset="1" style="stop-color:#B5D3E4"/>
				</linearGradient>
				<path class="st22" d="M638.5,282.2c-22.5,3.4-41.5,8.1-48.3,9.9v5.2c9.4-2.5,88.5-23.1,131.3-9.2v-5.3
					C701.9,277,674,276.8,638.5,282.2z"/>
			</g>
			<g>
				<linearGradient id="SVGID_24_" gradientUnits="userSpaceOnUse" x1="590.1946" y1="317.9462" x2="721.5125" y2="317.9462">
					<stop  offset="0" style="stop-color:#DBECF6"/>
					<stop  offset="1" style="stop-color:#B5D3E4"/>
				</linearGradient>
				<path class="st23" d="M638.5,312.3c-22.5,3.4-41.5,8.1-48.3,9.9v5.2c9.4-2.5,88.5-23.1,131.3-9.2V313
					C701.9,307.2,674,307,638.5,312.3z"/>
			</g>
			<linearGradient id="SVGID_25_" gradientUnits="userSpaceOnUse" x1="497.5686" y1="246.8284" x2="558.6719" y2="246.8284">
				<stop  offset="0" style="stop-color:#FFFFFF"/>
				<stop  offset="0.4316" style="stop-color:#FDFEFE"/>
				<stop  offset="0.6839" style="stop-color:#F4F9FC"/>
				<stop  offset="0.8895" style="stop-color:#E6F2F9"/>
				<stop  offset="1" style="stop-color:#DBECF6"/>
			</linearGradient>
			<path class="st24" d="M561.7,366.9c0,0-113-46.1-186.7-9.9V148.2c72.5-39.5,169.2-17.4,186.7,9.9V366.9z"/>
			<g>
				<linearGradient id="SVGID_26_" gradientUnits="userSpaceOnUse" x1="401.9326" y1="167.1903" x2="533.2504" y2="167.1903">
					<stop  offset="0" style="stop-color:#DBECF6"/>
					<stop  offset="1" style="stop-color:#B5D3E4"/>
				</linearGradient>
				<path class="st25" d="M485,161.6c22.5,3.4,41.5,8.1,48.3,9.9v5.2c-9.4-2.5-88.5-23.1-131.3-9.2v-5.3
					C421.5,156.4,449.4,156.2,485,161.6z"/>
			</g>
			<g>
				<linearGradient id="SVGID_27_" gradientUnits="userSpaceOnUse" x1="401.9326" y1="197.3415" x2="533.2504" y2="197.3415">
					<stop  offset="0" style="stop-color:#DBECF6"/>
					<stop  offset="1" style="stop-color:#B5D3E4"/>
				</linearGradient>
				<path class="st26" d="M485,191.7c22.5,3.4,41.5,8.1,48.3,9.9v5.2c-9.4-2.5-88.5-23.1-131.3-9.2v-5.3
					C421.5,186.6,449.4,186.4,485,191.7z"/>
			</g>
			<g>
				<linearGradient id="SVGID_28_" gradientUnits="userSpaceOnUse" x1="401.9326" y1="227.4927" x2="533.2504" y2="227.4927">
					<stop  offset="0" style="stop-color:#DBECF6"/>
					<stop  offset="1" style="stop-color:#B5D3E4"/>
				</linearGradient>
				<path class="st27" d="M485,221.9c22.5,3.4,41.5,8.1,48.3,9.9v5.2c-9.4-2.5-88.5-23.1-131.3-9.2v-5.3
					C421.5,216.7,449.4,216.5,485,221.9z"/>
			</g>
			<g>
				<linearGradient id="SVGID_29_" gradientUnits="userSpaceOnUse" x1="401.9326" y1="257.6439" x2="533.2504" y2="257.6439">
					<stop  offset="0" style="stop-color:#DBECF6"/>
					<stop  offset="1" style="stop-color:#B5D3E4"/>
				</linearGradient>
				<path class="st28" d="M485,252c22.5,3.4,41.5,8.1,48.3,9.9v5.2c-9.4-2.5-88.5-23.1-131.3-9.2v-5.3
					C421.5,246.9,449.4,246.7,485,252z"/>
			</g>
			<g>
				<linearGradient id="SVGID_30_" gradientUnits="userSpaceOnUse" x1="401.9326" y1="287.7951" x2="533.2504" y2="287.7951">
					<stop  offset="0" style="stop-color:#DBECF6"/>
					<stop  offset="1" style="stop-color:#B5D3E4"/>
				</linearGradient>
				<path class="st29" d="M485,282.2c22.5,3.4,41.5,8.1,48.3,9.9v5.2c-9.4-2.5-88.5-23.1-131.3-9.2v-5.3
					C421.5,277,449.4,276.8,485,282.2z"/>
			</g>
			<g>
				<linearGradient id="SVGID_31_" gradientUnits="userSpaceOnUse" x1="401.9326" y1="317.9462" x2="533.2504" y2="317.9462">
					<stop  offset="0" style="stop-color:#DBECF6"/>
					<stop  offset="1" style="stop-color:#B5D3E4"/>
				</linearGradient>
				<path class="st30" d="M485,312.3c22.5,3.4,41.5,8.1,48.3,9.9v5.2c-9.4-2.5-88.5-23.1-131.3-9.2V313
					C421.5,307.2,449.4,307,485,312.3z"/>
			</g>
		</g>
		<linearGradient id="SVGID_32_" gradientUnits="userSpaceOnUse" x1="517.0131" y1="337.8965" x2="591.2204" y2="337.8965">
			<stop  offset="0" style="stop-color:#DBECF6"/>
			<stop  offset="1" style="stop-color:#B5D3E4"/>
		</linearGradient>
		<path class="st31" d="M591,308.2c-0.5-0.5-1.2-0.1-1.7,0.3c-3,2.5-3.4,2.5-5.6,5.8c-1.1,1.7-2.2,3.5-3.8,4.7c0,0-12.3,10-16.3,8.7
			c-5-1.6-10.5-7.4-14.2-9.3c-0.1-0.2-0.3-0.3-0.4-0.5c-3-2.7-6.6-2.6-6.6-2.6s-0.1,0-0.2,0c-0.4-2.3-0.4-4.7-0.1-7
			c0.9,0.3,1.8,0.7,2.7,0.2c0.2-0.3,1.1-2.4,1-3.5c0-1.1,0-1.6,0.2-2.5c0.5,0.3,1.6,0.3,1.6-0.2c0-0.6-0.4-1.6-0.6-2.1
			c-0.6-1.5-0.1-3.9,0.4-5.8c1.2-0.1,2.3-0.8,2.6-2.1c0.5-2.8-0.7-4.1-1.6-5.2c-0.9-1.1-2.2-1.8-3.5-2.4c-1.5-0.7-3.1-1.4-4.7-1.7
			c-4.4-1-9,0.9-12.2,4.1c-7.5,7.7-4.1,22.9-6.4,27.4c-1.3,2.5-3,4.9-3.8,7.7c-0.8,2.8-0.6,6.1,1.5,8c0.5,0.5,1,0.8,1.6,1.1
			c-2.4,3.8-4.2,8.5-3.8,13.9c0.6,8.1,4.6,15.2,7.7,19.7c-0.3,3.8-0.7,6.9-0.9,8.5c0.2,0.1,0.4,0.2,0.6,0.2
			c-0.1,0.5-0.1,1.2-0.2,1.8c2.9,0.8,5.9,1.6,9,2.6c0,0,7.8,2.7,11,6.2c2.3,2.5,4.7,6.4,9.8,8.5c-0.3-7-0.9-15.6-2.1-21.5
			c0.3-0.4,0.5-0.9,0.4-1.4c-0.7-3.6-2.5-11.6-2.9-13.5c-0.2-1.2-0.3-2.3-0.3-3.5c0-2.4,0.2-6.6,1.3-9.6c1-2.7,3.5-5.3,4.2-8.9
			c2.4,1.1,4.8,1.9,6.8,2.2c5.1,0.7,21.1-13.9,22.1-15.3c1.4-1.8,3.3-2,5.1-3.5c0.5-0.4,1.4-2,1.4-2.6c0-1-1.3-1.6-1.5-1.9
			c-0.5-0.8,1-1.8,2.1-3.2C591.1,309.5,591.5,308.7,591,308.2z M525.4,355.1c-1.1-3.7-1.8-7.5-1.6-10.2c0.2-2.2,0.8-4.2,1.7-6.1
			C525.8,343.7,525.7,349.5,525.4,355.1z"/>
		<linearGradient id="SVGID_33_" gradientUnits="userSpaceOnUse" x1="641.709" y1="177.1702" x2="677.7139" y2="391.5245">
			<stop  offset="0" style="stop-color:#DBECF6"/>
			<stop  offset="1" style="stop-color:#B5D3E4"/>
		</linearGradient>
		<path class="st32" d="M740.1,320.7l-7.9-5.7c0.7-10.8,1.5-20.9,0.6-23.4c-1.7-4.7-5.5-5.7-6.6-6.3c-0.2-1.1-0.4-2.3-0.5-3.4
			c1.1-0.1,2.4-1.1,2.6-2.8c0.4-3.1,2.8-5.6,3.1-8.7c0.3-3.1-0.1-6.5-2.3-8.7c-1.3-1.3-3-2.1-4.7-2.7c-2.1-0.7-4.4-1.1-6.7-1.2
			c-1.2,0-2.4,0.1-3.5,0.5c-1.4,0.5-2.5,1.7-2.5,3.3c0,0.6,0.2,1.2,0.5,1.6c0.5,0.6,1.2,0.9,1.9,1c-0.2,0.8-0.3,1.6-0.5,2.4
			c-0.4,1.6-1.3,3-2.4,4.1c-0.6,0.5-1.3,1.3-1,2c0.3,0.6,1.1,0.7,1.6,1.1c0.6,0.5,0.6,1.5,0.4,2.3c-0.3,0.8-0.7,1.5-0.9,2.2
			c-0.2,0.8-0.1,1.8,0.6,2.2c0.9,0.6,2.1-0.1,3.1,0.3c0.9,0.4,1.3,3.1,1.2,4.5c-2.7,0.3-6.4,1.9-8.1,3.8c-1.4,1.3-3,3-4.6,5.1
			l-13.7-9.9c-1.1-0.8-2.6-0.6-3.4,0.5l-2.9,4.1l-18.6-13.5c11-19.7,5.7-44.9-13-58.5c-20.2-14.7-48.5-10.2-63.1,10.1
			c-14.7,20.2-10.2,48.5,10.1,63.1c18.7,13.6,44.3,10.7,59.6-5.8l18.6,13.5l-2.9,4.1c-0.3,0.4-0.4,0.8-0.4,1.2
			c-0.8,0.8-1.2,2-1.2,3.2c0.1,1.6,0.9,3.1,1.7,4.4c0.5,0.8,1.1,1.6,1.8,2.2c0,0,0,0,0,0.1c0.6,0.7,1.4,1,2.2,1.2c0,0.1,0,0.1,0,0.2
			c0,0,4,1.3,9.8,0.8l13.2,9.6c-0.7,4.4-1.4,9-2.1,14.1c0.7,0.4,1.4,0.7,2.2,1.1c-1.4,5.9-2.9,14.7-4.3,24.4
			c13.1,1.1,22.9,3.2,29.5,5.2c0.2-1.7,0.5-3.3,0.8-5c0.9-5.2,2.3-10.3,2.9-15.5c0.3-2.4,0.4-4.9,0.3-7.3c0.6-0.3,1.2-0.7,1.6-1.1
			c-0.2-1.2-0.4-2.6-0.5-4.2l8.8-12.2C741.4,323.1,741.2,321.5,740.1,320.7z"/>
		<g>
			<g>
				<linearGradient id="SVGID_34_" gradientUnits="userSpaceOnUse" x1="390.5262" y1="393.6133" x2="415.7745" y2="393.6133">
					<stop  offset="0" style="stop-color:#FFFFFF"/>
					<stop  offset="0.8537" style="stop-color:#DBECF6"/>
				</linearGradient>
				<polygon class="st33" points="390.5,383.2 390.5,432.6 415.8,404 415.8,354.6 				"/>
				<g>
					<linearGradient id="SVGID_35_" gradientUnits="userSpaceOnUse" x1="209.4251" y1="407.8841" x2="390.5262" y2="407.8841">
						<stop  offset="0" style="stop-color:#FFFFFF"/>
						<stop  offset="0.8537" style="stop-color:#DBECF6"/>
					</linearGradient>
					<path class="st34" d="M234.1,383.2c-13.6,0-24.7,11.1-24.7,24.7c0,13.6,11.1,24.7,24.7,24.7h156.4v-49.4H234.1z"/>
				</g>
				<linearGradient id="SVGID_36_" gradientUnits="userSpaceOnUse" x1="220.12" y1="407.8841" x2="390.5262" y2="407.8841">
					<stop  offset="0" style="stop-color:#DBECF6"/>
					<stop  offset="1" style="stop-color:#B5D3E4"/>
				</linearGradient>
				<path class="st35" d="M390.5,409.8H221.7c-0.9,0-1.6-0.7-1.6-1.6v-0.7c0-0.9,0.7-1.6,1.6-1.6h168.8V409.8z"/>
				<g>
					<linearGradient id="SVGID_37_" gradientUnits="userSpaceOnUse" x1="390.5262" y1="394.3983" x2="415.7587" y2="394.3983">
						<stop  offset="0" style="stop-color:#DBECF6"/>
						<stop  offset="1" style="stop-color:#B5D3E4"/>
					</linearGradient>
					<polygon class="st36" points="390.5,409.8 415.8,382.8 415.8,379 390.5,406 					"/>
					<linearGradient id="SVGID_38_" gradientUnits="userSpaceOnUse" x1="390.5262" y1="402.357" x2="415.7587" y2="402.357">
						<stop  offset="0" style="stop-color:#DBECF6"/>
						<stop  offset="1" style="stop-color:#B5D3E4"/>
					</linearGradient>
					<polygon class="st37" points="390.5,417.8 415.8,390.8 415.8,387 390.5,413.9 					"/>
					<linearGradient id="SVGID_39_" gradientUnits="userSpaceOnUse" x1="390.5262" y1="410.3157" x2="415.7587" y2="410.3157">
						<stop  offset="0" style="stop-color:#DBECF6"/>
						<stop  offset="1" style="stop-color:#B5D3E4"/>
					</linearGradient>
					<polygon class="st38" points="390.5,425.7 415.8,398.8 415.8,394.9 390.5,421.9 					"/>
					<linearGradient id="SVGID_40_" gradientUnits="userSpaceOnUse" x1="390.5262" y1="386.4395" x2="415.7587" y2="386.4395">
						<stop  offset="0" style="stop-color:#DBECF6"/>
						<stop  offset="1" style="stop-color:#B5D3E4"/>
					</linearGradient>
					<polygon class="st39" points="390.5,401.8 415.8,374.9 415.8,371 390.5,398 					"/>
					<linearGradient id="SVGID_41_" gradientUnits="userSpaceOnUse" x1="390.5262" y1="378.4808" x2="415.7587" y2="378.4808">
						<stop  offset="0" style="stop-color:#DBECF6"/>
						<stop  offset="1" style="stop-color:#B5D3E4"/>
					</linearGradient>
					<polygon class="st40" points="390.5,393.9 415.8,366.9 415.8,363.1 390.5,390 					"/>
				</g>
				<linearGradient id="SVGID_42_" gradientUnits="userSpaceOnUse" x1="223.9621" y1="399.9254" x2="390.5262" y2="399.9254">
					<stop  offset="0" style="stop-color:#DBECF6"/>
					<stop  offset="1" style="stop-color:#B5D3E4"/>
				</linearGradient>
				<path class="st41" d="M390.5,401.8H225.9c-1.1,0-1.9-0.9-1.9-1.9l0,0c0-1.1,0.9-1.9,1.9-1.9h164.6V401.8z"/>
				<linearGradient id="SVGID_43_" gradientUnits="userSpaceOnUse" x1="228.2642" y1="391.9666" x2="390.5262" y2="391.9666">
					<stop  offset="0" style="stop-color:#DBECF6"/>
					<stop  offset="1" style="stop-color:#B5D3E4"/>
				</linearGradient>
				<path class="st42" d="M390.5,393.9H230.2c-1.1,0-1.9-0.9-1.9-1.9l0,0c0-1.1,0.9-1.9,1.9-1.9h160.3V393.9z"/>
				<linearGradient id="SVGID_44_" gradientUnits="userSpaceOnUse" x1="223.9621" y1="415.8428" x2="390.5262" y2="415.8428">
					<stop  offset="0" style="stop-color:#DBECF6"/>
					<stop  offset="1" style="stop-color:#B5D3E4"/>
				</linearGradient>
				<path class="st43" d="M390.5,413.9H225.9c-1.1,0-1.9,0.9-1.9,1.9l0,0c0,1.1,0.9,1.9,1.9,1.9h164.6V413.9z"/>
				<linearGradient id="SVGID_45_" gradientUnits="userSpaceOnUse" x1="228.2642" y1="423.8015" x2="390.5262" y2="423.8015">
					<stop  offset="0" style="stop-color:#DBECF6"/>
					<stop  offset="1" style="stop-color:#B5D3E4"/>
				</linearGradient>
				<path class="st44" d="M390.5,421.9H230.2c-1.1,0-1.9,0.9-1.9,1.9l0,0c0,1.1,0.9,1.9,1.9,1.9h160.3V421.9z"/>
				<g>
					<linearGradient id="SVGID_46_" gradientUnits="userSpaceOnUse" x1="205.5829" y1="407.8841" x2="396.9297" y2="407.8841">
						<stop  offset="0" style="stop-color:#14C7BB"/>
						<stop  offset="0.981" style="stop-color:#1574E7"/>
					</linearGradient>
					<path class="st45" d="M396.9,436.4H234.1c-15.7,0-28.5-12.8-28.5-28.5c0-15.7,12.8-28.5,28.5-28.5h162.8v3.8H234.1
						c-13.6,0-24.7,11.1-24.7,24.7c0,13.6,11.1,24.7,24.7,24.7h162.8V436.4z"/>
				</g>
				<linearGradient id="SVGID_47_" gradientUnits="userSpaceOnUse" x1="396.9297" y1="366.9928" x2="422.1781" y2="366.9928">
					<stop  offset="0" style="stop-color:#14C7BB"/>
					<stop  offset="0.981" style="stop-color:#1574E7"/>
				</linearGradient>
				<polygon class="st46" points="396.9,379.3 422.2,350.8 422.2,354.6 396.9,383.2 				"/>
				<linearGradient id="SVGID_48_" gradientUnits="userSpaceOnUse" x1="396.9297" y1="420.2338" x2="422.1781" y2="420.2338">
					<stop  offset="0" style="stop-color:#14C7BB"/>
					<stop  offset="0.981" style="stop-color:#1574E7"/>
				</linearGradient>
				<polygon class="st47" points="396.9,432.6 422.2,404 422.2,407.9 396.9,436.4 				"/>
				<linearGradient id="SVGID_49_" gradientUnits="userSpaceOnUse" x1="213.1122" y1="369.6955" x2="422.1781" y2="369.6955">
					<stop  offset="0" style="stop-color:#14C7BB"/>
					<stop  offset="0.981" style="stop-color:#1574E7"/>
				</linearGradient>
				<path class="st48" d="M259.4,350.8c-8.5,0-16.1,3.7-21.3,9.6l0,0l-24.9,28.2h0c4.5-4.9,10.7-8.2,17.7-9.1
					c1.1-0.1,2.2-0.2,3.3-0.2h0.5h162.3l21.8-24.7l3.4-3.8H259.4z"/>
				<linearGradient id="SVGID_50_" gradientUnits="userSpaceOnUse" x1="390.5262" y1="418.3127" x2="422.1781" y2="418.3127">
					<stop  offset="0" style="stop-color:#14C7BB"/>
					<stop  offset="0.981" style="stop-color:#1574E7"/>
				</linearGradient>
				<polygon class="st49" points="415.8,404 422.2,404 396.9,432.6 390.5,432.6 				"/>
			</g>
			<g>
				<linearGradient id="SVGID_51_" gradientUnits="userSpaceOnUse" x1="366.3483" y1="331.4484" x2="391.5966" y2="331.4484">
					<stop  offset="0" style="stop-color:#FFFFFF"/>
					<stop  offset="0.8537" style="stop-color:#DBECF6"/>
				</linearGradient>
				<polygon class="st50" points="366.3,321 366.3,370.4 391.6,341.9 391.6,292.5 				"/>
				<g>
					<linearGradient id="SVGID_52_" gradientUnits="userSpaceOnUse" x1="185.2473" y1="345.7192" x2="366.3483" y2="345.7192">
						<stop  offset="0" style="stop-color:#FFFFFF"/>
						<stop  offset="0.8537" style="stop-color:#DBECF6"/>
					</linearGradient>
					<path class="st51" d="M209.9,321c-13.6,0-24.7,11.1-24.7,24.7c0,13.6,11.1,24.7,24.7,24.7h156.4V321H209.9z"/>
				</g>
				<linearGradient id="SVGID_53_" gradientUnits="userSpaceOnUse" x1="195.9421" y1="345.7192" x2="366.3483" y2="345.7192">
					<stop  offset="0" style="stop-color:#DBECF6"/>
					<stop  offset="1" style="stop-color:#B5D3E4"/>
				</linearGradient>
				<path class="st52" d="M366.3,347.6H197.5c-0.9,0-1.6-0.7-1.6-1.6v-0.7c0-0.9,0.7-1.6,1.6-1.6h168.8V347.6z"/>
				<g>
					<linearGradient id="SVGID_54_" gradientUnits="userSpaceOnUse" x1="366.3483" y1="332.2335" x2="391.5809" y2="332.2335">
						<stop  offset="0" style="stop-color:#DBECF6"/>
						<stop  offset="1" style="stop-color:#B5D3E4"/>
					</linearGradient>
					<polygon class="st53" points="366.3,347.6 391.6,320.7 391.6,316.8 366.3,343.8 					"/>
					<linearGradient id="SVGID_55_" gradientUnits="userSpaceOnUse" x1="366.3483" y1="340.1922" x2="391.5809" y2="340.1922">
						<stop  offset="0" style="stop-color:#DBECF6"/>
						<stop  offset="1" style="stop-color:#B5D3E4"/>
					</linearGradient>
					<polygon class="st54" points="366.3,355.6 391.6,328.6 391.6,324.8 366.3,351.8 					"/>
					<linearGradient id="SVGID_56_" gradientUnits="userSpaceOnUse" x1="366.3483" y1="348.1509" x2="391.5809" y2="348.1509">
						<stop  offset="0" style="stop-color:#DBECF6"/>
						<stop  offset="1" style="stop-color:#B5D3E4"/>
					</linearGradient>
					<polygon class="st55" points="366.3,363.6 391.6,336.6 391.6,332.7 366.3,359.7 					"/>
					<linearGradient id="SVGID_57_" gradientUnits="userSpaceOnUse" x1="366.3483" y1="324.2747" x2="391.5809" y2="324.2747">
						<stop  offset="0" style="stop-color:#DBECF6"/>
						<stop  offset="1" style="stop-color:#B5D3E4"/>
					</linearGradient>
					<polygon class="st56" points="366.3,339.7 391.6,312.7 391.6,308.9 366.3,335.8 					"/>
					<linearGradient id="SVGID_58_" gradientUnits="userSpaceOnUse" x1="366.3483" y1="316.316" x2="391.5809" y2="316.316">
						<stop  offset="0" style="stop-color:#DBECF6"/>
						<stop  offset="1" style="stop-color:#B5D3E4"/>
					</linearGradient>
					<polygon class="st57" points="366.3,331.7 391.6,304.8 391.6,300.9 366.3,327.9 					"/>
				</g>
				<linearGradient id="SVGID_59_" gradientUnits="userSpaceOnUse" x1="199.7843" y1="337.7605" x2="366.3483" y2="337.7605">
					<stop  offset="0" style="stop-color:#DBECF6"/>
					<stop  offset="1" style="stop-color:#B5D3E4"/>
				</linearGradient>
				<path class="st58" d="M366.3,339.7H201.7c-1.1,0-1.9-0.9-1.9-1.9l0,0c0-1.1,0.9-1.9,1.9-1.9h164.6V339.7z"/>
				<linearGradient id="SVGID_60_" gradientUnits="userSpaceOnUse" x1="204.0863" y1="329.8018" x2="366.3483" y2="329.8018">
					<stop  offset="0" style="stop-color:#DBECF6"/>
					<stop  offset="1" style="stop-color:#B5D3E4"/>
				</linearGradient>
				<path class="st59" d="M366.3,331.7H206c-1.1,0-1.9-0.9-1.9-1.9l0,0c0-1.1,0.9-1.9,1.9-1.9h160.3V331.7z"/>
				<linearGradient id="SVGID_61_" gradientUnits="userSpaceOnUse" x1="199.7843" y1="353.6779" x2="366.3483" y2="353.6779">
					<stop  offset="0" style="stop-color:#DBECF6"/>
					<stop  offset="1" style="stop-color:#B5D3E4"/>
				</linearGradient>
				<path class="st60" d="M366.3,351.8H201.7c-1.1,0-1.9,0.9-1.9,1.9l0,0c0,1.1,0.9,1.9,1.9,1.9h164.6V351.8z"/>
				<linearGradient id="SVGID_62_" gradientUnits="userSpaceOnUse" x1="204.0863" y1="361.6367" x2="366.3483" y2="361.6367">
					<stop  offset="0" style="stop-color:#DBECF6"/>
					<stop  offset="1" style="stop-color:#B5D3E4"/>
				</linearGradient>
				<path class="st61" d="M366.3,359.7H206c-1.1,0-1.9,0.9-1.9,1.9l0,0c0,1.1,0.9,1.9,1.9,1.9h160.3V359.7z"/>
				<g>
					<linearGradient id="SVGID_63_" gradientUnits="userSpaceOnUse" x1="181.4051" y1="345.7192" x2="372.7519" y2="345.7192">
						<stop  offset="0" style="stop-color:#FD825C"/>
						<stop  offset="0.5744" style="stop-color:#F0585F"/>
						<stop  offset="1" style="stop-color:#E73D61"/>
					</linearGradient>
					<path class="st62" d="M372.8,374.3H209.9c-15.7,0-28.5-12.8-28.5-28.5c0-15.7,12.8-28.5,28.5-28.5h162.8v3.8H209.9
						c-13.6,0-24.7,11.1-24.7,24.7c0,13.6,11.1,24.7,24.7,24.7h162.8V374.3z"/>
				</g>
				<linearGradient id="SVGID_64_" gradientUnits="userSpaceOnUse" x1="372.7519" y1="304.828" x2="398.0003" y2="304.828">
					<stop  offset="0" style="stop-color:#FD825C"/>
					<stop  offset="0.5744" style="stop-color:#F0585F"/>
					<stop  offset="1" style="stop-color:#E73D61"/>
				</linearGradient>
				<polygon class="st63" points="372.8,317.2 398,288.6 398,292.5 372.8,321 				"/>
				<linearGradient id="SVGID_65_" gradientUnits="userSpaceOnUse" x1="372.7519" y1="358.069" x2="398.0003" y2="358.069">
					<stop  offset="0" style="stop-color:#FD825C"/>
					<stop  offset="0.5744" style="stop-color:#F0585F"/>
					<stop  offset="1" style="stop-color:#E73D61"/>
				</linearGradient>
				<polygon class="st64" points="372.8,370.4 398,341.9 398,345.7 372.8,374.3 				"/>
				<linearGradient id="SVGID_66_" gradientUnits="userSpaceOnUse" x1="188.9344" y1="307.5306" x2="398.0003" y2="307.5306">
					<stop  offset="0" style="stop-color:#FD825C"/>
					<stop  offset="0.5744" style="stop-color:#F0585F"/>
					<stop  offset="1" style="stop-color:#E73D61"/>
				</linearGradient>
				<path class="st65" d="M235.2,288.6c-8.5,0-16.1,3.7-21.3,9.6l0,0l-24.9,28.2h0c4.5-4.9,10.7-8.2,17.7-9.1
					c1.1-0.1,2.2-0.2,3.3-0.2h0.5h162.3l21.8-24.7l3.4-3.8H235.2z"/>
				<linearGradient id="SVGID_67_" gradientUnits="userSpaceOnUse" x1="366.3483" y1="356.1479" x2="398.0003" y2="356.1479">
					<stop  offset="0" style="stop-color:#FD825C"/>
					<stop  offset="0.5744" style="stop-color:#F0585F"/>
					<stop  offset="1" style="stop-color:#E73D61"/>
				</linearGradient>
				<polygon class="st66" points="391.6,341.9 398,341.9 372.8,370.4 366.3,370.4 				"/>
			</g>
			<g>
				<linearGradient id="SVGID_68_" gradientUnits="userSpaceOnUse" x1="392.9789" y1="269.2836" x2="418.2273" y2="269.2836">
					<stop  offset="0" style="stop-color:#FFFFFF"/>
					<stop  offset="0.8537" style="stop-color:#DBECF6"/>
				</linearGradient>
				<polygon class="st67" points="393,258.9 393,308.3 418.2,279.7 418.2,230.3 				"/>
				<g>
					<linearGradient id="SVGID_69_" gradientUnits="userSpaceOnUse" x1="211.8779" y1="283.5544" x2="392.9789" y2="283.5544">
						<stop  offset="0" style="stop-color:#FFFFFF"/>
						<stop  offset="0.8537" style="stop-color:#DBECF6"/>
					</linearGradient>
					<path class="st68" d="M236.6,258.9c-13.6,0-24.7,11.1-24.7,24.7c0,13.6,11.1,24.7,24.7,24.7H393v-49.4H236.6z"/>
				</g>
				<g>
					<linearGradient id="SVGID_70_" gradientUnits="userSpaceOnUse" x1="392.9789" y1="270.0687" x2="418.2114" y2="270.0687">
						<stop  offset="0" style="stop-color:#DBECF6"/>
						<stop  offset="1" style="stop-color:#B5D3E4"/>
					</linearGradient>
					<polygon class="st69" points="393,285.5 418.2,258.5 418.2,254.7 393,281.6 					"/>
					<linearGradient id="SVGID_71_" gradientUnits="userSpaceOnUse" x1="392.9789" y1="278.0273" x2="418.2114" y2="278.0273">
						<stop  offset="0" style="stop-color:#DBECF6"/>
						<stop  offset="1" style="stop-color:#B5D3E4"/>
					</linearGradient>
					<polygon class="st70" points="393,293.4 418.2,266.5 418.2,262.6 393,289.6 					"/>
					<linearGradient id="SVGID_72_" gradientUnits="userSpaceOnUse" x1="392.9789" y1="285.9861" x2="418.2114" y2="285.9861">
						<stop  offset="0" style="stop-color:#DBECF6"/>
						<stop  offset="1" style="stop-color:#B5D3E4"/>
					</linearGradient>
					<polygon class="st71" points="393,301.4 418.2,274.4 418.2,270.6 393,297.6 					"/>
					<linearGradient id="SVGID_73_" gradientUnits="userSpaceOnUse" x1="392.9789" y1="262.1099" x2="418.2114" y2="262.1099">
						<stop  offset="0" style="stop-color:#DBECF6"/>
						<stop  offset="1" style="stop-color:#B5D3E4"/>
					</linearGradient>
					<polygon class="st72" points="393,277.5 418.2,250.5 418.2,246.7 393,273.7 					"/>
					<linearGradient id="SVGID_74_" gradientUnits="userSpaceOnUse" x1="392.9789" y1="254.1512" x2="418.2114" y2="254.1512">
						<stop  offset="0" style="stop-color:#DBECF6"/>
						<stop  offset="1" style="stop-color:#B5D3E4"/>
					</linearGradient>
					<polygon class="st73" points="393,269.6 418.2,242.6 418.2,238.7 393,265.7 					"/>
				</g>
				<g>
					<linearGradient id="SVGID_75_" gradientUnits="userSpaceOnUse" x1="222.5727" y1="283.5544" x2="392.9789" y2="283.5544">
						<stop  offset="0" style="stop-color:#DBECF6"/>
						<stop  offset="1" style="stop-color:#B5D3E4"/>
					</linearGradient>
					<path class="st74" d="M393,285.5H224.1c-0.9,0-1.6-0.7-1.6-1.6v-0.7c0-0.9,0.7-1.6,1.6-1.6H393V285.5z"/>
					<linearGradient id="SVGID_76_" gradientUnits="userSpaceOnUse" x1="226.4149" y1="275.5957" x2="392.9789" y2="275.5957">
						<stop  offset="0" style="stop-color:#DBECF6"/>
						<stop  offset="1" style="stop-color:#B5D3E4"/>
					</linearGradient>
					<path class="st75" d="M393,277.5H228.3c-1.1,0-1.9-0.9-1.9-1.9l0,0c0-1.1,0.9-1.9,1.9-1.9H393V277.5z"/>
					<linearGradient id="SVGID_77_" gradientUnits="userSpaceOnUse" x1="230.717" y1="267.637" x2="392.9789" y2="267.637">
						<stop  offset="0" style="stop-color:#DBECF6"/>
						<stop  offset="1" style="stop-color:#B5D3E4"/>
					</linearGradient>
					<path class="st76" d="M393,269.6H232.6c-1.1,0-1.9-0.9-1.9-1.9l0,0c0-1.1,0.9-1.9,1.9-1.9H393V269.6z"/>
					<linearGradient id="SVGID_78_" gradientUnits="userSpaceOnUse" x1="226.4149" y1="291.5131" x2="392.9789" y2="291.5131">
						<stop  offset="0" style="stop-color:#DBECF6"/>
						<stop  offset="1" style="stop-color:#B5D3E4"/>
					</linearGradient>
					<path class="st77" d="M393,289.6H228.3c-1.1,0-1.9,0.9-1.9,1.9l0,0c0,1.1,0.9,1.9,1.9,1.9H393V289.6z"/>
					<linearGradient id="SVGID_79_" gradientUnits="userSpaceOnUse" x1="230.717" y1="299.4718" x2="392.9789" y2="299.4718">
						<stop  offset="0" style="stop-color:#DBECF6"/>
						<stop  offset="1" style="stop-color:#B5D3E4"/>
					</linearGradient>
					<path class="st78" d="M393,297.6H232.6c-1.1,0-1.9,0.9-1.9,1.9l0,0c0,1.1,0.9,1.9,1.9,1.9H393V297.6z"/>
				</g>
				<g>
					<linearGradient id="SVGID_80_" gradientUnits="userSpaceOnUse" x1="208.0358" y1="283.5544" x2="399.3825" y2="283.5544">
						<stop  offset="0" style="stop-color:#1C436D"/>
						<stop  offset="1" style="stop-color:#1C68A0"/>
					</linearGradient>
					<path class="st79" d="M399.4,312.1H236.6c-15.7,0-28.5-12.8-28.5-28.5c0-15.7,12.8-28.5,28.5-28.5h162.8v3.8H236.6
						c-13.6,0-24.7,11.1-24.7,24.7c0,13.6,11.1,24.7,24.7,24.7h162.8V312.1z"/>
				</g>
				<linearGradient id="SVGID_81_" gradientUnits="userSpaceOnUse" x1="399.3825" y1="242.6631" x2="424.6308" y2="242.6631">
					<stop  offset="0" style="stop-color:#1C436D"/>
					<stop  offset="1" style="stop-color:#1C68A0"/>
				</linearGradient>
				<polygon class="st80" points="399.4,255 424.6,226.5 424.6,230.3 399.4,258.9 				"/>
				<linearGradient id="SVGID_82_" gradientUnits="userSpaceOnUse" x1="426.2984" y1="281.6125" x2="403.8296" y2="304.0812">
					<stop  offset="0" style="stop-color:#1C436D"/>
					<stop  offset="1" style="stop-color:#1C68A0"/>
				</linearGradient>
				<polygon class="st81" points="399.4,308.3 424.6,279.7 424.6,283.6 399.4,312.1 				"/>
				<linearGradient id="SVGID_83_" gradientUnits="userSpaceOnUse" x1="215.565" y1="245.3658" x2="424.6309" y2="245.3658">
					<stop  offset="0" style="stop-color:#1C436D"/>
					<stop  offset="1" style="stop-color:#1C68A0"/>
				</linearGradient>
				<path class="st82" d="M261.8,226.5c-8.5,0-16.1,3.7-21.3,9.6l0,0l-24.9,28.2h0c4.5-4.9,10.7-8.2,17.7-9.1
					c1.1-0.1,2.2-0.2,3.3-0.2h0.5h162.3l21.8-24.7l3.4-3.8H261.8z"/>
				<linearGradient id="SVGID_84_" gradientUnits="userSpaceOnUse" x1="326.3186" y1="255.3276" x2="326.3186" y2="197.6876">
					<stop  offset="0" style="stop-color:#DBECF6"/>
					<stop  offset="1" style="stop-color:#78939D"/>
				</linearGradient>
				<ellipse class="st83" cx="326.3" cy="242.6" rx="36.3" ry="8.8"/>
				<linearGradient id="SVGID_85_" gradientUnits="userSpaceOnUse" x1="392.9789" y1="293.9831" x2="424.6308" y2="293.9831">
					<stop  offset="0" style="stop-color:#1C436D"/>
					<stop  offset="1" style="stop-color:#1C68A0"/>
				</linearGradient>
				<polygon class="st84" points="418.2,279.7 424.6,279.7 399.4,308.3 393,308.3 				"/>
			</g>
		</g>
		<linearGradient id="SVGID_86_" gradientUnits="userSpaceOnUse" x1="353.979" y1="342.2961" x2="402.3539" y2="342.2961">
			<stop  offset="0" style="stop-color:#DBECF6"/>
			<stop  offset="1" style="stop-color:#B5D3E4"/>
		</linearGradient>
		<path class="st85" d="M391.3,436.4l11-186.3c0.1-1-0.9-2-1.9-2c-0.8,0-1.3,0.5-1.4,1.3l-1.1,19.4h-30.7l1.1-18.7
			c0.1-1-0.9-2-1.9-2c-0.8,0-1.3,0.5-1.4,1.3l-11.1,187h3.3l0.1-2.1h30.7l-0.1,2.1H391.3z M367.1,271.4h30.7l-1.2,20.7h-30.7
			L367.1,271.4z M365.7,294.7h30.7l-1.2,20.7h-30.7L365.7,294.7z M364.3,317.9H395l-1.2,20.7h-30.7L364.3,317.9z M362.9,341.2h30.7
			l-1.2,20.7h-30.7L362.9,341.2z M361.5,364.5h30.7l-1.2,20.7h-30.7L361.5,364.5z M360.2,387.8h30.7l-1.2,20.7h-30.7L360.2,387.8z
			 M357.5,431.8l1.2-20.7h30.7l-1.2,20.7H357.5z"/>
		<linearGradient id="SVGID_87_" gradientUnits="userSpaceOnUse" x1="321.3033" y1="349.6855" x2="402.0793" y2="349.6855">
			<stop  offset="0" style="stop-color:#1C436D"/>
			<stop  offset="1" style="stop-color:#1C68A0"/>
		</linearGradient>
		<path class="st86" d="M398.9,249.4l-4.2,19.4h-30.7l4.1-18.7c0.2-1-0.5-2-1.6-2l0,0c-0.8,0-1.4,0.5-1.6,1.3l-43.5,199.8
			c-0.2,1,0.5,2,1.6,2l0,0c0.8,0,1.4-0.5,1.6-1.3l3.4-15.6h30.7l-3.2,14.9c-0.2,1,0.5,2,1.6,2l0,0c0.8,0,1.4-0.5,1.6-1.3L402,250.1
			c0.2-1-0.5-2-1.6-2l0,0C399.7,248.2,399.1,248.7,398.9,249.4z M394.1,271.4l-4.5,20.7h-30.7l4.5-20.7H394.1z M338.6,385.2
			l4.5-20.7h30.7l-4.5,20.7H338.6z M368.8,387.8l-4.5,20.7h-30.7l4.5-20.7H368.8z M343.7,362l4.5-20.7h30.7l-4.5,20.7H343.7z
			 M348.7,338.7l4.5-20.7H384l-4.5,20.7H348.7z M353.8,315.4l4.5-20.7H389l-4.5,20.7H353.8z M328.4,431.8l4.5-20.7h30.7l-4.5,20.7
			H328.4z"/>
		<linearGradient id="SVGID_88_" gradientUnits="userSpaceOnUse" x1="731.538" y1="299.1107" x2="747.6562" y2="299.1107">
			<stop  offset="0" style="stop-color:#FD825C"/>
			<stop  offset="1" style="stop-color:#E73D61"/>
		</linearGradient>
		<path class="st87" d="M737.6,321.4c-0.4,0-0.7-0.3-0.9-0.6c-1.9-2.1-3.2-4.7-3.9-7.4c-0.7-2.7-1-5.6-1.1-8.4
			c-0.3-4.4-0.3-8.9,1-13.1c1.3-4.1,0.6-11,1.7-15.2c9.6,3.8,13.2,18,13.3,20.1c0.1,2-0.6,3.9-1.3,5.8c-2.2,6-4.5,12-7.5,17.7
			C738.6,320.9,738.2,321.5,737.6,321.4z"/>
		<g>
			<linearGradient id="SVGID_89_" gradientUnits="userSpaceOnUse" x1="467.0942" y1="67.8844" x2="467.0942" y2="102.318">
				<stop  offset="0" style="stop-color:#1C436D"/>
				<stop  offset="1" style="stop-color:#1C68A0"/>
			</linearGradient>
			<path class="st88" d="M422.7,53.6v38.5l0,0c0,4.2,19.9,13.2,44.4,13.2c24.5,0,44.4-9.1,44.4-13.2V53.6H422.7z"/>
			<linearGradient id="SVGID_90_" gradientUnits="userSpaceOnUse" x1="467.0943" y1="69.1087" x2="467.0943" y2="24.567">
				<stop  offset="0" style="stop-color:#1C436D"/>
				<stop  offset="1" style="stop-color:#1C68A0"/>
			</linearGradient>
			<polygon class="st89" points="467.1,19.6 389.2,46.2 467.1,72.8 544.9,46.2 			"/>
			<linearGradient id="SVGID_91_" gradientUnits="userSpaceOnUse" x1="395.6787" y1="61.3677" x2="530.2728" y2="61.3677">
				<stop  offset="0" style="stop-color:#1C436D"/>
				<stop  offset="1" style="stop-color:#1C68A0"/>
			</linearGradient>
			<polygon class="st90" points="544.9,46.2 544.9,49.9 467.1,76.5 467.1,72.8 			"/>
			<linearGradient id="SVGID_92_" gradientUnits="userSpaceOnUse" x1="359.3485" y1="61.3677" x2="456.7462" y2="61.3677">
				<stop  offset="0" style="stop-color:#1C436D"/>
				<stop  offset="1" style="stop-color:#1C68A0"/>
			</linearGradient>
			<polygon class="st91" points="389.2,46.2 467.1,72.8 467.1,76.5 389.2,49.9 			"/>
			<g>
				<linearGradient id="SVGID_93_" gradientUnits="userSpaceOnUse" x1="462.1204" y1="62.0099" x2="394.027" y2="62.0099">
					<stop  offset="0" style="stop-color:#1C436D"/>
					<stop  offset="1" style="stop-color:#1C68A0"/>
				</linearGradient>
				<path class="st92" d="M389.2,79.5c-0.5,0-1-0.4-1-1V45.5c0-0.5,0.4-1,1-1h77.9c0.5,0,1,0.4,1,1c0,0.5-0.4,1-1,1h-76.9v32.1
					C390.2,79.1,389.8,79.5,389.2,79.5z"/>
			</g>
			<linearGradient id="SVGID_94_" gradientUnits="userSpaceOnUse" x1="384.7411" y1="78.0096" x2="393.7419" y2="78.0096">
				<stop  offset="0" style="stop-color:#FCB331"/>
				<stop  offset="1" style="stop-color:#FDD632"/>
			</linearGradient>
			<path class="st93" d="M392.3,79.5h-6c-0.8,0-1.5-0.7-1.5-1.5l0,0c0-0.8,0.7-1.5,1.5-1.5h6c0.8,0,1.5,0.7,1.5,1.5l0,0
				C393.7,78.8,393.1,79.5,392.3,79.5z"/>
			<linearGradient id="SVGID_95_" gradientUnits="userSpaceOnUse" x1="389.2415" y1="79.3154" x2="389.2415" y2="87.8456">
				<stop  offset="0" style="stop-color:#1C436D"/>
				<stop  offset="1" style="stop-color:#1C68A0"/>
			</linearGradient>
			<polygon class="st94" points="392.3,79.5 386.2,79.5 383.1,90.2 395.3,90.2 			"/>
			<linearGradient id="SVGID_96_" gradientUnits="userSpaceOnUse" x1="467.0944" y1="46.5892" x2="467.0944" y2="41.2323">
				<stop  offset="0" style="stop-color:#FCB331"/>
				<stop  offset="1" style="stop-color:#FDD632"/>
			</linearGradient>
			<path class="st95" d="M472.7,45.5c0,1.4-2.5,2.6-5.6,2.6s-5.6-1.1-5.6-2.6c0-1.4,2.5-2.6,5.6-2.6S472.7,44.1,472.7,45.5z"/>
		</g>
		<g>
			<linearGradient id="SVGID_97_" gradientUnits="userSpaceOnUse" x1="351.3373" y1="232.7406" x2="351.3373" y2="237.5616">
				<stop  offset="0" style="stop-color:#FFAF8D"/>
				<stop  offset="1" style="stop-color:#FDC892"/>
			</linearGradient>
			<path class="st96" d="M354.4,232.3c0-0.2-0.1-0.5-0.3-0.6c-0.1-0.1-0.3-0.1-0.5-0.1c-1.9,0.2-3.8,0.3-5.7,0.5
				c0.4,1,0.3,2.1,0.3,3.2c0,1.1,0.2,2.3,0.9,2.9c0.6,0.5,1.5,0.6,2.3,0.5c0.5,0,1,0,1.4-0.2c0.5-0.1,0.9-0.4,1.2-0.8
				c0.3-0.5,0.4-1.2,0.5-1.8C354.8,234.8,354.7,233.5,354.4,232.3z"/>
			<linearGradient id="SVGID_98_" gradientUnits="userSpaceOnUse" x1="351.1161" y1="240.5519" x2="366.4326" y2="240.5519">
				<stop  offset="0" style="stop-color:#311C55"/>
				<stop  offset="0.9973" style="stop-color:#4C2652"/>
			</linearGradient>
			<path class="st97" d="M347.4,243.6c-0.6-2.6-0.2-5.5,0.8-7.9c0.9,0.9,2.1,1.4,3.3,1.4c1.2,0,2.4-0.5,3.3-1.5
				c0.4-0.4,0.9,0.2,1.2,0.6c0.3,0.4,0.4,1,0.7,1.4c0.6,0.9,1.7,1.3,2.7,1.4s2-0.1,3,0.1c0.5,0.1,1,0.2,1.4,0.6
				c0.7,0.5,1,1.4,1.1,2.4c0.1,0.9,0,1.8-0.2,2.7c-3.6,1.4-7.6,1.1-11.4,0.4C351.3,244.7,349.4,244.1,347.4,243.6z"/>
			<linearGradient id="SVGID_99_" gradientUnits="userSpaceOnUse" x1="329.8438" y1="230.0146" x2="329.8438" y2="234.4358">
				<stop  offset="0" style="stop-color:#FFAF8D"/>
				<stop  offset="1" style="stop-color:#FDC892"/>
			</linearGradient>
			<path class="st98" d="M333.1,229.8c0-0.2-1,0.4-1.2,0.4c-1.9,0.2-3.4-0.9-5.2-0.8c0.1,0.9-0.1,3.6-0.1,4.6c0,1,0.2,1.9,1,2.5
				c0.6,0.5,1.5,0.5,2.2,0.5c0.5,0,0.9,0,1.4-0.1c0.5-0.1,0.9-0.4,1.2-0.8c0.3-0.5,0.4-1.1,0.5-1.7
				C332.9,233.2,332.9,231.4,333.1,229.8z"/>
			<linearGradient id="SVGID_100_" gradientUnits="userSpaceOnUse" x1="325.5473" y1="237.9115" x2="342.7689" y2="237.9115">
				<stop  offset="0" style="stop-color:#311C55"/>
				<stop  offset="0.9973" style="stop-color:#4C2652"/>
			</linearGradient>
			<path class="st99" d="M325.8,241.7c-0.6-2.6-0.2-5.3,0.8-7.7c0.9,0.9,2,1.3,3.2,1.3c1.2,0,2.3-0.5,3.2-1.4
				c0.3-0.4,0.8,0.2,1.1,0.6c0.3,0.4,2.3,0.3,3.3,0.4c1,0.1,2-0.1,2.9,0.1c0.5,0.1,1,0.2,1.4,0.5c0.6,0.5,1,1.4,1.1,2.3
				c0.1,0.9,0,1.8-0.2,2.6C339.1,241.9,327.7,242.3,325.8,241.7z"/>
			<linearGradient id="SVGID_101_" gradientUnits="userSpaceOnUse" x1="330.1467" y1="189.6666" x2="330.1467" y2="232.9116">
				<stop  offset="0" style="stop-color:#311C55"/>
				<stop  offset="0.9973" style="stop-color:#4C2652"/>
			</linearGradient>
			<path class="st100" d="M321.2,156.1c-1.8,5.1-2.1,3.9-1.5,9.3c0.6,5.4,4.9,18.1,5.8,23.5c2.2,13.6,2.1,27.6-0.3,41.1
				c3.5,1.2,7.3,1.1,10.9,0.1c1.1-7.2,2.1-14.4,3.2-21.6c0.8-5.4,1.6-10.8,1.6-16.3c-0.1-6.8-1.5-13.4-1.4-20.2
				c0-4.3,0.7-8.7-0.1-12.9c-0.2-0.9-0.4-1.9-1.1-2.5c-1.2-1.2-3.1-0.4-4.6,0.2C330.4,157.9,324.5,156.9,321.2,156.1z"/>
			<linearGradient id="SVGID_102_" gradientUnits="userSpaceOnUse" x1="341.0509" y1="227.6093" x2="341.0509" y2="182.8392">
				<stop  offset="0" style="stop-color:#311C55"/>
				<stop  offset="0.9973" style="stop-color:#4C2652"/>
			</linearGradient>
			<path class="st101" d="M324.3,160c-0.2,5.5,2.4,10.5,5,15.2c4.7,8.7,9.2,17.7,12.4,27.2c3.2,9.6,5,19.8,4.2,30
				c3.7,1.2,7.6,1,11.2-0.7c2.7-19.7-1.5-39.9-5.2-59.4c-1.1-5.7-2.3-11.7-5.5-16.2c-2.3,2.9-5.7,4.7-9.1,5.6
				c-3.3,0.9-6.8,0.8-10.2,0.3c-0.6-0.1-1.2-0.2-1.8-0.6C324.7,161.1,324.3,160.7,324.3,160z"/>
			<linearGradient id="SVGID_103_" gradientUnits="userSpaceOnUse" x1="332.0711" y1="110.3272" x2="332.0711" y2="78.3151">
				<stop  offset="0" style="stop-color:#FFAF8D"/>
				<stop  offset="1" style="stop-color:#FDC892"/>
			</linearGradient>
			<path class="st102" d="M323.6,105.6c0.6-2.2,0.8-3,0.7-5c-0.2-3.4-1.4-7-1.1-10.4c0.2-2.4,0.5-4.9,1.6-7.1
				c1.1-2.2,2.9-4.1,5.3-4.7c2.3-0.6,5.8,0.2,7,2.3c0.8,1.5,0.5,2.5,0.9,4.1c0.4,1.7,0.8,2.8,2,3.9c0.6,0.6,1.4,1.3,1,2.1
				c-0.3,0.6-1.2,0.7-1.7,1.2c-0.7,0.6,0.2,2.2,0.5,3c0.3,0.8,0.1,2.2,0.4,3c0.2,0.8-0.1,1.4-0.9,1.9c-1,0.6-2.2,0.1-3.3,0.5
				c-1,0.5-1.2,4.9-0.9,6c0.3,1.1,1-0.5,0.8,0.6c-0.3,1.6-2,2.5-3.5,2.8c-1.7,0.4-3.5,0.4-5.2,0c-1-0.2-2-0.6-2.6-1.4
				C324.1,108,323.4,106.4,323.6,105.6z"/>
			<path d="M328.8,93.4c-1.3-0.5-2.3-1.7-2.5-3.1c-0.2-1.4,0.4-2.9,1.5-3.7c0.3-0.3,0.7-0.5,1.2-0.4c0.5,0,0.8,0.5,0.8,1
				c0,1,0.5,1.8,1.1,2.6c0.3,0.3,0.8,0.4,1.1,0.2c0,0,0,0,0,0c0.4-0.2,0.6-0.7,0.4-1.1c-0.4-0.9-0.7-1.9-0.6-3
				c0.1-0.4,0.2-0.8,0.4-1.1c1.6-2.4,5.2-0.2,7-2.4c0.4-0.5,0.6-1.1,0.6-1.7c0-1.7-1.3-2.9-2.7-3.5c-1.2-0.5-2.4-0.6-3.7-0.5
				c-2.4,0-4.8,0.5-7.1,1.3c-1.8,0.6-3.7,1.4-5,2.8c-2.3,2.4-3.1,5.9-2.9,9.2c0.2,3.1,2.1,8.7,5.8,12.6c1.2-0.2,1.2-0.2,2.4-0.5
				c0.6-0.2,1.3-0.3,1.8-0.7c0.6-0.4,1-1.2,0.8-1.9c-0.2-0.7-0.5-3.1-0.2-3.7C329.2,94.8,329.4,93.6,328.8,93.4z"/>
			<linearGradient id="SVGID_104_" gradientUnits="userSpaceOnUse" x1="319.12" y1="114.8238" x2="319.12" y2="133.2344">
				<stop  offset="0" style="stop-color:#0CA1EF"/>
				<stop  offset="0.9973" style="stop-color:#007DD4"/>
			</linearGradient>
			<path class="st103" d="M321.3,154.4c0.4,0,0.7-0.3,1-0.6c2.1-2.2,3.4-5.1,4.2-8.1c0.8-3,1-6.1,1.2-9.2c0.3-4.8,0.3-9.7-1.1-14.3
				c-1.4-4.4-2-12.1-3.1-16.6c-6.2,3-12.2,15.4-13.2,21.9c-0.3,2.2,0.6,4.3,1.4,6.3c2.4,6.6,5,13.1,8.2,19.3
				C320.2,153.8,320.7,154.4,321.3,154.4z"/>
			<linearGradient id="SVGID_105_" gradientUnits="userSpaceOnUse" x1="384.532" y1="99.5352" x2="384.532" y2="78.0492">
				<stop  offset="0" style="stop-color:#FFAF8D"/>
				<stop  offset="1" style="stop-color:#FDC892"/>
			</linearGradient>
			<path class="st104" d="M376.8,95.3c1.8-2.4,3.2-5,4.6-7.6c1.5-2.6,3-5.1,5.1-7.2c2.1-2.1,5.3-2.9,5.7-2.2
				c0.4,0.6-0.1,2.2-1.5,3.5c-0.7,0.7-2.2,2.6-1.7,3.4c1,1.4,1.2,4,0.1,5.4c-0.9,1.2-2.6,1.5-3.8,2.5c-1.9,1.5-3.3,4.3-4.6,6.5
				c-1-0.3-1.6-1.8-2.4-2.5C378,96.4,377.4,95.7,376.8,95.3z"/>
			<linearGradient id="SVGID_106_" gradientUnits="userSpaceOnUse" x1="349.62" y1="109.8058" x2="349.62" y2="168.6766">
				<stop  offset="0" style="stop-color:#0CA1EF"/>
				<stop  offset="0.9973" style="stop-color:#0787E5"/>
			</linearGradient>
			<path class="st105" d="M348.8,124.8c0.4-0.6,1.2-0.8,1.8-0.9c13.7-2.3,26.2-12.2,31.4-25.1c-0.8-2.3-2.9-4.1-5.2-4.5
				c-4,4.8-14.1,12-15.6,12.6c-2.3,1-4.5,1.9-6.9,2.4c-2.4,0.5-4.9,0.6-7.3-0.2c-1.6-0.5-8.8-2.4-12.1-3.2c-4,1.3-7.5,1-11.4-0.4
				c-1.2,0.6-2.4,1.3-3.2,2.3c-1.2,1.3-2.4,3-2.8,5c-1.2,5.2,2.5,37-0.1,50.5c-0.4,2.1,8.4,3.6,10.6,3.8c5.6,0.4,11.9-1,16.5-3
				c1.4-0.6,7.1-3.7,6.7-5.1C349.9,154.4,348.4,125.4,348.8,124.8z"/>
		</g>
		<g>
			<g>
				<linearGradient id="SVGID_107_" gradientUnits="userSpaceOnUse" x1="656.6387" y1="235.0266" x2="603.4319" y2="251.5858">
					<stop  offset="0" style="stop-color:#FFFFFF"/>
					<stop  offset="0.3424" style="stop-color:#FBFDFE"/>
					<stop  offset="0.6612" style="stop-color:#F0F7FB"/>
					<stop  offset="0.9697" style="stop-color:#DDEDF7"/>
					<stop  offset="1" style="stop-color:#DBECF6"/>
				</linearGradient>
				<path class="st106" d="M664,221c-1.2-2.1-2.9-3.6-4.8-4.9c-0.3,0-0.5-0.1-0.8-0.3c-8.9-5.6-18.5-13-29.5-13.4
					c-5.8-0.2-10.7,1.5-15.8,4.2c-4.7,2.5-9.6,4.8-13.6,8.5c-6,5.6-13,12.8-13.5,21.4c-0.5,7.8,0.7,16.6,3.3,24
					c2.8,8,7.8,15.7,15.6,19.5c7.8,3.7,16.5,3.8,25,3.6c7.2-0.1,14.3-0.7,20.3-5.1c6.3-4.7,10.5-12.4,13.4-19.6
					c3.3-8.3,4.3-16.7,3.5-25.6C667,229.1,666.2,224.6,664,221z"/>
				<linearGradient id="SVGID_108_" gradientUnits="userSpaceOnUse" x1="533.2315" y1="250.122" x2="760.7133" y2="250.122">
					<stop  offset="0" style="stop-color:#DBECF6"/>
					<stop  offset="1" style="stop-color:#B5D3E4"/>
				</linearGradient>
				<path class="st107" d="M616.8,245.7c-10.4,1.8-20.4,3.8-29.6,5.9c0.6,3.1,1.3,6.1,2.3,8.9c0.1,0.2,0.2,0.5,0.3,0.7
					c22.6-5,49.6-9.7,76.8-12c0.6-3.3,1-6.7,1-10.1C651.8,240.3,634.9,242.5,616.8,245.7z"/>
			</g>
			<g>
				<linearGradient id="SVGID_109_" gradientUnits="userSpaceOnUse" x1="682.1554" y1="310.3474" x2="682.1554" y2="300.2384">
					<stop  offset="0" style="stop-color:#FFAF8D"/>
					<stop  offset="1" style="stop-color:#FDC892"/>
				</linearGradient>
				<path class="st108" d="M679.6,294.9c0.6-0.2,1.3-0.2,1.8,0.2c0.5,0.4,0.6,1.2,0.6,1.9c-0.1,0.7-0.3,1.4-0.1,2.1
					c0.3,1.2,1.5,1.9,2.6,2.5c1.1,0.6,2.3,1.3,2.6,2.5c0.3,1.2-0.6,2.6-1.8,3c-1.2,0.4-2.6,0.1-3.6-0.6c-1.1-0.7-1.9-1.7-2.6-2.8
					c-0.9-1.4-1.8-3-1.9-4.7C677.1,297.3,678,295.4,679.6,294.9z"/>
				<linearGradient id="SVGID_110_" gradientUnits="userSpaceOnUse" x1="685.993" y1="289.4931" x2="662.7319" y2="266.232">
					<stop  offset="0" style="stop-color:#1C436D"/>
					<stop  offset="1" style="stop-color:#1C68A0"/>
				</linearGradient>
				<polygon class="st109" points="688.9,280.6 682.1,290 655.1,270.5 662,261 				"/>
				<linearGradient id="SVGID_111_" gradientUnits="userSpaceOnUse" x1="692.564" y1="284.4221" x2="737.9435" y2="329.8017">
					<stop  offset="0" style="stop-color:#311C55"/>
					<stop  offset="0.9973" style="stop-color:#4C2652"/>
				</linearGradient>
				<path class="st110" d="M692.3,275.9l-13.7,18.9c-0.7,1-0.5,2.3,0.5,3l54.3,39.4c1,0.7,2.3,0.5,3-0.5l13.7-18.9
					c0.7-1,0.5-2.3-0.5-3l-54.3-39.4C694.4,274.7,693,274.9,692.3,275.9z"/>
				<linearGradient id="SVGID_112_" gradientUnits="userSpaceOnUse" x1="626.9445" y1="290.8635" x2="626.9445" y2="197.9386">
					<stop  offset="0" style="stop-color:#1C436D"/>
					<stop  offset="1" style="stop-color:#1C68A0"/>
				</linearGradient>
				<path class="st111" d="M655.2,203.8c-21.5-15.6-51.7-10.8-67.3,10.7c-15.6,21.5-10.8,51.7,10.7,67.3
					c21.5,15.6,51.7,10.8,67.3-10.7C681.6,249.6,676.8,219.4,655.2,203.8z M656.9,264.6c-12,16.6-35.2,20.2-51.7,8.2
					c-16.6-12-20.2-35.2-8.2-51.7c12-16.6,35.2-20.2,51.7-8.2C665.2,224.9,668.9,248,656.9,264.6z"/>
				<g>
					<path class="st112" d="M619.7,219.5c-1.5,0-2.9-1-3.3-2.5c-0.5-1.8,0.6-3.7,2.4-4.2c3-0.8,6.1-1.2,9.3-1.1
						c1.9,0.1,3.4,1.7,3.3,3.6c-0.1,1.9-1.7,3.4-3.6,3.3c-2.4-0.1-4.9,0.2-7.2,0.8C620.3,219.5,620,219.5,619.7,219.5z"/>
				</g>
				<g>
					<path class="st112" d="M599.5,242.2c-0.2,0-0.3,0-0.5,0c-1.9-0.3-3.2-2-2.9-3.9c1.2-8,5.7-15.5,12.3-20.4
						c1.5-1.1,3.7-0.8,4.8,0.7c1.1,1.5,0.8,3.7-0.7,4.8c-5.2,3.9-8.7,9.7-9.6,15.9C602.7,241,601.2,242.2,599.5,242.2z"/>
				</g>
			</g>
			<g>
				<linearGradient id="SVGID_113_" gradientUnits="userSpaceOnUse" x1="703.8719" y1="415.2859" x2="703.8719" y2="407.6314">
					<stop  offset="0" style="stop-color:#FFAF8D"/>
					<stop  offset="1" style="stop-color:#FDC892"/>
				</linearGradient>
				<path class="st113" d="M700.5,408.3c0-0.2,0.1-0.5,0.3-0.6c0.1-0.1,0.3-0.1,0.5-0.1c2.1,0.2,4.2,0.4,6.3,0.6
					c-0.2,1.2-0.3,3.7-0.3,3.7c0,1.1-0.3,2.1-1.1,2.8c-0.7,0.6-1.7,0.6-2.5,0.5c-0.5,0-1.1,0-1.6-0.2c-0.5-0.1-1-0.4-1.3-0.9
					c-0.4-0.5-0.5-1.3-0.5-1.9C700.1,410.9,700.2,409.6,700.5,408.3z"/>
				<linearGradient id="SVGID_114_" gradientUnits="userSpaceOnUse" x1="697.9464" y1="413.3677" x2="697.9464" y2="427.8221">
					<stop  offset="0" style="stop-color:#311C55"/>
					<stop  offset="0.9973" style="stop-color:#4C2652"/>
				</linearGradient>
				<path class="st114" d="M708,420.4c0.7-2.8,0.3-5.8-0.8-8.5c-1,0.9-2.3,1.4-3.6,1.4c-1.3,0-2.6-0.6-3.5-1.6
					c-0.4-0.4-1,0.2-1.3,0.7c-0.3,0.5-0.5,1-0.8,1.5c-0.7,1-3.2,1.4-4.3,1.4c-1.1,0.1-2.2-0.1-3.3,0.1c-0.6,0.1-1.1,0.2-1.6,0.6
					c-0.7,0.6-1.1,1.5-1.3,2.5c-0.1,1,0,2,0.2,2.9c3.8,1,13,1.2,17.1,0.5C707.1,421.5,707.6,421.3,708,420.4z"/>
				<linearGradient id="SVGID_115_" gradientUnits="userSpaceOnUse" x1="730.4293" y1="410.3518" x2="730.4293" y2="402.299">
					<stop  offset="0" style="stop-color:#FFAF8D"/>
					<stop  offset="1" style="stop-color:#FDC892"/>
				</linearGradient>
				<path class="st115" d="M726.8,402.7c0-0.2,4.7-0.6,6.7-0.4c0.1,1.2,0.5,4.9,0.5,4.9c0,1.1-0.3,1.9-1.1,2.6
					c-0.7,0.5-1.5,0.5-2.4,0.5c-0.5,0-1,0-1.5-0.2c-0.5-0.1-0.9-0.4-1.2-0.8c-0.3-0.5-0.4-1.2-0.5-1.8
					C727.4,406.3,727.1,404.2,726.8,402.7z"/>
				<linearGradient id="SVGID_116_" gradientUnits="userSpaceOnUse" x1="726.004" y1="407.9962" x2="726.004" y2="417.2871">
					<stop  offset="0" style="stop-color:#311C55"/>
					<stop  offset="0.9973" style="stop-color:#4C2652"/>
				</linearGradient>
				<path class="st116" d="M734.7,415.2c0.6-2.6,0.3-5.4-0.7-7.9c-0.9,0.9-2.1,1.3-3.4,1.3c-1.2,0-2.4-0.6-3.3-1.5
					c-0.4-0.4-0.9,0.2-1.2,0.6c-0.3,0.4-5.5,1.3-6.6,1.4c-0.5,0.1-1,0.2-1.5,0.5c-0.7,0.5-1.1,1.4-1.2,2.3c-0.1,0.9,0,1.8,0.2,2.7
					C722.2,416.2,732.8,415.7,734.7,415.2z"/>
				<linearGradient id="SVGID_117_" gradientUnits="userSpaceOnUse" x1="729.4642" y1="342.9575" x2="729.4642" y2="386.2982">
					<stop  offset="0" style="stop-color:#311C55"/>
					<stop  offset="0.9973" style="stop-color:#4C2652"/>
				</linearGradient>
				<path class="st117" d="M737.6,327.9c1.9,5.2,1.9,11,1.3,16.6c-0.7,5.6-2.1,11-3.1,16.5c-2.5,13.8-2.6,28.2-0.2,42.1
					c-3.7,1.2-7.7,1.1-11.4-0.1c-1-7.4-2-14.8-3.1-22.1c-0.8-5.5-1.6-11.1-1.4-16.7c0.2-6.9,1.8-13.7,1.8-20.7
					c0-4.4-0.6-8.9,0.3-13.2c0.2-0.9,0.5-1.9,1.2-2.5c1.3-1.2,3.3-0.4,4.9,0.2C731.1,329.3,734.2,328.7,737.6,327.9z"/>
				<linearGradient id="SVGID_118_" gradientUnits="userSpaceOnUse" x1="716.14" y1="334.091" x2="716.14" y2="372.3201">
					<stop  offset="0" style="stop-color:#311C55"/>
					<stop  offset="0.9973" style="stop-color:#4C2652"/>
				</linearGradient>
				<path class="st118" d="M734.6,331.6c0.2,5.8-2.8,11.2-5.6,16.1c-5.3,9.2-16.3,38.3-19,60.8c-4,1.3-8.4,0.9-12.2-0.9
					c2.5-26.9,9.2-75.7,12.8-80.5c2.5,3.1,6.2,5.1,9.8,6.1c3.7,1,7.5,1,11.2,0.4c0.7-0.1,1.3-0.2,1.9-0.6S734.5,332.4,734.6,331.6z"
					/>
				<linearGradient id="SVGID_119_" gradientUnits="userSpaceOnUse" x1="726.5427" y1="281.5238" x2="726.5427" y2="249.4654">
					<stop  offset="0" style="stop-color:#FFAF8D"/>
					<stop  offset="1" style="stop-color:#FDC892"/>
				</linearGradient>
				<path class="st119" d="M734.5,277.6c-0.4-2.1-0.7-4-0.7-6c0.2-3.4,2-6.8,1.7-10.2c-0.2-2.4-0.5-4.9-1.6-7.1
					c-1.1-2.2-2.9-4.1-5.3-4.7c-2.3-0.6-5.1,0.3-6.3,2.4c-0.8,1.5-0.8,3.2-1.2,4.9c-0.4,1.7-1.3,3.2-2.6,4.4c-0.6,0.6-1.4,1.3-1,2.1
					c0.3,0.6,1.2,0.7,1.7,1.2c0.7,0.6,0.7,1.6,0.4,2.4c-0.3,0.8-0.8,1.6-1,2.4c-0.2,0.8-0.1,1.9,0.6,2.3c1,0.6,2.3-0.1,3.3,0.3
					c1,0.5,1.5,4.2,1.3,5.3c-0.3,1.1,0,2.4,0.2,3.5c0.3,1.6,0.9,0,2.4,0.4c1.7,0.4,3.5,0.4,5.2,0c1-0.2,2-0.6,2.6-1.4
					C734.7,279.1,734.7,278.4,734.5,277.6z"/>
				<path d="M730,264.5c1.3-0.5,2.3-1.7,2.5-3.1c0.2-1.4-0.4-2.9-1.5-3.7c-0.3-0.3-0.7-0.5-1.2-0.4c-0.5,0-0.8,0.5-0.8,1
					c0,1-0.5,1.8-1.1,2.6c-0.3,0.3-0.8,0.4-1.1,0.2c0,0,0,0,0,0c-0.4-0.2-0.6-0.7-0.4-1.1c0.4-0.9,0.7-1.9,0.6-3
					c-0.1-0.4-0.2-0.8-0.4-1.1c-1.6-2.4-5.2-0.2-7-2.4c-0.4-0.5-0.6-1.1-0.6-1.7c0-1.7,1.3-2.9,2.7-3.5c1.2-0.5,2.4-0.6,3.7-0.5
					c2.4,0,4.8,0.5,7.1,1.3c1.8,0.6,3.7,1.4,5,2.8c2.3,2.4,2.7,6,2.4,9.3c-0.3,3.3-2.9,5.9-3.3,9.2c-0.3,2-2,3.3-3.2,3
					c-0.6-0.2-2.5-0.6-3-1c-0.6-0.4-1-1.2-0.8-1.9C729.9,269.5,729.3,264.8,730,264.5z"/>
				<linearGradient id="SVGID_120_" gradientUnits="userSpaceOnUse" x1="682.7642" y1="304.8249" x2="682.7642" y2="296.9905">
					<stop  offset="0" style="stop-color:#FFAF8D"/>
					<stop  offset="1" style="stop-color:#FDC892"/>
				</linearGradient>
				<path class="st120" d="M680,303.7c0.3,0.8,0.5,1.7,1.1,2.4c0.9,1,2.3,1.4,3.6,1.3c0.8-0.1,1.6-0.3,1.9-1
					c0.3-0.7-0.1-1.5-0.6-2.1c-1.2-1.2-3.2-1.4-4.2-2.8c-0.3-0.4-0.4-0.9-0.7-1.3c-0.2-0.4-0.6-0.9-1-1c-0.5-0.1-1.1,0.1-1.2,0.6
					c-0.1,0.2,0,0.5,0.1,0.7C679.3,301.5,679.6,302.6,680,303.7z"/>
				<linearGradient id="SVGID_121_" gradientUnits="userSpaceOnUse" x1="708.1354" y1="269.5864" x2="720.8771" y2="345.4435">
					<stop  offset="0" style="stop-color:#FD825C"/>
					<stop  offset="0.5744" style="stop-color:#F0585F"/>
					<stop  offset="1" style="stop-color:#E73D61"/>
				</linearGradient>
				<path class="st121" d="M741.5,283.5c-1.9-5-5.9-6.1-7.1-6.7c-3.9,1.4-6.5,1.3-10.5,0c-2.9,0.3-6.8,2-8.7,4
					c-2.5,2.3-5.4,5.9-8.8,10.5c-7.4,10-16.4,11.7-20.7,11.3c0,0-3,2.3-2.3,5c0,0,13.7,4.3,27.3-5.4c-1.6,9.8-3.4,19.4-5,31.4
					c9.7,5.4,29.6,7.2,35.2,2C738.4,322.1,743.3,288.4,741.5,283.5z"/>
			</g>
		</g>
		<g>
			
				<linearGradient id="SVGID_122_" gradientUnits="userSpaceOnUse" x1="530.7144" y1="443.9318" x2="530.7144" y2="400.4313" gradientTransform="matrix(0.9667 2.840000e-02 -2.940000e-02 0.9996 27.4212 -15.3014)">
				<stop  offset="0" style="stop-color:#FFAF8D"/>
				<stop  offset="1" style="stop-color:#FDC892"/>
			</linearGradient>
			<path class="st122" d="M533.5,400.2l1,2.8l-2.3,40.7l-4.8-0.1c0,0-1.9-21.6-1.9-29.6l-2.8-12.2L533.5,400.2z"/>
			<linearGradient id="SVGID_123_" gradientUnits="userSpaceOnUse" x1="525.2325" y1="447.966" x2="544.1078" y2="447.966">
				<stop  offset="0" style="stop-color:#311C55"/>
				<stop  offset="0.9973" style="stop-color:#4C2652"/>
			</linearGradient>
			<path class="st123" d="M527.3,442.4c0,0,1.3,1.4,5,0.5c1.9,3.6,5.6,6.3,9.4,7.4c0.6,0.2,1.3,0.3,1.8,0.8c0.5,0.4,0.8,1.2,0.4,1.8
				c-0.4,0.6-1.2,0.6-1.8,0.6c-2.3-0.1-4.6-0.2-6.8-0.4c-1,0-5.9-0.2-8.4-0.3c-0.7,0-1.2-0.6-1.1-1.2c0.1-1.8-0.7-3.7-0.5-5.5
				C525.4,444.7,526.2,443.2,527.3,442.4z"/>
			
				<linearGradient id="SVGID_124_" gradientUnits="userSpaceOnUse" x1="544.6314" y1="446.6173" x2="544.6314" y2="400.4314" gradientTransform="matrix(0.9667 2.840000e-02 -2.940000e-02 0.9996 27.4212 -15.3014)">
				<stop  offset="0" style="stop-color:#FFAF8D"/>
				<stop  offset="1" style="stop-color:#FDC892"/>
			</linearGradient>
			<path class="st124" d="M547.3,400.6l1,3l-2.4,43.2l-5.1-0.2c0,0-3.1-24.1-3.2-32.7l-1.8-11.7L547.3,400.6z"/>
			
				<linearGradient id="SVGID_125_" gradientUnits="userSpaceOnUse" x1="534.8421" y1="363.876" x2="534.8421" y2="403.5995" gradientTransform="matrix(0.9671 -1.000000e-03 -1.000000e-03 1 16.8883 0.4724)">
				<stop  offset="0" style="stop-color:#311C55"/>
				<stop  offset="0.9973" style="stop-color:#4C2652"/>
			</linearGradient>
			<path class="st125" d="M519.3,367c0,0-3.5,19.1,1,37.7c0,0,15.7,3.8,29-1.5c0,0,0-25.9-3.1-36.9L519.3,367z"/>
			<linearGradient id="SVGID_126_" gradientUnits="userSpaceOnUse" x1="538.4725" y1="451.3199" x2="558.5132" y2="451.3199">
				<stop  offset="0" style="stop-color:#311C55"/>
				<stop  offset="0.9973" style="stop-color:#4C2652"/>
			</linearGradient>
			<path class="st126" d="M540.7,445.4c0,0,1.3,1.5,5.3,0.5c2,3.8,5.9,6.7,10,7.9c0.7,0.2,1.4,0.4,1.9,0.8c0.5,0.5,0.8,1.3,0.4,1.9
				c-0.4,0.6-1.2,0.6-1.9,0.6c-2.4-0.1-4.8-0.3-7.3-0.4c-1-0.1-5.9-0.2-8.6-0.3c-0.9,0-1.5-0.8-1.5-1.6c0-1.8-0.7-3.7-0.5-5.5
				C538.7,447.9,539.5,446.3,540.7,445.4z"/>
			<linearGradient id="SVGID_127_" gradientUnits="userSpaceOnUse" x1="517.7682" y1="329.4741" x2="517.7682" y2="361.7112">
				<stop  offset="0" style="stop-color:#FFAF8D"/>
				<stop  offset="1" style="stop-color:#FDC892"/>
			</linearGradient>
			<path class="st127" d="M518.1,341.7c0.4-5,3-9,6.1-12.8l0.3-11.2c0,0-14.4,10.1-13.4,24.5c1,13.9,11.9,25.3,11.9,25.3l0.2-6.3
				C520.5,356,517.6,346.8,518.1,341.7z"/>
			
				<linearGradient id="SVGID_128_" gradientUnits="userSpaceOnUse" x1="532.7774" y1="312.9155" x2="532.7774" y2="283.7452" gradientTransform="matrix(0.9667 2.840000e-02 -2.940000e-02 0.9996 27.4212 -15.3014)">
				<stop  offset="0" style="stop-color:#FFAF8D"/>
				<stop  offset="1" style="stop-color:#FDC892"/>
			</linearGradient>
			<path class="st128" d="M542.5,288.6c-0.4,2.1-1.4,5.3-0.6,7.3c0.2,0.5,0.7,1.6,0.6,2.2s-1.1,0.5-1.6,0.3
				c-0.2,0.9-0.2,1.5-0.2,2.6c0,1.1-0.8,3.3-1.1,3.6c-0.9,0.4-1.8,0-2.8-0.2c-0.4,2.8-0.3,5.6,0.3,8.3c-1.7-0.6-3.5-0.1-5.2,0
				c-1.8,0.1-3.8-0.1-4.9-1.5c-0.7-0.8-1-1.9-1.2-3c-0.6-2.9-0.9-5.8-0.9-8.8c0-2.8,0.3-5.6,1.3-8.2c1-2.6,2.6-5,5-6.4
				c2.3-1.4,5.3-1.7,7.7-0.4C540.4,285.2,542.9,286.7,542.5,288.6z"/>
			
				<linearGradient id="SVGID_129_" gradientUnits="userSpaceOnUse" x1="535.1094" y1="300.3236" x2="535.1094" y2="371.289" gradientTransform="matrix(0.9671 -1.000000e-03 -1.000000e-03 1 16.8883 0.4724)">
				<stop  offset="0" style="stop-color:#FD825C"/>
				<stop  offset="0.5744" style="stop-color:#F0585F"/>
				<stop  offset="1" style="stop-color:#E73D61"/>
			</linearGradient>
			<path class="st129" d="M544.4,353.6c-0.2-1.2-0.3-2.4-0.3-3.6c0-2.5,0.2-6.8,1.4-9.9c1.7-4.6,7.5-8.7,2.7-18.2
				c-1.7-3.4-2.6-6.3-4.3-7.9c-3.1-2.8-6.8-2.6-6.8-2.6s-8.2,1.8-12.4-0.4c0,0-6.9,7.2-5.3,18.4c1.6,11.3-0.3,35.8-1.3,41.8
				c3.2,1.8,30.4,1.9,29.3-3.7C546.6,363.8,544.8,355.6,544.4,353.6z"/>
			<linearGradient id="SVGID_130_" gradientUnits="userSpaceOnUse" x1="562.921" y1="339.2322" x2="562.921" y2="322.3073">
				<stop  offset="0" style="stop-color:#FFAF8D"/>
				<stop  offset="1" style="stop-color:#FDC892"/>
			</linearGradient>
			<path class="st130" d="M542.1,313.9c-2.4,0.3-5.7,3.3-2.1,9c3.6,5.8,11.5,9.4,16.7,10.2s21.7-14.3,22.7-15.7
				c1.5-1.9,3.4-2,5.3-3.6c0.5-0.4,1.4-2,1.4-2.7c-0.1-1-1.3-1.7-1.5-2c-0.5-0.8,1-1.9,2.2-3.3c0.4-0.5,0.8-1.4,0.4-1.9
				c-0.5-0.5-1.3-0.1-1.8,0.3c-3.1,2.5-3.5,2.6-5.7,6c-1.2,1.7-2.2,3.6-3.9,4.8c0,0-12.7,10.2-16.7,8.9
				C552.8,322,545.6,313.6,542.1,313.9z"/>
			<path d="M530.6,325.2c-2.4,2.9-6.5,3.6-10.2,3.6c-2.5,0-5.2-0.3-7-2c-2.1-2-2.3-5.4-1.5-8.3c0.8-2.8,2.5-5.3,3.9-7.9
				c2.4-4.7-1.1-20.3,6.6-28.2c3.3-3.4,8.1-5.3,12.6-4.3c1.7,0.4,3.3,1.1,4.8,1.8c1.3,0.6,2.7,1.3,3.6,2.4c0.9,1.2,2.2,2.5,1.6,5.4
				c-0.3,1.3-1.4,2-2.7,2.1c-1.3,0.1-4.5-1.6-5.6-0.9c-0.7,0.5-1.2,1.2-1.7,2c-2.8,4.6-4,10.2-3.5,15.7c0.3,3.2,1.2,6.3,1.5,9.5
				C533.1,319.4,532.6,322.8,530.6,325.2z"/>
		</g>
		<g>
			
				<linearGradient id="SVGID_131_" gradientUnits="userSpaceOnUse" x1="632.8385" y1="400.5781" x2="632.8385" y2="427.0251" gradientTransform="matrix(0.9689 -0.2475 0.2475 0.9689 -78.2977 160.1573)">
				<stop  offset="0" style="stop-color:#311C55"/>
				<stop  offset="0.9973" style="stop-color:#4C2652"/>
			</linearGradient>
			<path class="st131" d="M676.9,406.4l-73.5,18.8c-1.9,0.5-3.9-0.7-4.4-2.6l-13.8-53.9l80.5-20.6l13.8,53.9
				C680,403.9,678.9,405.9,676.9,406.4z"/>
			
				<linearGradient id="SVGID_132_" gradientUnits="userSpaceOnUse" x1="632.838" y1="370.8051" x2="632.838" y2="395.9348" gradientTransform="matrix(0.9689 -0.2475 0.2475 0.9689 -78.2977 160.1573)">
				<stop  offset="0" style="stop-color:#311C55"/>
				<stop  offset="0.9973" style="stop-color:#4C2652"/>
			</linearGradient>
			<path class="st132" d="M585.2,368.7l6.9,27c1,3.7,4.8,6,8.5,5l67-17.1c3.7-1,6-4.8,5-8.5l-6.9-27L585.2,368.7z"/>
			
				<linearGradient id="SVGID_133_" gradientUnits="userSpaceOnUse" x1="632.8386" y1="393.9104" x2="632.8386" y2="404.9913" gradientTransform="matrix(0.9689 -0.2475 0.2475 0.9689 -78.2977 160.1573)">
				<stop  offset="0" style="stop-color:#FFFFFF"/>
				<stop  offset="0.3424" style="stop-color:#FBFDFE"/>
				<stop  offset="0.6612" style="stop-color:#F0F7FB"/>
				<stop  offset="0.9697" style="stop-color:#DDEDF7"/>
				<stop  offset="1" style="stop-color:#DBECF6"/>
			</linearGradient>
			<path class="st133" d="M640.4,396.6l-9.7,2.5c-1.2,0.3-2.4-0.4-2.7-1.6l-2.7-10.5l14-3.6l2.7,10.5
				C642.3,395.1,641.6,396.3,640.4,396.6z"/>
			
				<linearGradient id="SVGID_134_" gradientUnits="userSpaceOnUse" x1="632.8387" y1="394.1198" x2="632.8387" y2="401.079" gradientTransform="matrix(0.9689 -0.2475 0.2475 0.9689 -78.2977 160.1573)">
				<stop  offset="0" style="stop-color:#311C55"/>
				<stop  offset="0.9973" style="stop-color:#4C2652"/>
			</linearGradient>
			<polygon class="st134" points="639.2,393.9 630.5,396.1 628,386.3 636.7,384 			"/>
			
				<linearGradient id="SVGID_135_" gradientUnits="userSpaceOnUse" x1="632.8373" y1="356.3255" x2="632.8373" y2="365.9281" gradientTransform="matrix(0.9689 -0.2475 0.2475 0.9689 -78.2977 160.1573)">
				<stop  offset="0" style="stop-color:#311C55"/>
				<stop  offset="0.9973" style="stop-color:#4C2652"/>
			</linearGradient>
			<path class="st135" d="M636,341.5l-27.8,7.1l-0.7,0.2c-1.9,0.5-3.1,2.5-2.6,4.4l2.5,9.9l4.2-1.1l-2.3-9.1l27.8-7.1l2.3,9.1
				l4.2-1.1l-2.5-9.9c-0.5-1.9-2.5-3.1-4.4-2.6L636,341.5z"/>
		</g>
		<g>
			<linearGradient id="SVGID_136_" gradientUnits="userSpaceOnUse" x1="500.0356" y1="195.3718" x2="500.0356" y2="267.0179">
				<stop  offset="0" style="stop-color:#FDDE29"/>
				<stop  offset="1" style="stop-color:#FDA314"/>
			</linearGradient>
			<path class="st136" d="M529.2,209.7c0-16.8-14.2-30.3-31.2-29.1c-14.4,1-26.1,12.7-27,27.2c-0.4,6.3,1.2,12.2,4.2,17.1
				c5.2,8.6,7.7,18.6,7.7,28.6v2.7h34.5v-3.5c0-9.7,2.5-19.3,7.6-27.5C527.6,220.6,529.2,215.4,529.2,209.7z"/>
			<linearGradient id="SVGID_137_" gradientUnits="userSpaceOnUse" x1="482.7999" y1="269.6245" x2="517.2712" y2="269.6245">
				<stop  offset="0" style="stop-color:#1C436D"/>
				<stop  offset="1" style="stop-color:#1C68A0"/>
			</linearGradient>
			<path class="st137" d="M482.8,256.1v14.7c0,6.8,5.5,12.3,12.3,12.3h9.9c6.8,0,12.3-5.5,12.3-12.3v-14.7H482.8z"/>
			<g>
				<linearGradient id="SVGID_138_" gradientUnits="userSpaceOnUse" x1="519.1418" y1="259.4231" x2="495.1077" y2="283.4572">
					<stop  offset="0" style="stop-color:#1C436D"/>
					<stop  offset="1" style="stop-color:#1C68A0"/>
				</linearGradient>
				<path class="st138" d="M494.1,283.1l23.2-13.7v-4.6L489,281.5C490.5,282.4,492.2,282.9,494.1,283.1z"/>
				<linearGradient id="SVGID_139_" gradientUnits="userSpaceOnUse" x1="513.7454" y1="254.0267" x2="489.7113" y2="278.0609">
					<stop  offset="0" style="stop-color:#1C436D"/>
					<stop  offset="1" style="stop-color:#1C68A0"/>
				</linearGradient>
				<path class="st139" d="M485.5,278.5l31.8-18.7v-3.6h-1.7L483.5,275C484,276.3,484.6,277.4,485.5,278.5z"/>
				<linearGradient id="SVGID_140_" gradientUnits="userSpaceOnUse" x1="507.7707" y1="248.052" x2="483.7367" y2="272.0861">
					<stop  offset="0" style="stop-color:#1C436D"/>
					<stop  offset="1" style="stop-color:#1C68A0"/>
				</linearGradient>
				<polygon class="st140" points="499.2,256.1 482.8,265.8 482.8,270.4 506.9,256.1 				"/>
			</g>
			<path class="st112" d="M511.1,206c-3.9,0-7,3.2-7,7v7.5h-4h-4V213c0-3.9-3.2-7-7-7c-3.9,0-7,3.2-7,7v2.1c0,3.9,3.2,7,7,7h5.4v34
				h1.6v-34h4h4v34h1.6v-34h5.4c3.9,0,7-3.2,7-7V213C518.1,209.1,514.9,206,511.1,206z M494.4,220.5H489c-3,0-5.4-2.4-5.4-5.4V213
				c0-3,2.4-5.4,5.4-5.4s5.4,2.4,5.4,5.4V220.5z M516.5,215.1c0,3-2.4,5.4-5.4,5.4h-5.4V213c0-3,2.4-5.4,5.4-5.4
				c3,0,5.4,2.4,5.4,5.4V215.1z"/>
			<g>
				<linearGradient id="SVGID_141_" gradientUnits="userSpaceOnUse" x1="500.0356" y1="157.4774" x2="500.0356" y2="220.1025">
					<stop  offset="0" style="stop-color:#FDDE29"/>
					<stop  offset="1" style="stop-color:#FDA314"/>
				</linearGradient>
				<path class="st141" d="M500,148.8c-1.4,0-2.5,1.1-2.5,2.5v19.6c0,1.4,1.1,2.5,2.5,2.5s2.5-1.1,2.5-2.5v-19.6
					C502.5,149.9,501.4,148.8,500,148.8z"/>
				<linearGradient id="SVGID_142_" gradientUnits="userSpaceOnUse" x1="527.4869" y1="157.4774" x2="527.4869" y2="220.1025">
					<stop  offset="0" style="stop-color:#FDDE29"/>
					<stop  offset="1" style="stop-color:#FDA314"/>
				</linearGradient>
				<path class="st142" d="M534.8,160.2c-1.1-0.8-2.6-0.6-3.4,0.5l-11.7,15.8c-0.8,1.1-0.6,2.6,0.5,3.4c0.4,0.3,1,0.5,1.5,0.5
					c0.8,0,1.5-0.3,2-1l11.7-15.8C536.1,162.6,535.9,161,534.8,160.2z"/>
				<linearGradient id="SVGID_143_" gradientUnits="userSpaceOnUse" x1="544.1782" y1="157.4774" x2="544.1782" y2="220.1026">
					<stop  offset="0" style="stop-color:#FDDE29"/>
					<stop  offset="1" style="stop-color:#FDA314"/>
				</linearGradient>
				<path class="st143" d="M532.4,197.3c0.3,1.1,1.3,1.7,2.4,1.7c0.2,0,0.5,0,0.7-0.1l18.8-5.7c1.3-0.4,2-1.8,1.6-3.1
					c-0.4-1.3-1.8-2-3.1-1.6l-18.8,5.7C532.8,194.6,532,196,532.4,197.3z"/>
				<linearGradient id="SVGID_144_" gradientUnits="userSpaceOnUse" x1="543.5659" y1="157.4774" x2="543.5659" y2="220.1026">
					<stop  offset="0" style="stop-color:#FDDE29"/>
					<stop  offset="1" style="stop-color:#FDA314"/>
				</linearGradient>
				<path class="st144" d="M553.6,223.5l-18.5-6.5c-1.3-0.5-2.7,0.2-3.1,1.5c-0.5,1.3,0.2,2.7,1.5,3.1l18.5,6.5
					c0.3,0.1,0.5,0.1,0.8,0.1c1,0,2-0.6,2.3-1.6C555.6,225.4,554.9,224,553.6,223.5z"/>
				<linearGradient id="SVGID_145_" gradientUnits="userSpaceOnUse" x1="472.5843" y1="157.4774" x2="472.5843" y2="220.1025">
					<stop  offset="0" style="stop-color:#FDDE29"/>
					<stop  offset="1" style="stop-color:#FDA314"/>
				</linearGradient>
				<path class="st145" d="M468.7,160.7c-0.8-1.1-2.4-1.3-3.4-0.5c-1.1,0.8-1.3,2.4-0.5,3.4l11.7,15.8c0.5,0.7,1.2,1,2,1
					c0.5,0,1-0.2,1.5-0.5c1.1-0.8,1.3-2.4,0.5-3.4L468.7,160.7z"/>
				<linearGradient id="SVGID_146_" gradientUnits="userSpaceOnUse" x1="455.8929" y1="157.4772" x2="455.8929" y2="220.1026">
					<stop  offset="0" style="stop-color:#FDDE29"/>
					<stop  offset="1" style="stop-color:#FDA314"/>
				</linearGradient>
				<path class="st146" d="M445.8,193.2l18.8,5.7c0.2,0.1,0.5,0.1,0.7,0.1c1.1,0,2-0.7,2.4-1.7c0.4-1.3-0.3-2.7-1.6-3.1l-18.8-5.7
					c-1.3-0.4-2.7,0.3-3.1,1.6C443.8,191.4,444.5,192.8,445.8,193.2z"/>
				<linearGradient id="SVGID_147_" gradientUnits="userSpaceOnUse" x1="456.5052" y1="157.4772" x2="456.5052" y2="220.1026">
					<stop  offset="0" style="stop-color:#FDDE29"/>
					<stop  offset="1" style="stop-color:#FDA314"/>
				</linearGradient>
				<path class="st147" d="M464.9,217l-18.5,6.5c-1.3,0.5-2,1.9-1.5,3.1c0.4,1,1.3,1.6,2.3,1.6c0.3,0,0.5,0,0.8-0.1l18.5-6.5
					c1.3-0.5,2-1.9,1.5-3.1C467.6,217.2,466.2,216.5,464.9,217z"/>
			</g>
		</g>
	</g>
</g>
</svg>
