<?xml version="1.0" encoding="utf-8"?>
<!-- Generator: Adobe Illustrator 22.0.0, SVG Export Plug-In . SVG Version: 6.00 Build 0)  -->
<svg version="1.1" id="Слой_1" xmlns="http://www.w3.org/2000/svg" xmlns:xlink="http://www.w3.org/1999/xlink" x="0px" y="0px"
	 viewBox="0 0 403.2 410" style="enable-background:new 0 0 403.2 410;" xml:space="preserve">
<style type="text/css">
	.st0{fill:#FFC555;}
	.st1{display:none;fill:#FFC555;}
	.st2{fill:url(#SVGID_1_);}
	.st3{fill:url(#SVGID_2_);}
	.st4{fill:url(#SVGID_3_);}
	.st5{fill:url(#SVGID_4_);}
	.st6{fill:url(#SVGID_5_);}
	.st7{fill:url(#SVGID_6_);}
	.st8{fill:url(#SVGID_7_);}
	.st9{fill:url(#SVGID_8_);}
	.st10{fill:url(#SVGID_9_);}
	.st11{fill:url(#SVGID_10_);}
	.st12{fill:url(#SVGID_11_);}
	.st13{fill:url(#SVGID_12_);}
	.st14{fill:url(#SVGID_13_);}
	.st15{fill:url(#SVGID_14_);}
	.st16{fill:url(#SVGID_15_);}
	.st17{fill:url(#SVGID_16_);}
	.st18{fill:url(#SVGID_17_);}
	.st19{fill:url(#SVGID_18_);}
	.st20{fill:url(#SVGID_19_);}
	.st21{fill:url(#SVGID_20_);}
	.st22{fill:url(#SVGID_21_);}
	.st23{fill:url(#SVGID_22_);}
	.st24{fill:url(#SVGID_23_);}
	.st25{fill:url(#SVGID_24_);}
	.st26{fill:url(#SVGID_25_);}
	.st27{fill:url(#SVGID_26_);}
	.st28{fill:url(#SVGID_27_);}
	.st29{fill:url(#SVGID_28_);}
	.st30{fill:url(#SVGID_29_);}
	.st31{fill:url(#SVGID_30_);}
	.st32{fill:url(#SVGID_31_);}
	.st33{fill:url(#SVGID_32_);}
	.st34{fill:url(#SVGID_33_);}
	.st35{fill:url(#SVGID_34_);}
	.st36{fill:url(#SVGID_35_);}
	.st37{fill:url(#SVGID_36_);}
	.st38{fill:url(#SVGID_37_);}
	.st39{fill:#FFBA55;}
	.st40{fill:#78C2FF;}
</style>
<g>
	<rect x="219.2" y="45.6" class="st0" width="14.2" height="2.6"/>
	<rect x="219.2" y="44.3" class="st1" width="14.2" height="0.5"/>
	<g>
		<g>
			<g>
				
					<linearGradient id="SVGID_1_" gradientUnits="userSpaceOnUse" x1="-11707.2686" y1="954.9515" x2="-11738.2236" y2="954.9515" gradientTransform="matrix(0 -1 -1 0 1060.9292 -11449.208)">
					<stop  offset="0" style="stop-color:#FF9F55"/>
					<stop  offset="1" style="stop-color:#FFD255"/>
				</linearGradient>
				<polygon class="st2" points="90.5,258.1 93.4,258.1 93.4,286.1 121.5,286.1 121.5,289 90.5,289 				"/>
			</g>
			<g>
				
					<linearGradient id="SVGID_2_" gradientUnits="userSpaceOnUse" x1="-11163.832" y1="12806.1982" x2="-11194.7588" y2="12806.1982" gradientTransform="matrix(-1 0 0 1 -10893.5234 -12532.6602)">
					<stop  offset="0" style="stop-color:#FF9F55"/>
					<stop  offset="1" style="stop-color:#FFD255"/>
				</linearGradient>
				<polygon class="st3" points="270.3,289 270.3,286.1 298.4,286.1 298.4,258.1 301.2,258.1 301.2,289 				"/>
			</g>
			<g>
				
					<linearGradient id="SVGID_3_" gradientUnits="userSpaceOnUse" x1="326.0556" y1="204.5191" x2="79.187" y2="204.5191" gradientTransform="matrix(1 0 0 -1 0 408)">
					<stop  offset="0" style="stop-color:#FF9F55"/>
					<stop  offset="1" style="stop-color:#FFD255"/>
				</linearGradient>
				<polygon class="st4" points="193.4,178.6 189.9,178.6 140.6,178.6 140.6,178.6 140.6,170 140.6,161.3 131.9,161.3 131.9,170 
					123.3,170 123.3,178.6 131.9,178.6 131.9,178.6 123.3,178.6 123.3,187.3 123.3,195.9 123.3,204.5 123.3,204.5 131.9,204.5 
					131.9,204.5 141,204.5 141,195.9 131.9,195.9 131.9,187.3 140.6,187.3 189.9,187.3 189.9,245.6 198.5,245.6 198.5,178.6 				"/>
				
					<linearGradient id="SVGID_4_" gradientUnits="userSpaceOnUse" x1="326.0544" y1="242.3247" x2="79.1865" y2="242.3247" gradientTransform="matrix(1 0 0 -1 0 408)">
					<stop  offset="0" style="stop-color:#FF9F55"/>
					<stop  offset="1" style="stop-color:#FFD255"/>
				</linearGradient>
				<rect x="106" y="161.3" class="st5" width="17.3" height="8.7"/>
				
					<linearGradient id="SVGID_5_" gradientUnits="userSpaceOnUse" x1="326.0575" y1="233.6602" x2="79.1854" y2="233.6602" gradientTransform="matrix(1 0 0 -1 0 408)">
					<stop  offset="0" style="stop-color:#FF9F55"/>
					<stop  offset="1" style="stop-color:#FFD255"/>
				</linearGradient>
				<rect x="172.6" y="170" class="st6" width="17.3" height="8.7"/>
				
					<linearGradient id="SVGID_6_" gradientUnits="userSpaceOnUse" x1="326.0549" y1="242.3247" x2="79.1869" y2="242.3247" gradientTransform="matrix(1 0 0 -1 0 408)">
					<stop  offset="0" style="stop-color:#FF9F55"/>
					<stop  offset="1" style="stop-color:#FFD255"/>
				</linearGradient>
				<rect x="155.3" y="161.3" class="st7" width="17.3" height="8.7"/>
				
					<linearGradient id="SVGID_7_" gradientUnits="userSpaceOnUse" x1="326.0591" y1="286.7954" x2="79.1844" y2="286.7954" gradientTransform="matrix(1 0 0 -1 0 408)">
					<stop  offset="0" style="stop-color:#FF9F55"/>
					<stop  offset="1" style="stop-color:#FFD255"/>
				</linearGradient>
				<rect x="172.6" y="113.5" class="st8" width="8.7" height="15.4"/>
				
					<linearGradient id="SVGID_8_" gradientUnits="userSpaceOnUse" x1="326.0602" y1="294.5713" x2="79.1836" y2="294.5713" gradientTransform="matrix(1 0 0 -1 0 408)">
					<stop  offset="0" style="stop-color:#FF9F55"/>
					<stop  offset="1" style="stop-color:#FFD255"/>
				</linearGradient>
				<rect x="188.9" y="104.7" class="st9" width="8.7" height="17.5"/>
				
					<linearGradient id="SVGID_9_" gradientUnits="userSpaceOnUse" x1="326.0669" y1="233.6602" x2="79.1769" y2="233.6602" gradientTransform="matrix(1 0 0 -1 0 408)">
					<stop  offset="0" style="stop-color:#FF9F55"/>
					<stop  offset="1" style="stop-color:#FFD255"/>
				</linearGradient>
				<rect x="198.5" y="170" class="st10" width="8.7" height="8.7"/>
				
					<linearGradient id="SVGID_10_" gradientUnits="userSpaceOnUse" x1="326.0499" y1="218.8119" x2="79.1944" y2="218.8119" gradientTransform="matrix(1 0 0 -1 0 408)">
					<stop  offset="0" style="stop-color:#FF9F55"/>
					<stop  offset="1" style="stop-color:#FFD255"/>
				</linearGradient>
				<rect x="215.7" y="177.8" class="st11" width="8.7" height="22.8"/>
				
					<linearGradient id="SVGID_11_" gradientUnits="userSpaceOnUse" x1="326.0547" y1="242.3247" x2="79.1885" y2="242.3247" gradientTransform="matrix(1 0 0 -1 0 408)">
					<stop  offset="0" style="stop-color:#FF9F55"/>
					<stop  offset="1" style="stop-color:#FFD255"/>
				</linearGradient>
				<rect x="189.9" y="161.3" class="st12" width="8.7" height="8.7"/>
				
					<linearGradient id="SVGID_12_" gradientUnits="userSpaceOnUse" x1="326.0544" y1="250.9893" x2="79.1876" y2="250.9893" gradientTransform="matrix(1 0 0 -1 0 408)">
					<stop  offset="0" style="stop-color:#FF9F55"/>
					<stop  offset="1" style="stop-color:#FFD255"/>
				</linearGradient>
				<polygon class="st13" points="215.7,161.3 215.7,152.7 207.1,152.7 198.5,152.7 198.5,161.3 207.1,161.3 				"/>
				
					<linearGradient id="SVGID_13_" gradientUnits="userSpaceOnUse" x1="326.0557" y1="198.6316" x2="79.1875" y2="198.6316" gradientTransform="matrix(1 0 0 -1 0 408)">
					<stop  offset="0" style="stop-color:#FF9F55"/>
					<stop  offset="1" style="stop-color:#FFD255"/>
				</linearGradient>
				<polygon class="st14" points="232.3,204.5 215.7,204.5 215.7,200.6 207,200.6 207,223.7 215.7,223.7 215.7,213.2 223.8,213.2 
					223.8,221.8 232.5,221.8 232.5,213.3 241,213.3 241,195 232.3,195 				"/>
				
					<linearGradient id="SVGID_14_" gradientUnits="userSpaceOnUse" x1="326.0586" y1="149.3843" x2="79.182" y2="149.3843" gradientTransform="matrix(1 0 0 -1 0 408)">
					<stop  offset="0" style="stop-color:#FF9F55"/>
					<stop  offset="1" style="stop-color:#FFD255"/>
				</linearGradient>
				<rect x="249.6" y="254.3" class="st15" width="8.7" height="8.7"/>
				
					<linearGradient id="SVGID_15_" gradientUnits="userSpaceOnUse" x1="326.0549" y1="152.4946" x2="79.1879" y2="152.4946" gradientTransform="matrix(1 0 0 -1 0 408)">
					<stop  offset="0" style="stop-color:#FF9F55"/>
					<stop  offset="1" style="stop-color:#FFD255"/>
				</linearGradient>
				<polygon class="st16" points="180.9,238.2 172.3,238.2 172.3,245.6 172.3,254.3 172.3,272.8 180.9,272.8 180.9,254.3 
					189.9,254.3 189.9,245.6 180.9,245.6 				"/>
				
					<linearGradient id="SVGID_16_" gradientUnits="userSpaceOnUse" x1="326.0558" y1="165.8247" x2="79.1866" y2="165.8247" gradientTransform="matrix(1 0 0 -1 0 408)">
					<stop  offset="0" style="stop-color:#FF9F55"/>
					<stop  offset="1" style="stop-color:#FFD255"/>
				</linearGradient>
				<path class="st17" d="M156.3,212.8h-41.3h-8.7v8.7v41.4v8.7h8.7h41.3h8.7h0.1v-8.7h-0.1v-41.4h0.1v-8.7h-0.1H156.3z
					 M156.3,262.9h-41.3v-41.4h41.3V262.9z"/>
				
					<linearGradient id="SVGID_17_" gradientUnits="userSpaceOnUse" x1="326.0531" y1="140.7937" x2="79.1957" y2="140.7937" gradientTransform="matrix(1 0 0 -1 0 408)">
					<stop  offset="0" style="stop-color:#FF9F55"/>
					<stop  offset="1" style="stop-color:#FFD255"/>
				</linearGradient>
				<rect x="258.2" y="262.9" class="st18" width="17.3" height="8.7"/>
				
					<linearGradient id="SVGID_18_" gradientUnits="userSpaceOnUse" x1="326.0472" y1="145.015" x2="79.1995" y2="145.015" gradientTransform="matrix(1 0 0 -1 0 408)">
					<stop  offset="0" style="stop-color:#FF9F55"/>
					<stop  offset="1" style="stop-color:#FFD255"/>
				</linearGradient>
				<polygon class="st19" points="225.4,263 225.4,271.6 234,271.6 234,263 234,254.4 225.4,254.4 				"/>
				
					<linearGradient id="SVGID_19_" gradientUnits="userSpaceOnUse" x1="326.0566" y1="140.7937" x2="79.1866" y2="140.7937" gradientTransform="matrix(1 0 0 -1 0 408)">
					<stop  offset="0" style="stop-color:#FF9F55"/>
					<stop  offset="1" style="stop-color:#FFD255"/>
				</linearGradient>
				<rect x="189.9" y="262.9" class="st20" width="27.5" height="8.7"/>
				
					<linearGradient id="SVGID_20_" gradientUnits="userSpaceOnUse" x1="326.0593" y1="217.2197" x2="79.1805" y2="217.2197" gradientTransform="matrix(1 0 0 -1 0 408)">
					<stop  offset="0" style="stop-color:#FF9F55"/>
					<stop  offset="1" style="stop-color:#FFD255"/>
				</linearGradient>
				<rect x="241" y="186.4" class="st21" width="8.7" height="8.7"/>
				
					<linearGradient id="SVGID_21_" gradientUnits="userSpaceOnUse" x1="326.0586" y1="225.8843" x2="79.182" y2="225.8843" gradientTransform="matrix(1 0 0 -1 0 408)">
					<stop  offset="0" style="stop-color:#FF9F55"/>
					<stop  offset="1" style="stop-color:#FFD255"/>
				</linearGradient>
				<rect x="249.6" y="177.8" class="st22" width="8.7" height="8.7"/>
				
					<linearGradient id="SVGID_22_" gradientUnits="userSpaceOnUse" x1="326.0534" y1="243.1393" x2="79.2092" y2="243.1393" gradientTransform="matrix(1 0 0 -1 0 408)">
					<stop  offset="0" style="stop-color:#FF9F55"/>
					<stop  offset="1" style="stop-color:#FFD255"/>
				</linearGradient>
				<rect x="256.4" y="160.5" class="st23" width="17.6" height="8.7"/>
				
					<linearGradient id="SVGID_23_" gradientUnits="userSpaceOnUse" x1="326.0553" y1="220.5892" x2="79.1884" y2="220.5892" gradientTransform="matrix(1 0 0 -1 0 408)">
					<stop  offset="0" style="stop-color:#FF9F55"/>
					<stop  offset="1" style="stop-color:#FFD255"/>
				</linearGradient>
				<polygon class="st24" points="282.3,196.1 282.3,187.4 282.3,178.7 273.7,178.7 273.7,187.4 265.1,187.4 265.1,196.1 
					273.7,196.1 				"/>
				
					<linearGradient id="SVGID_24_" gradientUnits="userSpaceOnUse" x1="326.0511" y1="207.5924" x2="79.2013" y2="207.5924" gradientTransform="matrix(1 0 0 -1 0 408)">
					<stop  offset="0" style="stop-color:#FF9F55"/>
					<stop  offset="1" style="stop-color:#FFD255"/>
				</linearGradient>
				<rect x="256.4" y="196.1" class="st25" width="8.7" height="8.7"/>
				
					<linearGradient id="SVGID_25_" gradientUnits="userSpaceOnUse" x1="326.0546" y1="199.0019" x2="79.1905" y2="199.0019" gradientTransform="matrix(1 0 0 -1 0 408)">
					<stop  offset="0" style="stop-color:#FF9F55"/>
					<stop  offset="1" style="stop-color:#FFD255"/>
				</linearGradient>
				<rect x="265.1" y="204.7" class="st26" width="8.7" height="8.7"/>
				
					<linearGradient id="SVGID_26_" gradientUnits="userSpaceOnUse" x1="326.0553" y1="169.8608" x2="79.1884" y2="169.8608" gradientTransform="matrix(1 0 0 -1 0 408)">
					<stop  offset="0" style="stop-color:#FF9F55"/>
					<stop  offset="1" style="stop-color:#FFD255"/>
				</linearGradient>
				<polygon class="st27" points="273.7,239.3 273.7,254.3 282.3,254.3 282.3,228.9 273.7,228.9 273.7,222 265.1,222 265.1,239.3 
									"/>
				
					<linearGradient id="SVGID_27_" gradientUnits="userSpaceOnUse" x1="326.0554" y1="174.1931" x2="79.188" y2="174.1931" gradientTransform="matrix(1 0 0 -1 0 408)">
					<stop  offset="0" style="stop-color:#FF9F55"/>
					<stop  offset="1" style="stop-color:#FFD255"/>
				</linearGradient>
				<polygon class="st28" points="241,237 217.4,237 217.4,245.6 241,245.6 241,254.3 249.6,254.3 249.6,245.6 249.6,222 265.1,222 
					265.1,213.3 241,213.3 241,222 				"/>
				
					<linearGradient id="SVGID_28_" gradientUnits="userSpaceOnUse" x1="326.0575" y1="158.0488" x2="79.1857" y2="158.0488" gradientTransform="matrix(1 0 0 -1 0 408)">
					<stop  offset="0" style="stop-color:#FF9F55"/>
					<stop  offset="1" style="stop-color:#FFD255"/>
				</linearGradient>
				<rect x="198.5" y="245.6" class="st29" width="18.8" height="8.7"/>
				
					<linearGradient id="SVGID_29_" gradientUnits="userSpaceOnUse" x1="326.0564" y1="199.2981" x2="79.186" y2="199.2981" gradientTransform="matrix(1 0 0 -1 0 408)">
					<stop  offset="0" style="stop-color:#FF9F55"/>
					<stop  offset="1" style="stop-color:#FFD255"/>
				</linearGradient>
				<polygon class="st30" points="163.2,195.6 163.2,204.5 172.3,204.5 172.3,221.8 180.9,221.8 180.9,204.5 172.3,204.5 
					172.3,195.6 				"/>
				
					<linearGradient id="SVGID_30_" gradientUnits="userSpaceOnUse" x1="326.0584" y1="165.8248" x2="79.1864" y2="165.8248" gradientTransform="matrix(1 0 0 -1 0 408)">
					<stop  offset="0" style="stop-color:#FF9F55"/>
					<stop  offset="1" style="stop-color:#FFD255"/>
				</linearGradient>
				<rect x="122.7" y="229.3" class="st31" width="25.8" height="25.8"/>
				
					<linearGradient id="SVGID_31_" gradientUnits="userSpaceOnUse" x1="326.0558" y1="284.6848" x2="79.1866" y2="284.6848" gradientTransform="matrix(1 0 0 -1 0 408)">
					<stop  offset="0" style="stop-color:#FF9F55"/>
					<stop  offset="1" style="stop-color:#FFD255"/>
				</linearGradient>
				<path class="st32" d="M156.3,152.7h8.7h0.1V144h-0.1v-41.4h0.1V94h-0.1h-8.7h-41.3h-8.7v8.7V144v8.7h8.7H156.3L156.3,152.7z
					 M114.9,102.6h41.3V144h-41.3V102.6z"/>
				
					<linearGradient id="SVGID_32_" gradientUnits="userSpaceOnUse" x1="326.0584" y1="284.6848" x2="79.1864" y2="284.6848" gradientTransform="matrix(1 0 0 -1 0 408)">
					<stop  offset="0" style="stop-color:#FF9F55"/>
					<stop  offset="1" style="stop-color:#FFD255"/>
				</linearGradient>
				<rect x="122.7" y="110.4" class="st33" width="25.8" height="25.8"/>
				
					<linearGradient id="SVGID_33_" gradientUnits="userSpaceOnUse" x1="326.0563" y1="272.1323" x2="79.1867" y2="272.1323" gradientTransform="matrix(1 0 0 -1 0 408)">
					<stop  offset="0" style="stop-color:#FF9F55"/>
					<stop  offset="1" style="stop-color:#FFD255"/>
				</linearGradient>
				<path class="st34" d="M283.3,102.6V94h-0.1h-8.7h-41.3h-8.7v8.7v10.9h-18.8v8.7h-8.2v13.6h-7.7V129h-8.7v6.8h-0.5h-8v25.5h8.7
					v-17h8.7h7.7h8.7v-8.7v-13.6h18.4V144v8.7h8.5h7.8v16.4h-16.7v8.7h25.3v-8.7v-16.4h25h8.7h0.1V144h-0.1L283.3,102.6L283.3,102.6
					z M274.6,144.1h-41.4v-41.4h41.3L274.6,144.1L274.6,144.1z"/>
				
					<linearGradient id="SVGID_34_" gradientUnits="userSpaceOnUse" x1="326.0579" y1="284.6848" x2="79.1816" y2="284.6848" gradientTransform="matrix(1 0 0 -1 0 408)">
					<stop  offset="0" style="stop-color:#FF9F55"/>
					<stop  offset="1" style="stop-color:#FFD255"/>
				</linearGradient>
				<rect x="241" y="110.4" class="st35" width="25.8" height="25.8"/>
			</g>
			<polygon class="st0" points="216.3,54.6 215.2,54.6 218.5,48.1 219.5,48.1 			"/>
			<rect x="182.4" y="54" class="st0" width="51" height="0.8"/>
			<rect x="182.4" y="56.7" class="st0" width="27.3" height="4.7"/>
			<g>
				
					<linearGradient id="SVGID_35_" gradientUnits="userSpaceOnUse" x1="994.365" y1="12457.6055" x2="963.4095" y2="12457.6055" gradientTransform="matrix(0 1 1 0 -12171.8564 -885.75)">
					<stop  offset="0" style="stop-color:#FF9F55"/>
					<stop  offset="1" style="stop-color:#FFD255"/>
				</linearGradient>
				<polygon class="st36" points="301.2,108.6 298.4,108.6 298.4,80.5 270.3,80.5 270.3,77.7 301.2,77.7 				"/>
			</g>
			<g>
				
					<linearGradient id="SVGID_36_" gradientUnits="userSpaceOnUse" x1="338.8593" y1="104.5651" x2="307.9038" y2="104.5651" gradientTransform="matrix(1 0 0 -1 -217.4038 197.7024)">
					<stop  offset="0" style="stop-color:#FF9F55"/>
					<stop  offset="1" style="stop-color:#FFD255"/>
				</linearGradient>
				<polygon class="st37" points="121.5,77.7 121.5,80.5 93.4,80.5 93.4,108.6 90.5,108.6 90.5,77.7 				"/>
			</g>
			<g>
				
					<linearGradient id="SVGID_37_" gradientUnits="userSpaceOnUse" x1="320" y1="291.8313" x2="153.9661" y2="291.8313" gradientTransform="matrix(1 0 0 -1 0 408)">
					<stop  offset="0" style="stop-color:#FF9F55"/>
					<stop  offset="1" style="stop-color:#FFD255"/>
				</linearGradient>
				<polygon class="st38" points="320,170 318.8,170 318.8,63.5 241.8,63.5 241.8,75.2 154,75.2 154,74 240.6,74 240.6,62.3 
					320,62.3 				"/>
			</g>
			<g>
				<rect x="120.3" y="282.5" class="st39" width="3.6" height="14.3"/>
			</g>
			<g>
				<rect x="126.6" y="277.8" class="st40" width="3.6" height="19"/>
			</g>
			<g>
				<rect x="132.9" y="272.8" class="st39" width="3.6" height="24"/>
			</g>
			<g>
				<rect x="139.4" y="275.5" class="st40" width="3.6" height="21.3"/>
			</g>
			<g>
				<rect x="146.1" y="269.3" class="st39" width="3.6" height="27.5"/>
			</g>
		</g>
	</g>
</g>
</svg>
